<svg width="1600" height="700" viewBox="0 0 1600 700" fill="none" xmlns="http://www.w3.org/2000/svg">
<path d="M1600 0H0V700H1600V0Z" fill="url(#paint0_linear)"/>
<g style="mix-blend-mode:multiply" opacity="0.05">
<path d="M1281.48 199.9L1280.25 209.86C1280.52 207.71 1279.85 205.42 1278.13 203.22C1273.15 196.83 1261.24 193.54 1251.51 195.87C1245.15 197.39 1241.3 200.95 1240.8 205.01L1242.03 195.05C1242.53 190.98 1246.38 187.43 1252.74 185.91C1262.47 183.58 1274.39 186.87 1279.36 193.26C1281.08 195.46 1281.75 197.75 1281.48 199.9Z" fill="url(#paint1_linear)"/>
<path d="M1304.15 202.68L1302.92 212.64C1301.84 221.38 1293.57 229.02 1279.89 232.3C1258.99 237.3 1233.38 230.22 1222.68 216.49C1218.98 211.75 1217.55 206.83 1218.12 202.22L1219.35 192.26C1218.78 196.87 1220.21 201.79 1223.91 206.53C1234.61 220.26 1260.22 227.35 1281.12 222.34C1294.8 219.06 1303.07 211.42 1304.15 202.68Z" fill="url(#paint2_linear)"/>
<path d="M1299.6 188.41C1310.3 202.14 1302.02 217.34 1281.12 222.34C1260.22 227.34 1234.61 220.26 1223.91 206.53C1213.21 192.8 1221.48 177.61 1242.38 172.61C1263.28 167.6 1288.9 174.67 1299.6 188.41ZM1244.14 201.68C1249.12 208.08 1261.04 211.37 1270.76 209.04C1280.49 206.71 1284.34 199.65 1279.36 193.25C1274.38 186.86 1262.47 183.57 1252.74 185.9C1243.01 188.23 1239.17 195.29 1244.14 201.68Z" fill="#C6C6C6"/>
<path d="M1299.6 188.41C1310.3 202.14 1302.02 217.34 1281.12 222.34C1260.22 227.34 1234.61 220.26 1223.91 206.53C1213.21 192.8 1221.48 177.61 1242.38 172.61C1263.28 167.6 1288.9 174.67 1299.6 188.41ZM1244.14 201.68C1249.12 208.08 1261.04 211.37 1270.76 209.04C1280.49 206.71 1284.34 199.65 1279.36 193.25C1274.38 186.86 1262.47 183.57 1252.74 185.9C1243.01 188.23 1239.17 195.29 1244.14 201.68Z" fill="url(#paint3_radial)"/>
</g>
<g style="mix-blend-mode:multiply" opacity="0.05">
<path d="M1407.64 363.02L1401.44 366.11C1402.78 365.44 1403.84 364.19 1404.46 362.35C1406.24 357.05 1403.59 348.93 1398.54 344.21C1395.23 341.13 1391.72 340.27 1389.19 341.53L1395.39 338.44C1397.92 337.18 1401.44 338.04 1404.74 341.12C1409.79 345.84 1412.45 353.95 1410.66 359.26C1410.04 361.09 1408.97 362.35 1407.64 363.02Z" fill="url(#paint4_linear)"/>
<path d="M1414.68 377.13L1408.48 380.22C1403.03 382.93 1395.48 381.09 1388.37 374.46C1377.51 364.33 1371.82 346.88 1375.65 335.48C1376.97 331.54 1379.26 328.84 1382.13 327.41L1388.33 324.32C1385.46 325.75 1383.17 328.45 1381.85 332.39C1378.02 343.79 1383.72 361.24 1394.57 371.37C1401.68 378 1409.24 379.85 1414.68 377.13Z" fill="url(#paint5_linear)"/>
<path d="M1421.16 369.06C1417.33 380.46 1405.43 381.49 1394.57 371.36C1383.71 361.23 1378.02 343.78 1381.85 332.38C1385.68 320.98 1397.58 319.95 1408.43 330.08C1419.28 340.21 1424.99 357.66 1421.16 369.06ZM1392.36 342.19C1390.58 347.5 1393.23 355.62 1398.28 360.33C1403.34 365.05 1408.87 364.57 1410.65 359.26C1412.43 353.96 1409.78 345.84 1404.73 341.12C1399.68 336.41 1394.14 336.89 1392.36 342.19Z" fill="#C6C6C6"/>
<path d="M1421.16 369.06C1417.33 380.46 1405.43 381.49 1394.57 371.36C1383.71 361.23 1378.02 343.78 1381.85 332.38C1385.68 320.98 1397.58 319.95 1408.43 330.08C1419.28 340.21 1424.99 357.66 1421.16 369.06ZM1392.36 342.19C1390.58 347.5 1393.23 355.62 1398.28 360.33C1403.34 365.05 1408.87 364.57 1410.65 359.26C1412.43 353.96 1409.78 345.84 1404.73 341.12C1399.68 336.41 1394.14 336.89 1392.36 342.19Z" fill="url(#paint6_radial)"/>
</g>
<g style="mix-blend-mode:multiply" opacity="0.1">
<path d="M1286.9 502.965C1289.16 503.417 1291.79 505.006 1293.81 507.551L1333 556.831C1337.04 561.915 1335.61 566.969 1330.43 565.933L1280.19 555.906C1275.01 554.87 1269.96 548.517 1271.1 544.475L1282.15 505.223C1282.73 503.199 1284.63 502.506 1286.9 502.965Z" fill="url(#paint7_linear)"/>
<path d="M1330.44 565.934L1280.2 555.908C1275.02 554.872 1269.97 548.518 1271.11 544.477L1282.17 505.224C1282.33 504.655 1282.59 504.181 1282.95 503.827L1281.23 505.599C1280.88 505.96 1280.6 506.427 1280.44 506.996L1269.39 546.249C1268.26 550.298 1273.3 556.644 1278.48 557.68L1328.72 567.706C1330.51 568.062 1331.85 567.691 1332.67 566.851L1334.4 565.079C1333.57 565.919 1332.23 566.296 1330.44 565.934Z" fill="url(#paint8_linear)"/>
</g>
<g style="mix-blend-mode:multiply" opacity="0.1">
<path d="M436.915 106.327C438.725 104.887 441.635 103.907 444.885 104.007L507.815 105.917C514.305 106.117 517.245 110.467 513.105 113.757L473.005 145.637C468.865 148.927 460.755 148.677 458.405 145.197L435.575 111.407C434.405 109.657 435.105 107.757 436.915 106.327Z" fill="url(#paint9_linear)"/>
<path d="M513.115 113.747L473.015 145.627C468.875 148.917 460.765 148.667 458.415 145.187L435.585 111.397C435.255 110.907 435.065 110.397 435.025 109.897L435.265 112.357C435.315 112.857 435.495 113.367 435.825 113.857L458.655 147.647C461.015 151.127 469.115 151.377 473.255 148.087L513.355 116.207C514.785 115.067 515.365 113.807 515.255 112.637L515.015 110.177C515.125 111.347 514.545 112.617 513.115 113.747Z" fill="url(#paint10_linear)"/>
</g>
<g style="mix-blend-mode:multiply" opacity="0.2">
<path d="M380.461 425.473C374.156 430.531 373.173 439.736 378.231 446.041C383.289 452.346 392.495 453.329 398.799 448.27C405.104 443.212 406.087 434.007 401.029 427.702C395.971 421.398 386.741 420.391 380.461 425.473Z" fill="url(#paint11_radial)"/>
<path d="M384.896 432.305C380.844 437.555 381.3 444.699 385.903 448.223C390.505 451.747 397.505 450.356 401.532 445.106C405.584 439.856 405.128 432.713 400.526 429.189C395.947 425.641 388.947 427.031 384.896 432.305Z" fill="url(#paint12_radial)"/>
<path d="M384.896 432.305C380.844 437.555 381.3 444.699 385.903 448.223C390.505 451.747 397.505 450.356 401.532 445.106C405.584 439.856 405.128 432.713 400.526 429.189C395.947 425.641 388.947 427.031 384.896 432.305Z" fill="url(#paint13_radial)"/>
<path d="M382.618 422.836C378.902 424.634 377.128 428.709 378.71 431.97C380.269 435.23 384.56 436.428 388.275 434.631C391.991 432.833 393.765 428.757 392.183 425.497C390.601 422.237 386.334 421.038 382.618 422.836Z" fill="url(#paint14_radial)"/>
<path d="M382.618 422.836C378.902 424.634 377.128 428.709 378.71 431.97C380.269 435.23 384.56 436.428 388.275 434.631C391.991 432.833 393.765 428.757 392.183 425.497C390.601 422.237 386.334 421.038 382.618 422.836Z" fill="url(#paint15_radial)"/>
</g>
<g style="mix-blend-mode:multiply" opacity="0.2">
<path d="M1115.58 336.41C1105.69 344.368 1104.12 358.801 1112.08 368.693C1120.03 378.585 1134.47 380.159 1144.36 372.2C1154.25 364.242 1155.82 349.809 1147.87 339.917C1139.91 330.025 1125.47 328.497 1115.58 336.41Z" fill="url(#paint16_radial)"/>
<path d="M1122.55 347.156C1116.21 355.429 1116.93 366.58 1124.13 372.155C1131.32 377.686 1142.34 375.482 1148.68 367.254C1155.02 358.981 1154.3 347.83 1147.1 342.255C1139.91 336.725 1128.89 338.928 1122.55 347.156Z" fill="url(#paint17_radial)"/>
<path d="M1122.55 347.156C1116.21 355.429 1116.93 366.58 1124.13 372.155C1131.32 377.686 1142.34 375.482 1148.68 367.254C1155.02 358.981 1154.3 347.83 1147.1 342.255C1139.91 336.725 1128.89 338.928 1122.55 347.156Z" fill="url(#paint18_radial)"/>
<path d="M1118.95 332.318C1113.11 335.106 1110.37 341.535 1112.79 346.661C1115.27 351.787 1121.97 353.63 1127.81 350.842C1133.66 348.055 1136.4 341.625 1133.97 336.499C1131.54 331.374 1124.84 329.485 1118.95 332.318Z" fill="url(#paint19_radial)"/>
<path d="M1118.95 332.318C1113.11 335.106 1110.37 341.535 1112.79 346.661C1115.27 351.787 1121.97 353.63 1127.81 350.842C1133.66 348.055 1136.4 341.625 1133.97 336.499C1131.54 331.374 1124.84 329.485 1118.95 332.318Z" fill="url(#paint20_radial)"/>
</g>
<g style="mix-blend-mode:multiply" opacity="0.2">
<path d="M116.619 552.45C106.687 560.438 105.105 574.982 113.092 584.933C121.08 594.865 135.625 596.447 145.575 588.46C155.507 580.472 157.089 565.928 149.102 555.977C141.096 546.026 126.57 544.463 116.619 552.45Z" fill="url(#paint21_radial)"/>
<path d="M123.634 563.259C117.248 571.57 117.973 582.818 125.216 588.403C132.479 593.988 143.536 591.777 149.922 583.466C156.308 575.154 155.583 563.907 148.339 558.322C141.077 552.737 130.02 554.948 123.634 563.259Z" fill="url(#paint22_radial)"/>
<path d="M123.634 563.259C117.248 571.57 117.973 582.818 125.216 588.403C132.479 593.988 143.536 591.777 149.922 583.466C156.308 575.154 155.583 563.907 148.339 558.322C141.077 552.737 130.02 554.948 123.634 563.259Z" fill="url(#paint23_radial)"/>
<path d="M120.031 548.314C114.141 551.135 111.377 557.597 113.836 562.744C116.295 567.891 123.081 569.778 128.952 566.957C134.843 564.136 137.607 557.673 135.148 552.527C132.689 547.361 125.921 545.492 120.031 548.314Z" fill="url(#paint24_radial)"/>
<path d="M120.031 548.314C114.141 551.135 111.377 557.597 113.836 562.744C116.295 567.891 123.081 569.778 128.952 566.957C134.843 564.136 137.607 557.673 135.148 552.527C132.689 547.361 125.921 545.492 120.031 548.314Z" fill="url(#paint25_radial)"/>
</g>
<circle cx="1273.5" cy="579.5" r="14.5" fill="#72C3FD"/>
<circle cx="434.5" cy="199.5" r="9.5" fill="#FDC375"/>
<circle cx="244.5" cy="557.5" r="7.5" fill="#13C6CC"/>
<circle cx="170.5" cy="340.5" r="5.5" fill="#FA89F0"/>
<circle cx="1467.5" cy="281.5" r="9.5" fill="#FEC575"/>
<path d="M1121.5 130L1133.19 150.25H1109.81L1121.5 130Z" fill="#FA89F0"/>
<path d="M201.143 154.628L180.041 144.555L199.316 131.317L201.143 154.628Z" fill="#13C6CC"/>
<path d="M-95.7654 -67.763C-58.0798 -105.449 42.6955 -133.566 108.499 -67.763C174.302 -1.95962 186.5 113 142.53 170.532C59.5613 253.5 -29.961 208.304 -95.7643 142.5C-161.568 76.697 -133.451 -30.0775 -95.7654 -67.763Z" fill="#C4C4C4"/>
<path d="M-95.7654 -67.763C-58.0798 -105.449 42.6955 -133.566 108.499 -67.763C174.302 -1.95962 186.5 113 142.53 170.532C59.5613 253.5 -29.961 208.304 -95.7643 142.5C-161.568 76.697 -133.451 -30.0775 -95.7654 -67.763Z" fill="url(#paint26_linear)"/>
<g style="mix-blend-mode:multiply" opacity="0.3">
<path d="M447.5 120C447.5 275.468 570.622 401.5 722.5 401.5C774.167 389.167 1019.5 222 1196.5 323C1314.37 390.257 1457 400.5 1522 306C1587 211.5 1578 80.4999 1502.5 11.9999C1427 -56.5001 1113.5 -278 917 -257C765.122 -257 447.5 -35.4682 447.5 120Z" fill="#ECEFFE"/>
</g>
<defs>
<linearGradient id="paint0_linear" x1="1346.5" y1="-7.18053e-05" x2="254.5" y2="695" gradientUnits="userSpaceOnUse">
<stop stop-color="#EDF1FE"/>
<stop offset="1" stop-color="#EDF1FE" stop-opacity="0.4"/>
</linearGradient>
<linearGradient id="paint1_linear" x1="1322.93" y1="132.105" x2="1283.46" y2="176.366" gradientUnits="userSpaceOnUse">
<stop stop-color="#8A8A8A"/>
<stop offset="1" stop-color="#959595"/>
</linearGradient>
<linearGradient id="paint2_linear" x1="1232.64" y1="178.965" x2="1287.2" y2="233.53" gradientUnits="userSpaceOnUse">
<stop stop-color="#8A8A8A"/>
<stop offset="1" stop-color="#959595"/>
</linearGradient>
<radialGradient id="paint3_radial" cx="0" cy="0" r="1" gradientUnits="userSpaceOnUse" gradientTransform="translate(1282.39 158.888) rotate(45) scale(35.4138)">
<stop stop-color="#A2A2A2"/>
<stop offset="0.242" stop-color="#6D6D6D"/>
<stop offset="0.4861" stop-color="#3E3E3E"/>
<stop offset="0.7027" stop-color="#1C1C1C"/>
<stop offset="0.8814" stop-color="#070707"/>
<stop offset="1"/>
</radialGradient>
<linearGradient id="paint4_linear" x1="1462.49" y1="361.021" x2="1421.94" y2="355.176" gradientUnits="userSpaceOnUse">
<stop stop-color="#8A8A8A"/>
<stop offset="1" stop-color="#959595"/>
</linearGradient>
<linearGradient id="paint5_linear" x1="1401.05" y1="326.902" x2="1390.45" y2="379.144" gradientUnits="userSpaceOnUse">
<stop stop-color="#8A8A8A"/>
<stop offset="1" stop-color="#959595"/>
</linearGradient>
<radialGradient id="paint6_radial" cx="0" cy="0" r="1" gradientUnits="userSpaceOnUse" gradientTransform="translate(1411.94 326.557) rotate(45) scale(22.8535)">
<stop stop-color="#A2A2A2"/>
<stop offset="0.242" stop-color="#6D6D6D"/>
<stop offset="0.4861" stop-color="#3E3E3E"/>
<stop offset="0.7027" stop-color="#1C1C1C"/>
<stop offset="0.8814" stop-color="#070707"/>
<stop offset="1"/>
</radialGradient>
<linearGradient id="paint7_linear" x1="1337.45" y1="558.175" x2="1261.77" y2="517.824" gradientUnits="userSpaceOnUse">
<stop stop-color="#B1B1B1"/>
<stop offset="1" stop-color="#808080"/>
</linearGradient>
<linearGradient id="paint8_linear" x1="1272.96" y1="529.129" x2="1339.02" y2="542.973" gradientUnits="userSpaceOnUse">
<stop stop-color="#515151"/>
<stop offset="1" stop-color="#BFBFBF"/>
</linearGradient>
<linearGradient id="paint9_linear" x1="511.716" y1="103.387" x2="432.031" y2="135.109" gradientUnits="userSpaceOnUse">
<stop stop-color="#B1B1B1"/>
<stop offset="1" stop-color="#808080"/>
</linearGradient>
<linearGradient id="paint10_linear" x1="447.893" y1="133.862" x2="501.126" y2="92.3658" gradientUnits="userSpaceOnUse">
<stop stop-color="#515151"/>
<stop offset="1" stop-color="#BFBFBF"/>
</linearGradient>
<radialGradient id="paint11_radial" cx="0" cy="0" r="1" gradientUnits="userSpaceOnUse" gradientTransform="translate(393.45 427.639) rotate(-128.817) scale(23.8228)">
<stop stop-color="#A4A4A4"/>
<stop offset="0.00827242" stop-color="#A7A7A7"/>
<stop offset="0.0147" stop-color="#B1B1B1"/>
<stop offset="0.0206" stop-color="#C1C1C1"/>
<stop offset="0.0213" stop-color="#C4C4C4"/>
<stop offset="0.497" stop-color="#C7C7C7"/>
<stop offset="0.8791" stop-color="#D1D1D1"/>
<stop offset="0.997" stop-color="#D6D6D6"/>
</radialGradient>
<radialGradient id="paint12_radial" cx="0" cy="0" r="1" gradientUnits="userSpaceOnUse" gradientTransform="translate(393.518 438.791) rotate(-142.459) scale(10.2073 11.6762)">
<stop stop-color="white"/>
<stop offset="1" stop-color="white" stop-opacity="0"/>
</radialGradient>
<radialGradient id="paint13_radial" cx="0" cy="0" r="1" gradientUnits="userSpaceOnUse" gradientTransform="translate(393.518 438.791) rotate(-142.459) scale(10.2073 11.6762)">
<stop stop-color="white"/>
<stop offset="1" stop-color="white" stop-opacity="0"/>
</radialGradient>
<radialGradient id="paint14_radial" cx="0" cy="0" r="1" gradientUnits="userSpaceOnUse" gradientTransform="translate(385.581 428.869) rotate(-115.615) scale(6.3613 7.27724)">
<stop stop-color="white"/>
<stop offset="1" stop-color="white" stop-opacity="0"/>
</radialGradient>
<radialGradient id="paint15_radial" cx="0" cy="0" r="1" gradientUnits="userSpaceOnUse" gradientTransform="translate(385.581 428.869) rotate(-115.615) scale(6.3613 7.27724)">
<stop stop-color="white"/>
<stop offset="1" stop-color="white" stop-opacity="0"/>
</radialGradient>
<radialGradient id="paint16_radial" cx="0" cy="0" r="1" gradientUnits="userSpaceOnUse" gradientTransform="translate(1135.98 339.845) rotate(-128.817) scale(37.397)">
<stop stop-color="#A4A4A4"/>
<stop offset="0.00827242" stop-color="#A7A7A7"/>
<stop offset="0.0147" stop-color="#B1B1B1"/>
<stop offset="0.0206" stop-color="#C1C1C1"/>
<stop offset="0.0213" stop-color="#C4C4C4"/>
<stop offset="0.497" stop-color="#C7C7C7"/>
<stop offset="0.8791" stop-color="#D1D1D1"/>
<stop offset="0.997" stop-color="#D6D6D6"/>
</radialGradient>
<radialGradient id="paint17_radial" cx="0" cy="0" r="1" gradientUnits="userSpaceOnUse" gradientTransform="translate(1136.09 357.35) rotate(-142.459) scale(16.0235 18.3294)">
<stop stop-color="white"/>
<stop offset="1" stop-color="white" stop-opacity="0"/>
</radialGradient>
<radialGradient id="paint18_radial" cx="0" cy="0" r="1" gradientUnits="userSpaceOnUse" gradientTransform="translate(1136.09 357.35) rotate(-142.459) scale(16.0235 18.3294)">
<stop stop-color="white"/>
<stop offset="1" stop-color="white" stop-opacity="0"/>
</radialGradient>
<radialGradient id="paint19_radial" cx="0" cy="0" r="1" gradientUnits="userSpaceOnUse" gradientTransform="translate(1123.63 341.774) rotate(-115.615) scale(9.98588 11.4237)">
<stop stop-color="white"/>
<stop offset="1" stop-color="white" stop-opacity="0"/>
</radialGradient>
<radialGradient id="paint20_radial" cx="0" cy="0" r="1" gradientUnits="userSpaceOnUse" gradientTransform="translate(1123.63 341.774) rotate(-115.615) scale(9.98588 11.4237)">
<stop stop-color="white"/>
<stop offset="1" stop-color="white" stop-opacity="0"/>
</radialGradient>
<radialGradient id="paint21_radial" cx="0" cy="0" r="1" gradientUnits="userSpaceOnUse" gradientTransform="translate(137.138 555.894) rotate(-128.817) scale(37.626)">
<stop stop-color="#A4A4A4"/>
<stop offset="0.00827242" stop-color="#A7A7A7"/>
<stop offset="0.0147" stop-color="#B1B1B1"/>
<stop offset="0.0206" stop-color="#C1C1C1"/>
<stop offset="0.0213" stop-color="#C4C4C4"/>
<stop offset="0.497" stop-color="#C7C7C7"/>
<stop offset="0.8791" stop-color="#D1D1D1"/>
<stop offset="0.997" stop-color="#D6D6D6"/>
</radialGradient>
<radialGradient id="paint22_radial" cx="0" cy="0" r="1" gradientUnits="userSpaceOnUse" gradientTransform="translate(137.245 573.507) rotate(-142.459) scale(16.1214 18.4414)">
<stop stop-color="white"/>
<stop offset="1" stop-color="white" stop-opacity="0"/>
</radialGradient>
<radialGradient id="paint23_radial" cx="0" cy="0" r="1" gradientUnits="userSpaceOnUse" gradientTransform="translate(137.245 573.507) rotate(-142.459) scale(16.1214 18.4414)">
<stop stop-color="white"/>
<stop offset="1" stop-color="white" stop-opacity="0"/>
</radialGradient>
<radialGradient id="paint24_radial" cx="0" cy="0" r="1" gradientUnits="userSpaceOnUse" gradientTransform="translate(124.71 557.836) rotate(-115.615) scale(10.0471 11.4937)">
<stop stop-color="white"/>
<stop offset="1" stop-color="white" stop-opacity="0"/>
</radialGradient>
<radialGradient id="paint25_radial" cx="0" cy="0" r="1" gradientUnits="userSpaceOnUse" gradientTransform="translate(124.71 557.836) rotate(-115.615) scale(10.0471 11.4937)">
<stop stop-color="white"/>
<stop offset="1" stop-color="white" stop-opacity="0"/>
</radialGradient>
<linearGradient id="paint26_linear" x1="-26.1469" y1="212.118" x2="-154.37" y2="-3.64948" gradientUnits="userSpaceOnUse">
<stop stop-color="#773CF3"/>
<stop offset="1" stop-color="#4168F1"/>
</linearGradient>
</defs>
</svg>
