<svg width="150" height="167" viewBox="0 0 150 167" fill="none" xmlns="http://www.w3.org/2000/svg">
<g opacity="0.45">
<path opacity="0.45" d="M84.6485 83.2433C85.8619 84.2559 86.3158 85.4257 86.0365 86.962C86.6999 86.2462 87.4157 85.7835 88.3235 85.6875C89.2226 85.5915 90.0345 85.8185 90.7415 86.3771C91.8589 87.25 92.2604 88.7777 91.7367 90.2092C91.274 91.4924 89.9297 92.2606 88.2537 92.217C88.533 92.7145 88.9084 93.2034 89.0917 93.7533C89.275 94.312 89.2663 94.923 89.3361 95.5079C89.8861 94.9143 90.628 94.4953 91.5359 94.4342C92.4612 94.3731 93.273 94.6524 93.9451 95.2897C95.0276 96.3022 95.272 97.9259 94.5475 99.2265C93.8317 100.501 92.3215 101.112 90.855 100.719C89.3361 100.309 88.533 98.9996 88.5767 96.9569C87.7299 97.9084 86.6912 98.3449 85.3469 98.2227C86.2372 99.1742 86.6213 100.222 86.4031 101.548C87.1014 100.833 87.8521 100.431 88.7687 100.396C89.6766 100.361 90.4622 100.658 91.1256 101.269C92.208 102.273 92.4437 103.862 91.7105 105.206C91.0383 106.463 89.5194 107.1 88.0791 106.734C86.534 106.341 85.696 105.058 85.696 103.015C84.7795 103.993 83.6796 104.394 82.3178 104.193C83.4002 105.241 83.7407 106.437 83.3479 107.903C84.5962 106.376 86.3071 106.009 87.7125 106.9C89.1092 107.79 89.6154 109.518 88.9084 110.967C88.1839 112.451 86.5166 113.106 84.9279 112.539C83.409 111.997 82.6321 110.409 83.0424 108.567C82.0647 109.833 80.8513 110.339 79.2015 110.007C79.9871 110.671 80.441 111.386 80.5458 112.285C80.6505 113.202 80.4149 114.023 79.8213 114.738C78.8611 115.891 77.1501 116.205 75.832 115.472C74.5052 114.738 73.8941 113.193 74.3306 111.701C74.7845 110.155 76.1987 109.352 78.2587 109.536C77.2374 108.706 76.7748 107.685 76.8621 106.315C75.9542 107.179 74.9678 107.563 73.7894 107.458C74.9591 109.422 74.9591 110.845 73.8068 112.067C72.8117 113.123 71.2492 113.42 69.966 112.792C68.5519 112.102 67.9146 110.671 68.2463 108.82C66.937 110.321 65.4093 110.775 63.7072 109.78C62.3629 108.995 61.9351 107.703 62.2057 106.175C60.2504 107.615 59.0196 107.781 57.6316 106.803C56.5492 106.035 56.0342 104.516 56.427 103.268C56.9333 101.688 58.0943 100.946 60.102 100.937C58.9759 99.4622 58.8101 98.9123 59.037 97.341C58.3212 98.179 57.5269 98.6417 56.5405 98.6853C55.5366 98.729 54.6812 98.3798 53.9915 97.6465C52.979 96.5641 52.848 94.9929 53.6598 93.6835C54.3756 92.5138 55.9556 91.9289 57.2825 92.3392C58.9061 92.8455 59.6481 94.0763 59.5782 96.2761C60.3988 95.2984 61.3939 94.8445 62.6946 94.8881C61.8566 93.9541 61.5249 92.9328 61.6733 91.7369C60.198 92.9066 58.6006 93.0986 57.457 92.2606C56.0866 91.2568 55.5977 89.7553 56.1651 88.2626C56.7412 86.7438 58.1117 86.0803 60.3464 86.3073C59.6132 85.7661 59.1156 85.1376 58.9148 84.3083C58.7053 83.4878 58.7926 82.6934 59.2029 81.9514C59.9798 80.546 61.3765 79.9874 63.2707 80.3976C62.3629 79.708 61.8304 78.9486 61.7344 77.9447C61.6383 76.9234 61.9526 76.0417 62.6858 75.3172C63.6984 74.3308 65.357 74.1388 66.5092 74.8633C67.871 75.7188 68.3947 77.2464 67.8623 78.774C67.356 80.223 65.9593 80.8952 63.8119 80.6682C64.9816 81.5324 65.4879 82.6236 65.3133 84.1075C66.2037 83.1822 67.2163 82.7458 68.4908 82.8418C67.2949 81.3142 67.1552 79.7778 68.3686 78.2677C69.2066 77.2289 70.708 76.8623 71.9388 77.2988C73.4228 77.8312 74.1735 79.0097 74.1997 80.7817C74.7147 80.5111 75.2035 80.1532 75.7622 79.9874C76.3209 79.8215 76.9406 79.8477 77.5429 79.7866C76.8883 79.1843 76.4256 78.4161 76.382 77.4471C76.3383 76.4869 76.6526 75.6489 77.3422 74.9768C78.4159 73.9205 80.0395 73.7547 81.3402 74.5578C82.5535 75.3085 83.1209 76.9234 82.6583 78.2764C82.1258 79.8389 80.7815 80.6159 78.7738 80.4413C79.83 81.3317 80.2839 82.4141 80.1617 83.802C81.183 82.8331 82.3004 82.5014 83.6185 82.7545C82.8329 82.0038 82.3527 81.1483 82.3702 80.0659C82.3877 79.2977 82.6408 78.6169 83.1384 78.032C84.1248 76.871 85.8444 76.583 87.18 77.3511C88.4807 78.0931 89.0917 79.6993 88.6116 81.1571C88.1053 82.6759 86.6737 83.479 84.6485 83.2433ZM62.4938 89.9474C63.3231 89.0919 64.2833 88.6991 65.4705 88.7253C64.6936 87.8 64.4229 86.7961 64.5801 85.5828C63.5326 86.6565 62.3629 86.9358 61.0186 86.639C62.1272 87.4683 62.5898 88.5507 62.4938 89.9474ZM62.6858 105.084C63.5064 104.045 64.4753 103.644 65.7061 103.635C64.9467 102.806 64.615 101.898 64.6412 100.807C63.7421 101.557 62.7644 101.784 61.6121 101.627C62.6247 102.587 62.9477 103.678 62.6858 105.084ZM67.8099 104.656C68.6828 105.669 68.8836 106.742 68.6566 107.93C69.451 106.917 70.4723 106.48 71.7817 106.515C71.0135 105.721 70.6643 104.822 70.6643 103.713C69.8176 104.438 68.9185 104.7 67.8099 104.656ZM86.4991 91.4052C85.5651 90.4886 85.2683 89.4236 85.4778 88.1142C84.7271 89.0395 83.8193 89.4673 82.6583 89.5371C83.3391 90.3577 83.6185 91.248 83.5836 92.2693C84.6485 91.5361 84.9279 91.4575 86.4991 91.4052ZM77.8834 104.359C78.6516 103.626 79.6467 103.338 80.8688 103.495C80.0308 102.744 79.638 101.871 79.5769 100.868C79.1229 101.103 78.7476 101.348 78.3286 101.496C77.9183 101.645 77.4818 101.697 77.1938 101.767C77.4207 102.622 77.6477 103.486 77.8834 104.359ZM80.249 95.7523C80.4672 96.4594 80.7204 97.245 80.9735 98.0481C81.6806 97.5069 82.5623 97.2886 83.6185 97.3934C82.7892 96.5816 82.475 95.7087 82.4488 94.8183C81.6893 95.1413 80.9386 95.4555 80.249 95.7523ZM73.7894 85.286C73.5886 84.4916 73.3704 83.6624 73.1609 82.8418C72.4713 83.5052 71.5722 83.8282 70.6556 83.7671C70.996 84.544 71.3452 85.3209 71.6507 86.0018C72.3665 85.7661 73.1347 85.5042 73.7894 85.286ZM79.3063 85.7661C78.5119 86.124 77.7175 86.4732 77.0017 86.7961C77.2549 87.4596 77.5255 88.2015 77.7699 88.8475C78.477 88.6293 79.2364 88.4023 79.9959 88.1666C79.4459 87.4508 79.2277 86.6041 79.3063 85.7661ZM65.7672 98.3187C66.4656 98.0132 67.1814 97.7076 67.5655 97.5418C67.3298 96.8522 67.0941 96.1451 66.8759 95.4992C66.4045 95.6126 65.6538 95.7959 64.8943 95.9793C65.4443 96.6165 65.7847 97.437 65.7672 98.3187ZM71.3278 99.0869C71.5198 99.7765 71.7206 100.501 71.8951 101.112C72.576 100.85 73.318 100.562 73.9989 100.3C73.7545 99.7241 73.4839 99.0694 73.2395 98.4758C72.5935 98.6766 71.9301 98.8861 71.3278 99.0869ZM70.1057 89.3014C69.3899 89.5109 68.6479 89.7291 67.9757 89.9299C68.2376 90.506 68.5431 91.1869 68.709 91.5623C69.3375 91.3964 70.0096 91.2306 70.6382 91.0647C70.4723 90.5235 70.2803 89.8863 70.1057 89.3014ZM76.574 94.1985C76.3645 93.5962 76.1376 92.9415 75.9281 92.3305C75.5963 92.4614 74.9853 92.7058 74.5925 92.8629C74.7933 93.4565 74.994 94.0588 75.1861 94.6262C75.64 94.4866 76.2598 94.2945 76.574 94.1985Z" fill="#FF94FF"/>
<path opacity="0.45" d="M75.134 71.6335C76.6878 72.4453 77.325 74.3658 76.5394 75.8759C75.7363 77.4297 73.8159 78.0757 72.297 77.2988C70.7257 76.4957 70.0798 74.5403 70.8828 73.0127C71.7034 71.4677 73.6064 70.8479 75.134 71.6335Z" fill="#FF94FF"/>
<path opacity="0.45" d="M95.9357 88.9435C97.4982 89.6942 98.1355 91.5361 97.3848 93.0986C96.6253 94.6786 94.7747 95.3159 93.186 94.539C91.6322 93.7795 91.0124 91.9377 91.7719 90.3664C92.5226 88.8213 94.3645 88.1928 95.9357 88.9435Z" fill="#FF94FF"/>
<path opacity="0.45" d="M90.1654 85.7748C88.6116 85.0154 87.9744 83.1823 88.7251 81.611C89.4845 80.031 91.3439 79.4025 92.9238 80.1794C94.4689 80.9388 95.0887 82.7894 94.3293 84.352C93.5785 85.9058 91.7367 86.5343 90.1654 85.7748Z" fill="#FF94FF"/>
<path opacity="0.45" d="M65.3919 114.267C64.65 115.838 62.8168 116.502 61.2543 115.76C59.683 115.018 59.0196 113.185 59.7616 111.622C60.5036 110.051 62.3367 109.387 63.8992 110.129C65.4618 110.863 66.1252 112.696 65.3919 114.267Z" fill="#FF94FF"/>
<path opacity="0.45" d="M54.9258 98.5107C56.4796 99.2614 57.1168 101.103 56.3661 102.675C55.6154 104.228 53.7736 104.866 52.2023 104.115C50.6485 103.364 50.0113 101.522 50.762 99.951C51.5127 98.3885 53.3633 97.7513 54.9258 98.5107Z" fill="#FF94FF"/>
<path opacity="0.45" d="M71.3629 117.104C70.6297 118.666 68.7703 119.33 67.2165 118.588C65.6802 117.855 65.0168 116.013 65.7413 114.476C66.4746 112.914 68.3339 112.251 69.8877 112.992C71.424 113.726 72.0787 115.568 71.3629 117.104Z" fill="#FF94FF"/>
<path opacity="0.45" d="M54.6029 83.8195C56.1218 84.5615 56.7678 86.4208 56.0345 87.9484C55.2925 89.4935 53.3983 90.1394 51.862 89.3713C50.3431 88.6206 49.7146 86.7525 50.4653 85.2249C51.216 83.706 53.0753 83.0688 54.6029 83.8195Z" fill="#FF94FF"/>
<path opacity="0.45" d="M58.8715 81.9689C58.1296 83.4878 56.244 84.1425 54.7426 83.3917C53.2237 82.641 52.5865 80.7555 53.3372 79.2541C54.0879 77.7527 55.9298 77.1154 57.4399 77.84C58.9501 78.5732 59.6048 80.4587 58.8715 81.9689Z" fill="#FF94FF"/>
<path opacity="0.45" d="M59.4735 111.439C58.7664 112.949 56.9246 113.621 55.397 112.923C53.8694 112.224 53.1885 110.321 53.9217 108.802C54.6463 107.292 56.4968 106.638 58.0157 107.353C59.5172 108.078 60.1806 109.92 59.4735 111.439Z" fill="#FF94FF"/>
<path opacity="0.45" d="M84.6486 112.739C86.1587 113.534 86.7611 115.384 85.9929 116.86C85.1985 118.37 83.3479 118.972 81.8727 118.204C80.3625 117.409 79.7602 115.559 80.5284 114.084C81.314 112.574 83.1733 111.971 84.6486 112.739Z" fill="#FF94FF"/>
<path opacity="0.45" d="M49.0161 95.2897C47.4972 94.5128 46.9036 92.6796 47.6805 91.1869C48.4662 89.6768 50.2993 89.0832 51.792 89.8688C53.2847 90.6544 53.8696 92.4527 53.1188 93.9366C52.3507 95.4555 50.5175 96.0578 49.0161 95.2897Z" fill="#FF94FF"/>
<path opacity="0.45" d="M66.4133 74.3657C64.8857 73.6325 64.2484 71.8081 64.9817 70.2892C65.7237 68.7616 67.5481 68.1331 69.0582 68.8751C70.5597 69.6171 71.1882 71.3978 70.4724 72.9167C69.7566 74.4443 67.9409 75.0903 66.4133 74.3657Z" fill="#FF94FF"/>
<path opacity="0.45" d="M77.2552 119.95C76.5307 121.469 74.7587 122.097 73.231 121.381C71.686 120.648 71.0575 118.859 71.8082 117.322C72.5414 115.812 74.3222 115.192 75.8411 115.926C77.36 116.65 77.9797 118.422 77.2552 119.95Z" fill="#FF94FF"/>
<path opacity="0.45" d="M85.155 72.5937C84.4305 74.1126 82.6585 74.7411 81.1396 74.0165C79.6207 73.292 78.9922 71.52 79.7167 70.0011C80.4413 68.4822 82.2133 67.8537 83.7322 68.5782C85.2511 69.294 85.8795 71.0661 85.155 72.5937Z" fill="#FF94FF"/>
<path opacity="0.45" d="M87.1277 76.8623C85.6088 76.1378 84.9803 74.357 85.7049 72.8469C86.4294 71.328 88.2101 70.7082 89.729 71.4415C91.2217 72.1573 91.8502 73.9293 91.1432 75.422C90.4186 76.9409 88.6379 77.5868 87.1277 76.8623Z" fill="#FF94FF"/>
<path opacity="0.45" d="M57.5793 77.4472C56.0691 76.7226 55.4581 74.9332 56.2001 73.4143C56.9333 71.9129 58.7228 71.3105 60.2417 72.0525C61.7257 72.777 62.328 74.5578 61.6122 76.0505C60.8877 77.5607 59.0982 78.1804 57.5793 77.4472Z" fill="#FF94FF"/>
<path opacity="0.45" d="M93.5698 109.169C92.0597 108.445 91.4486 106.655 92.1906 105.136C92.9239 103.635 94.7134 103.032 96.2322 103.774C97.7162 104.499 98.3185 106.28 97.6027 107.772C96.8782 109.283 95.0887 109.902 93.5698 109.169Z" fill="#FF94FF"/>
<path opacity="0.45" d="M100.143 87.0493C99.4271 88.5681 97.6376 89.2054 96.1275 88.4809C94.6348 87.7651 93.9976 85.993 94.7046 84.5003C95.4204 82.9815 97.2099 82.3442 98.7201 83.0687C100.204 83.7845 100.841 85.5566 100.143 87.0493Z" fill="#FF94FF"/>
<path opacity="0.45" d="M99.0517 97.7862C100.553 98.5107 101.173 100.309 100.431 101.819C99.7064 103.294 97.9257 103.905 96.433 103.19C94.9315 102.465 94.3118 100.667 95.0537 99.1567C95.7695 97.6727 97.559 97.0617 99.0517 97.7862Z" fill="#FF94FF"/>
<path opacity="0.45" d="M75.2649 71.1796C73.7896 70.4725 73.1524 68.6568 73.8682 67.1816C74.584 65.7064 76.4084 65.0779 77.8662 65.8024C79.3152 66.5182 79.9437 68.2989 79.2541 69.7654C78.5558 71.2407 76.7401 71.8866 75.2649 71.1796Z" fill="#FF94FF"/>
<path opacity="0.45" d="M94.7309 113.726C94.0238 115.201 92.2082 115.838 90.7417 115.122C89.2664 114.407 88.6379 112.582 89.3625 111.124C90.0782 109.675 91.859 109.047 93.3255 109.736C94.792 110.435 95.438 112.25 94.7309 113.726Z" fill="#FF94FF"/>
<path opacity="0.45" d="M53.3893 108.584C52.6735 110.06 50.8404 110.679 49.3913 109.955C47.9423 109.222 47.3313 107.432 48.0383 105.992C48.7541 104.516 50.5872 103.897 52.0363 104.621C53.4853 105.346 54.0964 107.135 53.3893 108.584Z" fill="#FF94FF"/>
<path opacity="0.45" d="M50.2729 99.7241C49.5833 101.191 47.7938 101.828 46.3273 101.138C44.8608 100.449 44.2235 98.6591 44.9131 97.1926C45.6027 95.7261 47.3922 95.0889 48.8587 95.7785C50.3165 96.4681 50.9625 98.2576 50.2729 99.7241Z" fill="#FF94FF"/>
<path opacity="0.45" d="M97.0529 78.2677C96.3458 79.743 94.5738 80.3627 93.1073 79.6469C91.6321 78.9311 91.021 77.1504 91.7456 75.6926C92.4613 74.2436 94.1985 73.6325 95.6562 74.3221C97.1227 75.0205 97.7512 76.8012 97.0529 78.2677Z" fill="#FF94FF"/>
<path opacity="0.45" d="M103.198 95.8658C102.491 97.3498 100.736 97.9608 99.2612 97.2363C97.8035 96.5205 97.2011 94.8008 97.8995 93.3343C98.6066 91.8503 100.361 91.2393 101.836 91.9638C103.294 92.6796 103.896 94.3993 103.198 95.8658Z" fill="#FF94FF"/>
<path opacity="0.45" d="M62.3891 120.081C61.6908 121.547 59.9711 122.149 58.5046 121.442C57.0468 120.735 56.4533 119.016 57.1603 117.549C57.8587 116.109 59.5696 115.515 61.0186 116.205C62.4764 116.894 63.0875 118.614 62.3891 120.081Z" fill="#FF94FF"/>
<path opacity="0.45" d="M83.0338 122.691C82.3355 124.157 80.6158 124.768 79.1493 124.07C77.6828 123.372 77.0805 121.652 77.7875 120.185C78.4859 118.745 80.1881 118.143 81.6371 118.824C83.1124 119.513 83.7321 121.224 83.0338 122.691Z" fill="#FF94FF"/>
<path opacity="0.45" d="M68.3602 122.918C67.6619 124.384 65.9335 124.986 64.4757 124.279C63.0441 123.59 62.4331 121.87 63.1227 120.43C63.821 118.963 65.5494 118.361 67.0072 119.068C68.4475 119.758 69.0498 121.477 68.3602 122.918Z" fill="#FF94FF"/>
<path opacity="0.45" d="M59.1419 67.5133C59.8315 66.0817 61.5599 65.4707 62.9915 66.1516C64.4492 66.8412 65.0603 68.5958 64.3445 70.0448C63.6461 71.4677 61.9178 72.07 60.4774 71.3716C59.0546 70.6733 58.4523 68.9449 59.1419 67.5133Z" fill="#FF94FF"/>
<path opacity="0.45" d="M46.1266 86.4033C44.6863 85.7225 44.0665 83.9766 44.7474 82.545C45.4283 81.1134 47.1829 80.4937 48.6145 81.1833C50.0286 81.8642 50.6396 83.5838 49.9762 85.0067C49.3041 86.4557 47.567 87.0842 46.1266 86.4033Z" fill="#FF94FF"/>
<path opacity="0.45" d="M90.471 115.707C91.9113 116.388 92.5311 118.134 91.8414 119.566C91.1518 120.997 89.406 121.608 87.9744 120.919C86.5603 120.238 85.9492 118.509 86.6214 117.095C87.2935 115.655 89.0306 115.026 90.471 115.707Z" fill="#FF94FF"/>
<path opacity="0.45" d="M69.3026 68.2291C67.8797 67.5221 67.2861 65.75 68.0019 64.3446C68.709 62.948 70.4548 62.3631 71.8515 63.0527C73.2744 63.7598 73.8679 65.5318 73.1521 66.9372C72.4364 68.3339 70.6992 68.9187 69.3026 68.2291Z" fill="#FF94FF"/>
<path opacity="0.45" d="M51.4776 75.23C52.9005 75.9283 53.4941 77.7003 52.787 79.1145C52.08 80.5111 50.3428 81.096 48.9374 80.4064C47.5146 79.708 46.921 77.936 47.6281 76.5219C48.3439 75.1252 50.081 74.5403 51.4776 75.23Z" fill="#FF94FF"/>
<path opacity="0.45" d="M52.6648 118.632C51.2332 117.968 50.5959 116.205 51.2768 114.782C51.949 113.368 53.6773 112.748 55.1002 113.403C56.5318 114.066 57.169 115.829 56.4882 117.252C55.816 118.666 54.0876 119.286 52.6648 118.632Z" fill="#FF94FF"/>
<path opacity="0.45" d="M43.2898 92.3479C41.8669 91.6758 41.2559 89.9561 41.9367 88.542C42.6176 87.1191 44.3373 86.5168 45.7514 87.2064C47.1481 87.8873 47.7504 89.5633 47.087 90.9774C46.4323 92.4003 44.7126 93.0201 43.2898 92.3479Z" fill="#FF94FF"/>
<path opacity="0.45" d="M102.823 81.0349C102.133 82.449 100.466 83.0338 99.0518 82.353C97.6202 81.6634 97.0266 79.9612 97.7424 78.5383C98.4408 77.1329 100.117 76.5655 101.522 77.2551C102.928 77.9534 103.504 79.6207 102.823 81.0349Z" fill="#FF94FF"/>
<path opacity="0.45" d="M105.957 89.8339C105.285 91.2567 103.626 91.8591 102.194 91.1956C100.754 90.5235 100.152 88.83 100.841 87.3984C101.522 85.9843 103.19 85.3995 104.612 86.0716C106.035 86.7525 106.629 88.411 105.957 89.8339Z" fill="#FF94FF"/>
<path opacity="0.45" d="M47.2878 105.634C46.6156 107.065 44.9658 107.659 43.5342 106.987C42.1026 106.315 41.5091 104.665 42.1812 103.233C42.8534 101.802 44.5119 101.208 45.9348 101.88C47.3664 102.552 47.9599 104.211 47.2878 105.634Z" fill="#FF94FF"/>
<path opacity="0.45" d="M74.2869 125.72C73.6235 127.143 71.965 127.754 70.5334 127.09C69.0843 126.427 68.482 124.733 69.1629 123.293C69.8438 121.879 71.5023 121.285 72.9252 121.957C74.348 122.638 74.9504 124.297 74.2869 125.72Z" fill="#FF94FF"/>
<path opacity="0.45" d="M51.7834 74.4531C50.378 73.7722 49.8106 72.0962 50.5177 70.682C51.1985 69.3028 52.8571 68.7442 54.2538 69.425C55.6592 70.1059 56.2266 71.7819 55.5195 73.1961C54.8386 74.5753 53.1801 75.1339 51.7834 74.4531Z" fill="#FF94FF"/>
<path opacity="0.45" d="M84.0202 67.9323C82.6061 67.2515 82.0387 65.5842 82.737 64.1613C83.4179 62.7734 85.0677 62.2147 86.4731 62.8869C87.8873 63.5677 88.4547 65.235 87.7563 66.6579C87.0754 68.0458 85.4169 68.6132 84.0202 67.9323Z" fill="#FF94FF"/>
<path opacity="0.45" d="M99.6281 111.823C98.2401 111.151 97.6727 109.483 98.3449 108.087C99.0257 106.681 100.702 106.114 102.116 106.812C103.495 107.493 104.045 109.16 103.364 110.557C102.692 111.936 101.025 112.504 99.6281 111.823Z" fill="#FF94FF"/>
<path opacity="0.45" d="M90.0174 70.7867C88.6207 70.1233 88.0271 68.4648 88.6818 67.0681C89.354 65.6452 91.0212 65.0604 92.4354 65.7413C93.8233 66.4134 94.3995 68.072 93.736 69.4686C93.0726 70.8653 91.4141 71.4502 90.0174 70.7867Z" fill="#FF94FF"/>
<path opacity="0.45" d="M102.526 105.861C101.138 105.206 100.536 103.53 101.191 102.142C101.845 100.754 103.521 100.152 104.909 100.806C106.297 101.461 106.9 103.137 106.245 104.525C105.581 105.922 103.914 106.515 102.526 105.861Z" fill="#FF94FF"/>
<path opacity="0.45" d="M50.4301 114.363C49.7667 115.751 48.0994 116.345 46.7115 115.69C45.3235 115.026 44.7299 113.359 45.3846 111.971C46.048 110.583 47.7153 109.99 49.1033 110.644C50.4912 111.308 51.0848 112.975 50.4301 114.363Z" fill="#FF94FF"/>
<path opacity="0.45" d="M44.2152 96.8347C43.5692 98.1965 41.902 98.8075 40.5315 98.1703C39.1435 97.5243 38.5412 95.8134 39.2046 94.4429C39.868 93.0812 41.5441 92.4963 42.9058 93.1423C44.2676 93.7969 44.8612 95.473 44.2152 96.8347Z" fill="#FF94FF"/>
<path opacity="0.45" d="M81.8639 63.8034C81.2179 65.1652 79.5419 65.7675 78.1715 65.1215C76.7922 64.4756 76.1812 62.7646 76.8534 61.3854C77.5168 60.0237 79.2015 59.4475 80.5545 60.1022C81.925 60.7569 82.5186 62.4329 81.8639 63.8034Z" fill="#FF94FF"/>
<path opacity="0.45" d="M100.51 116.493C99.8549 117.855 98.1702 118.44 96.8171 117.785C95.4554 117.13 94.8705 115.445 95.5252 114.092C96.1799 112.731 97.8646 112.146 99.2177 112.8C100.579 113.446 101.164 115.131 100.51 116.493Z" fill="#FF94FF"/>
<path opacity="0.45" d="M87.5555 121.8C88.9259 122.437 89.5195 124.113 88.8648 125.484C88.2101 126.846 86.5341 127.439 85.1811 126.776C83.8368 126.121 83.252 124.489 83.8805 123.127C84.5177 121.765 86.185 121.163 87.5555 121.8Z" fill="#FF94FF"/>
<path opacity="0.45" d="M95.9968 73.5976C94.635 72.9342 94.0502 71.2582 94.7136 69.9051C95.3858 68.5434 97.0705 67.9672 98.4148 68.6394C99.7591 69.3115 100.326 70.9439 99.6805 72.2969C99.0346 73.6587 97.3586 74.2523 95.9968 73.5976Z" fill="#FF94FF"/>
<path opacity="0.45" d="M63.4281 65.2699C62.0489 64.6239 61.464 62.9741 62.1274 61.6036C62.7821 60.2419 64.397 59.6745 65.7675 60.3204C67.1467 60.9664 67.7316 62.6162 67.0682 63.9867C66.4135 65.3397 64.7986 65.9071 63.4281 65.2699Z" fill="#FF94FF"/>
<path opacity="0.45" d="M105.337 99.9249C103.958 99.2614 103.39 97.6029 104.063 96.2411C104.735 94.8881 106.35 94.3294 107.711 94.9841C109.091 95.6475 109.658 97.3061 108.986 98.6678C108.305 100.021 106.69 100.58 105.337 99.9249Z" fill="#FF94FF"/>
<path opacity="0.45" d="M78.7916 124.882C80.1621 125.545 80.7121 127.151 80.0486 128.522C79.3852 129.892 77.779 130.442 76.4085 129.779C75.0381 129.115 74.4881 127.509 75.1515 126.139C75.815 124.768 77.4299 124.218 78.7916 124.882Z" fill="#FF94FF"/>
<path opacity="0.45" d="M54.6902 68.3862C53.3285 67.7315 52.7785 66.1254 53.4507 64.7549C54.1054 63.4193 55.6941 62.8694 57.0471 63.5241C58.4089 64.1788 58.9588 65.7849 58.2866 67.1554C57.632 68.4997 56.0432 69.0409 54.6902 68.3862Z" fill="#FF94FF"/>
<path opacity="0.45" d="M105.075 85.0765C103.739 84.4305 103.181 82.8244 103.827 81.4801C104.473 80.1445 106.079 79.5858 107.423 80.2318C108.759 80.8778 109.317 82.4839 108.671 83.8282C108.025 85.1551 106.419 85.7225 105.075 85.0765Z" fill="#FF94FF"/>
<path opacity="0.45" d="M59.3426 125.955C58.7054 127.3 57.0992 127.867 55.7549 127.23C54.4106 126.593 53.8432 124.986 54.4805 123.642C55.1177 122.298 56.7239 121.73 58.0682 122.368C59.4125 123.014 59.9799 124.611 59.3426 125.955Z" fill="#FF94FF"/>
<path opacity="0.45" d="M75.8061 60.9141C75.1689 62.2496 73.5452 62.8083 72.2097 62.1623C70.8828 61.5164 70.3242 59.8927 70.9789 58.5572C71.6248 57.2478 73.2223 56.6891 74.5404 57.3176C75.8672 57.9636 76.4434 59.5872 75.8061 60.9141Z" fill="#FF94FF"/>
<path opacity="0.45" d="M61.7432 130.076C60.4076 129.447 59.8315 127.823 60.46 126.488C61.0972 125.152 62.7209 124.585 64.0477 125.222C65.3571 125.859 65.9332 127.448 65.3134 128.775C64.7024 130.128 63.0875 130.713 61.7432 130.076Z" fill="#FF94FF"/>
<path opacity="0.45" d="M97.629 122.341C96.983 123.668 95.3594 124.236 94.0325 123.581C92.7057 122.935 92.1557 121.303 92.8104 119.976C93.4564 118.675 95.0626 118.117 96.372 118.745C97.6988 119.391 98.2662 121.015 97.629 122.341Z" fill="#FF94FF"/>
<path opacity="0.45" d="M48.6405 120.805C49.2952 119.504 50.9276 118.955 52.2195 119.601C53.5202 120.255 54.0701 121.888 53.4242 123.179C52.7695 124.48 51.1371 125.03 49.8452 124.384C48.5358 123.729 47.9946 122.097 48.6405 120.805Z" fill="#FF94FF"/>
<path opacity="0.45" d="M42.5302 78.5296C43.8396 79.1494 44.4157 80.773 43.7959 82.0824C43.1762 83.3918 41.5525 83.9679 40.2431 83.3481C38.9338 82.7283 38.3576 81.1047 38.9774 79.7953C39.5972 78.4859 41.2121 77.9098 42.5302 78.5296Z" fill="#FF94FF"/>
<path opacity="0.45" d="M43.08 107.903C44.3894 108.523 44.9655 110.147 44.3458 111.456C43.726 112.766 42.1024 113.342 40.793 112.722C39.4836 112.102 38.9075 110.478 39.5272 109.169C40.1383 107.86 41.7619 107.284 43.08 107.903Z" fill="#FF94FF"/>
<path opacity="0.45" d="M40.0162 99.2353C41.3255 99.8812 41.8842 101.505 41.2382 102.797C40.5836 104.106 38.9512 104.656 37.668 104.001C36.3761 103.347 35.8349 101.767 36.4546 100.475C37.0919 99.1654 38.7155 98.598 40.0162 99.2353Z" fill="#FF94FF"/>
<path opacity="0.45" d="M46.6328 76.1028C46.0131 77.4209 44.3894 77.9883 43.08 77.3598C41.7707 76.7313 41.2033 75.099 41.8405 73.7983C42.4777 72.5064 44.049 71.9477 45.3584 72.55C46.6765 73.1698 47.2613 74.7847 46.6328 76.1028Z" fill="#FF94FF"/>
<path opacity="0.45" d="M105.477 75.0641C104.848 76.3735 103.225 76.9409 101.924 76.3124C100.615 75.6751 100.056 74.0428 100.693 72.7509C101.339 71.4589 102.91 70.909 104.22 71.52C105.529 72.1311 106.105 73.7547 105.477 75.0641Z" fill="#FF94FF"/>
<path opacity="0.45" d="M111.771 92.5923C111.168 93.9017 109.597 94.4778 108.27 93.8755C106.935 93.2732 106.358 91.6583 106.987 90.3402C107.615 89.0308 109.178 88.4721 110.496 89.0919C111.805 89.703 112.382 91.2742 111.771 92.5923Z" fill="#FF94FF"/>
<path opacity="0.45" d="M39.6585 84.544C40.9766 85.1725 41.5353 86.7176 40.9068 88.0357C40.2783 89.3538 38.7332 89.9124 37.4151 89.2839C36.097 88.6554 35.5383 87.1104 36.1668 85.7923C36.7866 84.4742 38.3404 83.9242 39.6585 84.544Z" fill="#FF94FF"/>
<path opacity="0.45" d="M71.2319 131.629C70.6034 132.947 69.0496 133.497 67.7315 132.86C66.4134 132.232 65.8635 130.678 66.5007 129.36C67.1292 128.042 68.683 127.492 70.0011 128.129C71.3192 128.766 71.8692 130.311 71.2319 131.629Z" fill="#FF94FF"/>
<path opacity="0.45" d="M84.6748 127.841C85.9755 128.452 86.5254 129.997 85.9144 131.298C85.2946 132.598 83.7495 133.14 82.4576 132.52C81.1831 131.909 80.6332 130.381 81.2355 129.098C81.8378 127.789 83.3829 127.23 84.6748 127.841Z" fill="#FF94FF"/>
<path opacity="0.45" d="M45.926 71.4153C44.6253 70.7955 44.0929 69.2504 44.7126 67.9498C45.3411 66.6578 46.8862 66.1254 48.1781 66.7539C49.4439 67.3736 49.9851 68.9013 49.374 70.1844C48.763 71.4938 47.2179 72.035 45.926 71.4153Z" fill="#FF94FF"/>
<path opacity="0.45" d="M46.1528 116.807C47.4447 117.418 47.9946 118.981 47.3749 120.264C46.7638 121.53 45.2188 122.08 43.953 121.477C42.6611 120.866 42.1112 119.304 42.7309 118.021C43.342 116.755 44.887 116.205 46.1528 116.807Z" fill="#FF94FF"/>
<path opacity="0.45" d="M90.4276 60.5387C89.8166 61.8306 88.2541 62.3805 86.9621 61.752C85.6964 61.141 85.1552 59.5959 85.7575 58.3215C86.3685 57.0295 87.9311 56.4796 89.223 57.1081C90.4887 57.7279 91.0299 59.273 90.4276 60.5387Z" fill="#FF94FF"/>
<path opacity="0.45" d="M92.9503 64.6152C91.6672 63.9955 91.1259 62.4242 91.7544 61.141C92.3742 59.884 93.9193 59.3515 95.1937 59.9626C96.4769 60.5823 97.0182 62.1536 96.3897 63.4368C95.7612 64.6938 94.2161 65.2263 92.9503 64.6152Z" fill="#FF94FF"/>
<path opacity="0.45" d="M93.4564 124.821C94.7221 125.414 95.2808 126.959 94.696 128.234C94.1024 129.517 92.5224 130.084 91.2392 129.465C89.9822 128.853 89.4322 127.3 90.0345 126.034C90.6369 124.777 92.1907 124.227 93.4564 124.821Z" fill="#FF94FF"/>
<path opacity="0.45" d="M59.8053 57.6493C61.071 58.2342 61.6384 59.7793 61.0623 61.0625C60.4774 62.3544 58.8887 62.9218 57.6142 62.3107C56.3485 61.7084 55.7985 60.1546 56.3921 58.8889C56.9857 57.6144 58.5308 57.0557 59.8053 57.6493Z" fill="#FF94FF"/>
<path opacity="0.45" d="M105.599 114.424C104.342 113.796 103.818 112.233 104.438 110.985C105.067 109.71 106.664 109.178 107.921 109.833C109.169 110.478 109.684 112.041 109.047 113.289C108.41 114.529 106.847 115.053 105.599 114.424Z" fill="#FF94FF"/>
<path opacity="0.45" d="M69.7132 58.0247C69.1022 59.2817 67.5396 59.8316 66.2826 59.2206C65.0256 58.6095 64.4757 57.047 65.0867 55.79C65.6978 54.533 67.2603 53.983 68.5173 54.5941C69.7831 55.2051 70.3243 56.7677 69.7132 58.0247Z" fill="#FF94FF"/>
<path opacity="0.45" d="M38.0434 93.9017C37.4498 95.1587 35.8873 95.7174 34.6215 95.1151C33.3645 94.5215 32.8059 92.9589 33.4082 91.6932C34.0018 90.4362 35.5643 89.8775 36.83 90.4798C38.087 91.0822 38.6457 92.6447 38.0434 93.9017Z" fill="#FF94FF"/>
<path opacity="0.45" d="M111.91 107.257C111.299 108.514 109.736 109.064 108.488 108.453C107.231 107.842 106.681 106.28 107.292 105.031C107.903 103.774 109.466 103.224 110.714 103.836C111.971 104.438 112.521 106 111.91 107.257Z" fill="#FF94FF"/>
<path opacity="0.45" d="M83.3742 54.3584C84.6312 55.0305 85.1287 56.6105 84.4653 57.8151C83.7844 59.0547 82.2481 59.5348 81.0435 58.8976C79.7865 58.2254 79.2889 56.6454 79.9523 55.4408C80.6332 54.2012 82.1695 53.7211 83.3742 54.3584Z" fill="#FF94FF"/>
<path opacity="0.45" d="M106.201 119.164C105.616 120.421 104.115 120.98 102.84 120.395C101.557 119.81 100.998 118.265 101.61 116.99C102.212 115.733 103.722 115.201 104.979 115.795C106.236 116.388 106.786 117.898 106.201 119.164Z" fill="#FF94FF"/>
<path opacity="0.45" d="M102.282 66.2825C101.645 67.5395 100.143 68.0196 98.8774 67.3736C97.6204 66.7277 97.149 65.2263 97.8037 63.9693C98.4497 62.7384 99.9249 62.2671 101.164 62.8956C102.439 63.5241 102.928 65.0255 102.282 66.2825Z" fill="#FF94FF"/>
<path opacity="0.45" d="M73.6762 135.584C72.4017 134.981 71.878 133.489 72.489 132.214C73.1001 130.94 74.5928 130.425 75.8585 131.044C77.1068 131.656 77.6305 133.113 77.0369 134.379C76.4346 135.654 74.9507 136.186 73.6762 135.584Z" fill="#FF94FF"/>
<path opacity="0.45" d="M107.973 79.0272C106.699 78.4161 106.184 76.9409 106.804 75.6664C107.415 74.4181 108.872 73.9118 110.129 74.5054C111.404 75.1165 111.919 76.5917 111.299 77.8662C110.697 79.1232 109.23 79.6295 107.973 79.0272Z" fill="#FF94FF"/>
<path opacity="0.45" d="M114.668 101.339C114.057 102.613 112.582 103.129 111.308 102.509C110.059 101.898 109.544 100.44 110.147 99.1829C110.758 97.9084 112.233 97.3934 113.507 98.0132C114.756 98.6155 115.271 100.082 114.668 101.339Z" fill="#FF94FF"/>
<path opacity="0.45" d="M38.3142 108.567C37.7206 109.833 36.2628 110.365 35.0058 109.78C33.7226 109.178 33.1901 107.711 33.8012 106.437C34.4035 105.18 35.8613 104.665 37.1183 105.258C38.3753 105.852 38.899 107.31 38.3142 108.567Z" fill="#FF94FF"/>
<path opacity="0.45" d="M113.307 83.2521C114.564 83.8544 115.079 85.3122 114.476 86.5692C113.874 87.8437 112.39 88.3587 111.116 87.7389C109.867 87.1279 109.37 85.6614 109.972 84.4044C110.583 83.1561 112.05 82.6498 113.307 83.2521Z" fill="#FF94FF"/>
<path opacity="0.45" d="M52.1411 64.1788C51.5475 65.4271 50.0723 65.9508 48.824 65.3572C47.5758 64.7636 47.052 63.2884 47.6456 62.0401C48.2392 60.7918 49.7144 60.2681 50.9627 60.8617C52.211 61.4553 52.7347 62.9305 52.1411 64.1788Z" fill="#FF94FF"/>
<path opacity="0.45" d="M40.156 114.075C41.3694 114.66 41.8931 116.161 41.3083 117.375C40.7234 118.588 39.222 119.112 38.0086 118.527C36.7953 117.942 36.2715 116.441 36.8564 115.227C37.4412 114.005 38.9427 113.481 40.156 114.075Z" fill="#FF94FF"/>
<path opacity="0.45" d="M77.3076 51.5563C78.5209 52.1499 79.0359 53.6513 78.4511 54.8559C77.8575 56.0693 76.3561 56.5843 75.1514 55.9995C73.9381 55.4059 73.4231 53.9045 74.0079 52.6998C74.6015 51.4865 76.1029 50.9714 77.3076 51.5563Z" fill="#FF94FF"/>
<path opacity="0.45" d="M103.329 125.03C102.762 126.243 101.26 126.785 100.047 126.208C98.8337 125.641 98.2925 124.14 98.8686 122.926C99.436 121.713 100.937 121.172 102.151 121.748C103.364 122.315 103.897 123.808 103.329 125.03Z" fill="#FF94FF"/>
<path opacity="0.45" d="M56.279 131.839C55.6941 133.052 54.1752 133.576 52.9793 132.982C51.7834 132.389 51.2772 130.905 51.8533 129.718C52.4381 128.504 53.957 127.981 55.1529 128.574C56.3488 129.168 56.8551 130.643 56.279 131.839Z" fill="#FF94FF"/>
<path opacity="0.45" d="M33.9231 96.5554C35.1365 97.1315 35.6777 98.6417 35.0841 99.8463C34.4992 101.042 33.024 101.557 31.8281 100.999C30.6147 100.422 30.0735 98.9123 30.6671 97.7076C31.252 96.5117 32.7272 95.988 33.9231 96.5554Z" fill="#FF94FF"/>
<path opacity="0.45" d="M62.2495 134.676C61.6821 135.88 60.2156 136.404 59.0022 135.837C57.7801 135.269 57.2476 133.759 57.8412 132.555C58.4348 131.359 59.9013 130.844 61.0972 131.429C62.3018 132.005 62.8169 133.471 62.2495 134.676Z" fill="#FF94FF"/>
<path opacity="0.45" d="M104.883 70.1495C103.679 69.5821 103.155 68.1244 103.713 66.911C104.281 65.6889 105.782 65.1564 106.996 65.7413C108.2 66.3262 108.707 67.7927 108.13 68.9973C107.554 70.2019 106.096 70.7169 104.883 70.1495Z" fill="#FF94FF"/>
<path opacity="0.45" d="M117.453 95.3071C116.886 96.5292 115.445 97.0529 114.223 96.4681C113.001 95.892 112.486 94.4516 113.08 93.2295C113.656 92.0249 115.061 91.5186 116.275 92.0773C117.497 92.6447 118.021 94.085 117.453 95.3071Z" fill="#FF94FF"/>
<path opacity="0.45" d="M50.3517 129.019C49.7581 130.241 48.3353 130.73 47.1132 130.128C45.9173 129.534 45.4372 128.129 46.022 126.924C46.6156 125.702 48.0385 125.213 49.2606 125.816C50.4477 126.401 50.9279 127.815 50.3517 129.019Z" fill="#FF94FF"/>
<path opacity="0.45" d="M37.668 79.1843C37.0744 80.4064 35.6515 80.8952 34.4294 80.2929C33.2335 79.6993 32.7534 78.2939 33.3383 77.0893C33.9318 75.8672 35.3547 75.3784 36.5768 75.9807C37.7727 76.5743 38.2528 77.9797 37.668 79.1843Z" fill="#FF94FF"/>
<path opacity="0.45" d="M39.3791 69.9924C40.5837 70.5685 41.09 71.9652 40.5226 73.1699C39.9465 74.4007 38.5236 74.907 37.3015 74.3134C36.0969 73.7285 35.608 72.3318 36.1929 71.1185C36.769 69.9226 38.1657 69.425 39.3791 69.9924Z" fill="#FF94FF"/>
<path opacity="0.45" d="M91.7106 134.065C91.1345 135.269 89.7291 135.767 88.5245 135.2C87.2937 134.615 86.8048 133.201 87.3984 131.979C87.9833 130.783 89.3887 130.303 90.5933 130.879C91.7979 131.455 92.2955 132.86 91.7106 134.065Z" fill="#FF94FF"/>
<path opacity="0.45" d="M81.7679 134.012C82.9638 134.589 83.4526 136.011 82.8678 137.216C82.2829 138.412 80.86 138.892 79.6554 138.298C78.4857 137.722 78.0056 136.317 78.573 135.13C79.1491 133.916 80.5633 133.428 81.7679 134.012Z" fill="#FF94FF"/>
<path opacity="0.45" d="M60.4863 56.2526C59.2817 55.6765 58.7929 54.2624 59.3777 53.0577C59.9538 51.8618 61.3767 51.373 62.5813 51.9666C63.7598 52.5427 64.2399 53.9481 63.6812 55.1266C63.1051 56.3312 61.691 56.8288 60.4863 56.2526Z" fill="#FF94FF"/>
<path opacity="0.45" d="M64.9993 138.63C63.7946 138.063 63.2971 136.631 63.8732 135.435C64.4406 134.257 65.846 133.759 67.0332 134.318C68.2378 134.885 68.7354 136.317 68.1592 137.513C67.5918 138.691 66.1864 139.189 64.9993 138.63Z" fill="#FF94FF"/>
<path opacity="0.45" d="M33.6874 81.9689C34.8833 82.545 35.3722 83.9766 34.7786 85.1725C34.2024 86.3422 32.7883 86.8223 31.6099 86.2549C30.414 85.6788 29.9251 84.2472 30.5187 83.0513C31.0948 81.8816 32.509 81.4015 33.6874 81.9689Z" fill="#FF94FF"/>
<path opacity="0.45" d="M53.7475 54.9782C54.9259 55.5281 55.4409 56.951 54.8997 58.1207C54.3498 59.3166 52.9007 59.8403 51.7135 59.2642C50.5438 58.7055 50.0375 57.2827 50.5962 56.1042C51.1549 54.9433 52.569 54.4282 53.7475 54.9782Z" fill="#FF94FF"/>
<path opacity="0.45" d="M69.2592 53.0665C68.0895 52.5253 67.5745 51.0762 68.1331 49.9152C68.6831 48.7717 70.0972 48.2654 71.2582 48.7979C72.4279 49.3391 72.9429 50.7881 72.3843 51.9491C71.8256 53.0927 70.4115 53.5989 69.2592 53.0665Z" fill="#FF94FF"/>
<path opacity="0.45" d="M43.246 67.3562C42.6349 68.5084 41.1597 68.9711 40.0511 68.3513C38.9163 67.7228 38.4711 66.3 39.0647 65.1913C39.6757 64.0391 41.151 63.5764 42.2596 64.1962C43.3944 64.8247 43.8396 66.2476 43.246 67.3562Z" fill="#FF94FF"/>
<path opacity="0.45" d="M117.165 80.6159C116.624 81.7856 115.166 82.3006 114.005 81.7419C112.862 81.192 112.355 79.7779 112.897 78.6169C113.438 77.4472 114.896 76.9322 116.057 77.4908C117.2 78.0495 117.698 79.4636 117.165 80.6159Z" fill="#FF94FF"/>
<path opacity="0.45" d="M100.379 130.948C99.8375 132.118 98.3885 132.633 97.2275 132.075C96.084 131.525 95.5777 130.11 96.1102 128.958C96.6514 127.789 98.1004 127.273 99.2614 127.832C100.405 128.382 100.911 129.796 100.379 130.948Z" fill="#FF94FF"/>
<path opacity="0.45" d="M44.3374 126.121C43.7875 127.291 42.3384 127.797 41.1774 127.239C40.0339 126.68 39.5363 125.266 40.0775 124.114C40.6275 122.944 42.0765 122.437 43.2375 122.996C44.381 123.555 44.8786 124.969 44.3374 126.121Z" fill="#FF94FF"/>
<path opacity="0.45" d="M95.8655 58.3738C94.7133 57.7802 94.2594 56.3836 94.8617 55.2401C95.464 54.0878 96.8607 53.6513 98.0042 54.2536C99.1303 54.8472 99.5755 56.2177 98.9993 57.3525C98.4057 58.5048 97.0091 58.9674 95.8655 58.3738Z" fill="#FF94FF"/>
<path opacity="0.45" d="M93.0376 54.4631C92.4789 55.6329 91.091 56.113 89.93 55.5456C88.769 54.9782 88.2889 53.5902 88.865 52.4292C89.4324 51.2857 90.7854 50.8143 91.9377 51.3556C93.0987 51.9142 93.5962 53.2934 93.0376 54.4631Z" fill="#FF94FF"/>
<path opacity="0.45" d="M35.2851 114.459C34.7351 115.637 33.3734 116.126 32.1949 115.559C31.0427 115.009 30.5626 113.665 31.1038 112.504C31.6537 111.325 33.0155 110.836 34.1939 111.404C35.3462 111.962 35.8263 113.307 35.2851 114.459Z" fill="#FF94FF"/>
<path opacity="0.45" d="M114.799 115.978C114.232 117.148 112.862 117.61 111.701 117.034C110.557 116.467 110.094 115.122 110.653 113.961C111.22 112.792 112.591 112.329 113.752 112.905C114.895 113.473 115.358 114.826 114.799 115.978Z" fill="#FF94FF"/>
<path opacity="0.45" d="M31.9157 91.0036C31.3483 92.1733 29.9778 92.636 28.8168 92.0599C27.6733 91.4925 27.2107 90.1482 27.7781 88.9872C28.3455 87.8175 29.7159 87.3548 30.8769 87.9309C32.0205 88.4983 32.4744 89.8514 31.9157 91.0036Z" fill="#FF94FF"/>
<path opacity="0.45" d="M113.996 71.7644C113.446 72.9429 112.085 73.4317 110.915 72.873C109.763 72.3231 109.274 70.9788 109.815 69.8265C110.365 68.6481 111.727 68.1593 112.896 68.7179C114.049 69.2679 114.538 70.6034 113.996 71.7644Z" fill="#FF94FF"/>
<path opacity="0.45" d="M120.168 89.3101C119.609 90.4624 118.265 90.9251 117.104 90.3664C115.952 89.8077 115.489 88.4634 116.048 87.3024C116.606 86.1502 117.951 85.6875 119.112 86.2462C120.264 86.8049 120.727 88.1492 120.168 89.3101Z" fill="#FF94FF"/>
<path opacity="0.45" d="M31.06 102.587C32.221 103.137 32.7011 104.482 32.1424 105.642C31.5925 106.803 30.2482 107.284 29.0872 106.725C27.9262 106.175 27.4461 104.831 28.0048 103.67C28.5547 102.517 29.899 102.037 31.06 102.587Z" fill="#FF94FF"/>
<path opacity="0.45" d="M116.589 106.934C117.741 107.493 118.195 108.846 117.628 110.007C117.069 111.159 115.716 111.613 114.555 111.046C113.403 110.487 112.949 109.134 113.516 107.973C114.084 106.83 115.437 106.367 116.589 106.934Z" fill="#FF94FF"/>
<path opacity="0.45" d="M72.9078 137.225C74.0601 137.783 74.5227 139.136 73.9553 140.289C73.3966 141.441 72.0436 141.904 70.8914 141.336C69.7391 140.778 69.2765 139.425 69.8439 138.272C70.4025 137.12 71.7468 136.657 72.9078 137.225Z" fill="#FF94FF"/>
<path opacity="0.45" d="M87.1103 51.6611C86.5516 52.8046 85.1986 53.2673 84.0463 52.6999C82.9028 52.1412 82.4489 50.7794 83.025 49.6272C83.5837 48.5099 84.9193 48.0559 86.0628 48.5971C87.2063 49.1558 87.669 50.5001 87.1103 51.6611Z" fill="#FF94FF"/>
<path opacity="0.45" d="M104.953 60.1284C104.412 61.2807 103.041 61.7608 101.898 61.2021C100.772 60.6609 100.3 59.3079 100.833 58.1818C101.374 57.0295 102.744 56.5494 103.888 57.1081C105.014 57.6581 105.485 59.0024 104.953 60.1284Z" fill="#FF94FF"/>
<path opacity="0.45" d="M108.872 122.987C107.737 122.437 107.266 121.058 107.833 119.923C108.383 118.806 109.745 118.352 110.871 118.902C112.006 119.452 112.477 120.831 111.91 121.966C111.36 123.083 109.998 123.537 108.872 122.987Z" fill="#FF94FF"/>
<path opacity="0.45" d="M120.412 104.106C119.862 105.215 118.474 105.686 117.375 105.136C116.266 104.578 115.803 103.19 116.362 102.09C116.921 100.999 118.274 100.545 119.365 101.068C120.482 101.61 120.954 102.998 120.412 104.106Z" fill="#FF94FF"/>
<path opacity="0.45" d="M46.0569 61.2545C45.5419 62.3718 44.1627 62.8694 43.0366 62.3456C41.9193 61.8219 41.4305 60.4339 41.9629 59.3253C42.4867 58.2254 43.831 57.7453 44.9483 58.2429C46.0744 58.7579 46.5807 60.1284 46.0569 61.2545Z" fill="#FF94FF"/>
<path opacity="0.45" d="M37.2405 120.281C38.3403 120.858 38.7768 122.211 38.2181 123.284C37.642 124.384 36.289 124.821 35.2153 124.262C34.1154 123.686 33.6789 122.333 34.2376 121.259C34.8137 120.159 36.1668 119.723 37.2405 120.281Z" fill="#FF94FF"/>
<path opacity="0.45" d="M105.11 125.842C105.651 124.742 106.952 124.314 108.061 124.864C109.16 125.405 109.588 126.706 109.038 127.815C108.497 128.915 107.196 129.342 106.088 128.792C104.988 128.242 104.56 126.95 105.11 125.842Z" fill="#FF94FF"/>
<path opacity="0.45" d="M26.0582 97.9782C24.9496 97.4545 24.4782 96.18 24.9845 95.0627C25.4995 93.9279 26.8089 93.4478 27.935 93.9803C29.061 94.5127 29.5324 95.8221 28.9825 96.9482C28.45 98.0393 27.1668 98.4933 26.0582 97.9782Z" fill="#FF94FF"/>
<path opacity="0.45" d="M85.74 140.996C84.6139 140.455 84.1687 139.136 84.7187 138.019C85.2686 136.919 86.5606 136.483 87.6604 137.015C88.7865 137.556 89.2317 138.875 88.6818 139.992C88.1405 141.092 86.8486 141.528 85.74 140.996Z" fill="#FF94FF"/>
<path opacity="0.45" d="M81.0785 48.7542C80.5373 49.8803 79.2192 50.3342 78.1019 49.7843C77.002 49.2431 76.5568 47.9512 77.0893 46.8426C77.6305 45.7165 78.9486 45.2626 80.0659 45.8125C81.1571 46.3624 81.611 47.6544 81.0785 48.7542Z" fill="#FF94FF"/>
<path opacity="0.45" d="M66.3436 49.0598C65.8198 50.1684 64.5279 50.6223 63.4193 50.0898C62.3107 49.5574 61.8655 48.2742 62.4067 47.1656C62.9305 46.0831 64.2049 45.6292 65.2961 46.1442C66.4134 46.668 66.8761 47.9512 66.3436 49.0598Z" fill="#FF94FF"/>
<path opacity="0.45" d="M57.5185 52.1935C56.986 53.3022 55.7028 53.7561 54.5942 53.2149C53.4944 52.6824 53.0492 51.3905 53.5904 50.2819C54.1141 49.1994 55.3886 48.7542 56.4797 49.2693C57.5883 49.793 58.051 51.0849 57.5185 52.1935Z" fill="#FF94FF"/>
<path opacity="0.45" d="M53.2323 137.591C52.7085 138.691 51.4079 139.154 50.308 138.621C49.2343 138.098 48.7804 136.815 49.2954 135.732C49.8192 134.632 51.1198 134.17 52.2197 134.702C53.2847 135.226 53.7386 136.509 53.2323 137.591Z" fill="#FF94FF"/>
<path opacity="0.45" d="M59.2032 140.446C58.6794 141.546 57.3788 141.991 56.2789 141.458C55.2052 140.935 54.76 139.651 55.275 138.569C55.7988 137.469 57.0994 137.015 58.1993 137.556C59.273 138.08 59.7182 139.372 59.2032 140.446Z" fill="#FF94FF"/>
<path opacity="0.45" d="M107.842 63.943C106.734 63.4193 106.271 62.1274 106.803 61.0188C107.336 59.9102 108.619 59.465 109.728 59.9974C110.81 60.5212 111.264 61.7957 110.749 62.8868C110.234 64.0042 108.951 64.4668 107.842 63.943Z" fill="#FF94FF"/>
<path opacity="0.45" d="M97.4107 136.771C96.887 137.879 95.6038 138.342 94.4951 137.81C93.3865 137.277 92.9326 135.994 93.4738 134.885C93.9976 133.803 95.272 133.349 96.3545 133.855C97.4718 134.379 97.9345 135.662 97.4107 136.771Z" fill="#FF94FF"/>
<path opacity="0.45" d="M123.188 98.0655C122.673 99.148 121.373 99.6106 120.299 99.0956C119.216 98.5806 118.754 97.2799 119.269 96.2062C119.784 95.1238 121.084 94.6699 122.158 95.1762C123.241 95.6825 123.703 96.9831 123.188 98.0655Z" fill="#FF94FF"/>
<path opacity="0.45" d="M79.8304 143.082C79.3154 144.156 78.006 144.61 76.9323 144.086C75.8586 143.571 75.4047 142.262 75.9284 141.188C76.4434 140.114 77.7528 139.66 78.8265 140.184C79.9002 140.699 80.3541 142 79.8304 143.082Z" fill="#FF94FF"/>
<path opacity="0.45" d="M47.3313 134.772C46.8337 135.846 45.5156 136.317 44.4419 135.811C43.3769 135.304 42.9056 133.986 43.4206 132.921C43.9269 131.874 45.2188 131.411 46.275 131.9C47.3575 132.38 47.8376 133.698 47.3313 134.772Z" fill="#FF94FF"/>
<path opacity="0.45" d="M45.9259 56.2614C44.8784 55.7551 44.4158 54.4544 44.9133 53.3982C45.4196 52.3332 46.7639 51.8618 47.8114 52.3943C48.8589 52.9181 49.2954 54.2275 48.7891 55.2662C48.2741 56.3137 46.9647 56.7677 45.9259 56.2614Z" fill="#FF94FF"/>
<path opacity="0.45" d="M116.912 75.5616C115.873 75.0292 115.428 73.7198 115.951 72.681C116.484 71.616 117.837 71.1709 118.867 71.7208C119.906 72.2707 120.334 73.5888 119.801 74.6102C119.251 75.6577 117.942 76.0941 116.912 75.5616Z" fill="#FF94FF"/>
<path opacity="0.45" d="M119.993 84.352C118.946 83.8457 118.483 82.5538 118.99 81.5062C119.496 80.4587 120.788 79.9961 121.835 80.5024C122.883 81.0087 123.345 82.3006 122.839 83.3481C122.333 84.3956 121.041 84.8583 119.993 84.352Z" fill="#FF94FF"/>
<path opacity="0.45" d="M31.4443 76.2251C30.9293 77.2726 29.6286 77.7178 28.5899 77.2115C27.5423 76.6965 27.0972 75.3958 27.6034 74.357C28.1185 73.3095 29.4191 72.8643 30.4579 73.3706C31.5054 73.8857 31.9593 75.1776 31.4443 76.2251Z" fill="#FF94FF"/>
<path opacity="0.45" d="M31.4878 71.2232C30.4141 70.7256 29.9602 69.4599 30.4752 68.3949C30.9815 67.3474 32.2123 66.9022 33.2686 67.3911C34.3422 67.8886 34.7962 69.1544 34.2811 70.2193C33.7748 71.2756 32.544 71.7208 31.4878 71.2232Z" fill="#FF94FF"/>
<path opacity="0.45" d="M62.2933 144.261C61.2283 143.746 60.7918 142.471 61.3243 141.415C61.8481 140.376 63.0876 139.948 64.1351 140.455C65.2001 140.97 65.6366 142.244 65.1041 143.3C64.5803 144.348 63.3408 144.767 62.2933 144.261Z" fill="#FF94FF"/>
<path opacity="0.45" d="M26.3202 112.547C25.264 112.05 24.8101 110.819 25.2902 109.763C25.779 108.689 27.036 108.218 28.1097 108.724C29.1834 109.221 29.6286 110.496 29.1136 111.561C28.616 112.608 27.3765 113.045 26.3202 112.547Z" fill="#FF94FF"/>
<path opacity="0.45" d="M28.5635 82.1784C28.0484 83.2346 26.8263 83.6624 25.7614 83.1561C24.7051 82.6411 24.2774 81.419 24.7837 80.354C25.2987 79.2978 26.5208 78.87 27.5858 79.3763C28.642 79.8826 29.0697 81.1134 28.5635 82.1784Z" fill="#FF94FF"/>
<path opacity="0.45" d="M41.282 131.9C40.7757 132.965 39.5536 133.393 38.4974 132.886C37.4412 132.38 37.0134 131.149 37.5284 130.093C38.0347 129.063 39.2394 128.635 40.2782 129.124C41.3431 129.613 41.7883 130.835 41.282 131.9Z" fill="#FF94FF"/>
<path opacity="0.45" d="M106.096 133.698C105.59 134.754 104.368 135.191 103.312 134.685C102.256 134.178 101.828 132.947 102.343 131.891C102.849 130.861 104.054 130.433 105.093 130.922C106.166 131.42 106.603 132.642 106.096 133.698Z" fill="#FF94FF"/>
<path opacity="0.45" d="M72.227 46.8426C71.1621 46.345 70.7256 45.1229 71.2232 44.0579C71.7295 42.993 72.9515 42.5653 74.0078 43.0715C75.0466 43.5691 75.483 44.7737 74.9942 45.8212C74.5053 46.8949 73.2833 47.3401 72.227 46.8426Z" fill="#FF94FF"/>
<path opacity="0.45" d="M31.2259 117.584C32.2646 118.073 32.7098 119.295 32.2297 120.334C31.7322 121.399 30.5013 121.844 29.4451 121.329C28.4063 120.831 27.9786 119.609 28.4762 118.57C28.9737 117.532 30.1871 117.095 31.2259 117.584Z" fill="#FF94FF"/>
<path opacity="0.45" d="M115.62 62.9392C116.65 63.4193 117.104 64.6588 116.624 65.6889C116.144 66.7189 114.904 67.1729 113.874 66.6927C112.844 66.2126 112.39 64.9731 112.87 63.943C113.359 62.913 114.59 62.4591 115.62 62.9392Z" fill="#FF94FF"/>
<path opacity="0.45" d="M36.0705 61.56C37.1005 62.0488 37.537 63.2884 37.0481 64.3184C36.5593 65.3485 35.3198 65.7849 34.2897 65.2961C33.2597 64.8073 32.8232 63.5677 33.312 62.5377C33.8009 61.5163 35.0404 61.0712 36.0705 61.56Z" fill="#FF94FF"/>
<path opacity="0.45" d="M26.0582 102.744C25.5694 103.774 24.3298 104.211 23.2998 103.722C22.2697 103.233 21.8333 101.994 22.3221 100.964C22.8109 99.9336 24.0505 99.4971 25.0805 99.986C26.1019 100.475 26.547 101.714 26.0582 102.744Z" fill="#FF94FF"/>
<path opacity="0.45" d="M95.6039 48.4662C95.1151 49.4875 93.8406 49.9239 92.8368 49.4176C91.8416 48.9201 91.4139 47.6805 91.894 46.6854C92.3829 45.6641 93.6573 45.2276 94.6612 45.7339C95.6563 46.2228 96.084 47.4623 95.6039 48.4662Z" fill="#FF94FF"/>
<path opacity="0.45" d="M125.938 92.0511C125.449 93.0725 124.175 93.5089 123.162 93.0026C122.167 92.5051 121.739 91.2655 122.228 90.2617C122.717 89.2403 123.991 88.8039 125.004 89.3102C125.999 89.8165 126.418 91.0473 125.938 92.0511Z" fill="#FF94FF"/>
<path opacity="0.45" d="M98.8599 52.2808C97.8561 51.8182 97.4109 50.5786 97.8648 49.566C98.3274 48.5447 99.6019 48.0908 100.615 48.5796C101.61 49.0597 102.046 50.2993 101.575 51.3032C101.103 52.307 99.8638 52.7522 98.8599 52.2808Z" fill="#FF94FF"/>
<path opacity="0.45" d="M70.9439 146.05C70.4638 147.045 69.2243 147.49 68.2292 147.019C67.2078 146.548 66.7626 145.264 67.2602 144.261C67.7578 143.265 68.9973 142.838 69.9925 143.327C70.9876 143.807 71.4153 145.055 70.9439 146.05Z" fill="#FF94FF"/>
<path opacity="0.45" d="M25.7178 88.027C25.2377 89.0221 24.0069 89.4673 23.003 88.9959C21.9817 88.5245 21.5365 87.2413 22.0341 86.2375C22.5317 85.2424 23.7712 84.8146 24.7663 85.3035C25.7615 85.7923 26.1892 87.0318 25.7178 88.027Z" fill="#FF94FF"/>
<path opacity="0.45" d="M119.574 116.013C120.578 116.493 120.997 117.671 120.517 118.684C120.028 119.705 118.824 120.124 117.811 119.618C116.816 119.12 116.414 117.933 116.903 116.938C117.392 115.934 118.57 115.524 119.574 116.013Z" fill="#FF94FF"/>
<path opacity="0.45" d="M123.363 112.722C122.874 113.726 121.696 114.136 120.692 113.656C119.67 113.167 119.251 111.962 119.758 110.941C120.255 109.946 121.442 109.544 122.438 110.033C123.441 110.531 123.843 111.718 123.363 112.722Z" fill="#FF94FF"/>
<path opacity="0.45" d="M89.668 45.6467C89.1791 46.6505 88.0007 47.0608 86.9968 46.5807C85.9755 46.0919 85.5565 44.8785 86.0715 43.8659C86.5691 42.8708 87.7563 42.478 88.7601 42.9668C89.7552 43.4644 90.1568 44.6515 89.668 45.6467Z" fill="#FF94FF"/>
<path opacity="0.45" d="M94.3906 142.689C93.9017 143.693 92.7233 144.103 91.7194 143.623C90.6981 143.134 90.2791 141.921 90.7941 140.909C91.2917 139.913 92.4789 139.512 93.474 140.009C94.4779 140.507 94.8794 141.685 94.3906 142.689Z" fill="#FF94FF"/>
<path opacity="0.45" d="M107.484 54.1576C106.996 55.1615 105.817 55.563 104.805 55.0567C103.801 54.5591 103.417 53.3807 103.923 52.3768C104.412 51.3992 105.573 51.0064 106.568 51.4865C107.58 51.9753 107.982 53.145 107.484 54.1576Z" fill="#FF94FF"/>
<path opacity="0.45" d="M60.1981 46.1093C59.718 47.1306 58.557 47.5496 57.5444 47.0695C56.5493 46.5982 56.0517 45.4022 56.5929 44.4682C57.1167 43.5604 58.1205 42.9232 59.2204 43.4556C60.2417 43.9445 60.6782 45.0967 60.1981 46.1093Z" fill="#FF94FF"/>
<path opacity="0.45" d="M84.7099 143.204C85.7137 143.684 86.124 144.854 85.6264 145.867C85.1463 146.844 83.9941 147.246 82.9989 146.766C81.9951 146.286 81.5848 145.116 82.0824 144.103C82.5625 143.117 83.7147 142.724 84.7099 143.204Z" fill="#FF94FF"/>
<path opacity="0.45" d="M117.645 124.629C117.174 125.65 116.004 126.06 114.991 125.58C114.005 125.109 113.586 123.956 114.049 122.961C114.52 121.94 115.69 121.53 116.702 122.01C117.697 122.49 118.108 123.633 117.645 124.629Z" fill="#FF94FF"/>
<path opacity="0.45" d="M34.2987 126.392C35.2764 126.872 35.6692 128.05 35.1891 129.028C34.709 130.006 33.5305 130.399 32.5528 129.918C31.5752 129.438 31.1824 128.26 31.6625 127.282C32.1426 126.305 33.3123 125.903 34.2987 126.392Z" fill="#FF94FF"/>
<path opacity="0.45" d="M125.204 104.193C126.182 104.656 126.592 105.852 126.121 106.821C125.65 107.79 124.454 108.2 123.485 107.72C122.533 107.249 122.132 106.088 122.577 105.127C123.04 104.15 124.227 103.722 125.204 104.193Z" fill="#FF94FF"/>
<path opacity="0.45" d="M68.0896 40.3916C69.0411 40.863 69.4426 42.0415 68.9887 42.9929C68.5173 43.9619 67.2952 44.3722 66.3437 43.8833C65.401 43.3945 65.0082 42.2073 65.4796 41.2733C65.9597 40.3305 67.1381 39.929 68.0896 40.3916Z" fill="#FF94FF"/>
<path opacity="0.45" d="M103.137 139.599C102.631 140.533 101.444 140.909 100.51 140.428C99.5493 139.922 99.174 138.691 99.689 137.766C100.213 136.832 101.409 136.474 102.325 136.972C103.268 137.478 103.635 138.674 103.137 139.599Z" fill="#FF94FF"/>
<path opacity="0.45" d="M82.7282 40.1735C83.6797 40.6274 84.0987 41.8233 83.636 42.7748C83.1734 43.7262 81.9687 44.1365 81.0347 43.6651C80.1007 43.1938 79.6992 42.0415 80.1443 41.0987C80.5808 40.1385 81.7767 39.7195 82.7282 40.1735Z" fill="#FF94FF"/>
<path opacity="0.45" d="M22.7585 93.9715C22.2871 94.923 21.0912 95.3333 20.1572 94.8532C19.2057 94.3731 18.8129 93.1685 19.293 92.2432C19.7731 91.3179 20.9341 90.925 21.8594 91.3702C22.8109 91.8329 23.2212 93.0288 22.7585 93.9715Z" fill="#FF94FF"/>
<path opacity="0.45" d="M125.51 77.29C125.048 78.2415 123.852 78.6518 122.909 78.1804C121.957 77.709 121.556 76.5044 122.036 75.5704C122.507 74.6363 123.668 74.2435 124.602 74.6887C125.545 75.1513 125.964 76.3473 125.51 77.29Z" fill="#FF94FF"/>
<path opacity="0.45" d="M113.307 56.9161C112.844 57.8675 111.709 58.2604 110.758 57.8152C109.789 57.3525 109.387 56.1741 109.867 55.2226C110.348 54.2798 111.491 53.8958 112.425 54.3584C113.377 54.8298 113.769 55.9733 113.307 56.9161Z" fill="#FF94FF"/>
<path opacity="0.45" d="M75.8672 146.294C76.8274 146.74 77.2377 147.848 76.7925 148.808C76.3473 149.769 75.2387 150.179 74.2785 149.734C73.3183 149.289 72.908 148.18 73.3532 147.22C73.7984 146.26 74.907 145.849 75.8672 146.294Z" fill="#FF94FF"/>
<path opacity="0.45" d="M113.848 127.963C114.808 128.417 115.21 129.517 114.765 130.477C114.311 131.437 113.211 131.839 112.251 131.394C111.29 130.94 110.889 129.84 111.334 128.88C111.779 127.919 112.888 127.509 113.848 127.963Z" fill="#FF94FF"/>
<path opacity="0.45" d="M128.583 86.0891C128.12 87.0493 127.012 87.4334 126.051 86.962C125.117 86.4993 124.742 85.4082 125.196 84.4654C125.659 83.5052 126.767 83.1211 127.727 83.5925C128.662 84.0464 129.037 85.1463 128.583 86.0891Z" fill="#FF94FF"/>
<path opacity="0.45" d="M26.067 117.418C25.6043 118.378 24.5044 118.771 23.5442 118.3C22.6102 117.846 22.2261 116.755 22.6713 115.812C23.1339 114.852 24.2338 114.459 25.194 114.93C26.1368 115.384 26.5209 116.475 26.067 117.418Z" fill="#FF94FF"/>
<path opacity="0.45" d="M22.1474 106.131C23.1076 106.594 23.4917 107.694 23.0203 108.663C22.5664 109.597 21.4753 109.981 20.5238 109.527C19.5636 109.064 19.1795 107.964 19.6508 106.996C20.1135 106.062 21.2046 105.686 22.1474 106.131Z" fill="#FF94FF"/>
<path opacity="0.45" d="M119.924 69.3639C118.963 68.9013 118.579 67.8014 119.042 66.8324C119.496 65.8984 120.587 65.5143 121.538 65.9682C122.499 66.4309 122.883 67.5308 122.42 68.4997C121.957 69.4337 120.866 69.8091 119.924 69.3639Z" fill="#FF94FF"/>
<path opacity="0.45" d="M55.1962 143.798C56.1302 144.252 56.5231 145.352 56.0691 146.294C55.6152 147.228 54.5153 147.621 53.5726 147.167C52.6386 146.713 52.2457 145.614 52.6997 144.671C53.1536 143.737 54.2535 143.353 55.1962 143.798Z" fill="#FF94FF"/>
<path opacity="0.45" d="M128.906 100.772C128.46 101.714 127.361 102.116 126.427 101.679C125.484 101.234 125.082 100.134 125.519 99.2004C125.964 98.2576 127.064 97.8561 127.998 98.2925C128.941 98.7377 129.342 99.8289 128.906 100.772Z" fill="#FF94FF"/>
<path opacity="0.45" d="M49.1992 140.943C50.142 141.389 50.5435 142.488 50.1071 143.423C49.6619 144.365 48.562 144.767 47.628 144.33C46.6852 143.885 46.2837 142.785 46.7201 141.851C47.1566 140.9 48.2565 140.498 49.1992 140.943Z" fill="#FF94FF"/>
<path opacity="0.45" d="M43.3244 138.159C44.2323 138.587 44.6338 139.704 44.2061 140.612C43.7784 141.537 42.6261 141.939 41.7095 141.493C40.8104 141.048 40.4263 139.922 40.8628 139.023C41.2993 138.124 42.4166 137.731 43.3244 138.159Z" fill="#FF94FF"/>
<path opacity="0.45" d="M61.1499 146.696C62.0403 147.132 62.4243 148.215 62.0053 149.114C61.5689 150.031 60.4428 150.415 59.5524 149.961C58.6621 149.507 58.2954 148.416 58.7319 147.534C59.1684 146.644 60.2595 146.268 61.1499 146.696Z" fill="#FF94FF"/>
<path opacity="0.45" d="M77.5519 39.8505C77.1242 40.7408 76.0417 41.1337 75.1426 40.7147C74.2261 40.2869 73.8333 39.1696 74.2785 38.2617C74.7236 37.3714 75.8148 36.996 76.6964 37.4325C77.5955 37.8689 77.9796 38.9514 77.5519 39.8505Z" fill="#FF94FF"/>
<path opacity="0.45" d="M28.3455 123.712C29.2358 124.148 29.6112 125.24 29.1835 126.13C28.747 127.038 27.6122 127.422 26.7218 126.959C25.8402 126.505 25.4735 125.405 25.9187 124.524C26.3639 123.642 27.4551 123.275 28.3455 123.712Z" fill="#FF94FF"/>
<path opacity="0.45" d="M22.7849 74.0864C21.8858 73.6762 21.4842 72.5937 21.8945 71.6859C22.3048 70.7693 23.4221 70.3591 24.3387 70.7955C25.2291 71.2232 25.6219 72.3057 25.2029 73.2048C24.7751 74.1039 23.6927 74.4967 22.7849 74.0864Z" fill="#FF94FF"/>
<path opacity="0.45" d="M110.95 134.03C111.867 134.458 112.242 135.514 111.814 136.422C111.378 137.338 110.321 137.705 109.414 137.268C108.523 136.841 108.148 135.811 108.567 134.912C108.986 133.986 110.033 133.602 110.95 134.03Z" fill="#FF94FF"/>
<path opacity="0.45" d="M27.1581 64.8335C28.0747 65.2612 28.45 66.3174 28.0223 67.2253C27.5858 68.1418 26.5296 68.5085 25.6218 68.072C24.7314 67.6443 24.356 66.6142 24.775 65.7151C25.194 64.7985 26.2415 64.4057 27.1581 64.8335Z" fill="#FF94FF"/>
<path opacity="0.45" d="M18.9789 97.4021C19.878 97.8299 20.2446 98.8599 19.8256 99.759C19.3979 100.684 18.3417 101.051 17.4338 100.606C16.5434 100.169 16.1855 99.1393 16.622 98.2402C17.0497 97.3323 18.0798 96.9744 18.9789 97.4021Z" fill="#FF94FF"/>
<path opacity="0.45" d="M22.2959 79.193C21.8595 80.0834 20.8294 80.4413 19.9303 80.0048C19.0137 79.5684 18.6646 78.5121 19.1185 77.5955C19.5637 76.7139 20.6024 76.3735 21.5016 76.8187C22.3832 77.2638 22.7324 78.3026 22.2959 79.193Z" fill="#FF94FF"/>
<path opacity="0.45" d="M116.807 60.5387C115.908 60.1109 115.524 59.0896 115.943 58.1905C116.37 57.2652 117.418 56.8899 118.335 57.3263C119.234 57.7541 119.592 58.7841 119.164 59.6832C118.736 60.591 117.706 60.9664 116.807 60.5387Z" fill="#FF94FF"/>
<path opacity="0.45" d="M91.3267 148.555C90.899 149.437 89.8602 149.804 88.9698 149.376C88.0882 148.948 87.7215 147.909 88.1493 147.019C88.577 146.137 89.6158 145.771 90.5061 146.198C91.3878 146.626 91.7544 147.674 91.3267 148.555Z" fill="#FF94FF"/>
<path opacity="0.45" d="M38.1395 137.74C37.7117 138.63 36.673 138.997 35.7826 138.569C34.8922 138.141 34.5256 137.103 34.9533 136.212C35.3811 135.322 36.4198 134.955 37.3102 135.383C38.2006 135.811 38.5672 136.849 38.1395 137.74Z" fill="#FF94FF"/>
<path opacity="0.45" d="M99.3401 143.091C100.213 143.519 100.571 144.601 100.126 145.465C99.6893 146.312 98.6418 146.661 97.7863 146.242C96.9134 145.814 96.5555 144.732 97.0007 143.868C97.4284 143.012 98.4847 142.663 99.3401 143.091Z" fill="#FF94FF"/>
<path opacity="0.45" d="M131.638 94.7834C131.21 95.6563 130.128 96.0142 129.264 95.569C128.417 95.1412 128.068 94.085 128.487 93.2296C128.915 92.3566 129.997 91.9987 130.861 92.4439C131.708 92.8717 132.057 93.9279 131.638 94.7834Z" fill="#FF94FF"/>
<path opacity="0.45" d="M19.4414 85.059C19.0137 85.9057 17.9313 86.2724 17.102 85.8359C16.2727 85.3994 15.9235 84.3519 16.3425 83.5314C16.7703 82.6847 17.8527 82.318 18.682 82.7545C19.5113 83.1909 19.8604 84.2385 19.4414 85.059Z" fill="#FF94FF"/>
<path opacity="0.45" d="M97.3235 40.0251C98.1789 40.4179 98.5718 41.4916 98.1615 42.347C97.76 43.185 96.7212 43.5604 95.8744 43.1763C95.019 42.7835 94.6262 41.7098 95.0364 40.8543C95.438 40.0163 96.4768 39.641 97.3235 40.0251Z" fill="#FF94FF"/>
<path opacity="0.45" d="M81.8032 149.306C82.6586 149.716 83.0253 150.807 82.5975 151.645C82.1698 152.475 81.131 152.833 80.293 152.431C79.4376 152.021 79.0709 150.93 79.4987 150.092C79.9264 149.262 80.9652 148.904 81.8032 149.306Z" fill="#FF94FF"/>
<path opacity="0.45" d="M65.4792 152.693C64.6324 152.265 64.2745 151.183 64.7023 150.354C65.1387 149.524 66.1862 149.175 67.0068 149.594C67.8535 150.022 68.2114 151.104 67.7837 151.933C67.3472 152.763 66.2997 153.103 65.4792 152.693Z" fill="#FF94FF"/>
<path opacity="0.45" d="M39.4575 56.0519C40.0772 56.6891 40.2344 57.5707 39.859 58.3389C39.4837 59.0984 38.6631 59.5523 37.8164 59.465C36.9697 59.3777 36.2539 58.7666 36.0705 57.9374C36.0356 57.789 36.1142 57.5009 36.2189 57.4485C37.3014 56.9597 38.3838 56.5145 39.4575 56.0519Z" fill="#FF94FF"/>
<path opacity="0.45" d="M104.106 45.2015C103.687 46.0482 102.666 46.3974 101.819 45.9784C100.972 45.5594 100.623 44.538 101.042 43.6913C101.461 42.8446 102.483 42.4954 103.329 42.9144C104.176 43.3334 104.525 44.3547 104.106 45.2015Z" fill="#FF94FF"/>
<path opacity="0.45" d="M128.932 115.376C128.522 116.214 127.544 116.554 126.706 116.144C125.868 115.733 125.528 114.756 125.938 113.918C126.348 113.08 127.326 112.739 128.164 113.15C129.002 113.551 129.342 114.529 128.932 115.376Z" fill="#FF94FF"/>
<path opacity="0.45" d="M126.095 121.329C125.693 122.176 124.725 122.534 123.878 122.132C123.031 121.73 122.673 120.761 123.075 119.915C123.476 119.068 124.445 118.71 125.292 119.112C126.139 119.513 126.497 120.491 126.095 121.329Z" fill="#FF94FF"/>
<path opacity="0.45" d="M91.4228 37.2841C92.2695 37.6856 92.6274 38.6545 92.2259 39.5013C91.8243 40.348 90.8554 40.7059 90.0086 40.3044C89.1619 39.9028 88.804 38.9339 89.2055 38.0872C89.6071 37.2404 90.576 36.8825 91.4228 37.2841Z" fill="#FF94FF"/>
<path opacity="0.45" d="M125.886 71.9739C125.048 71.5637 124.707 70.586 125.117 69.748C125.528 68.91 126.505 68.5695 127.343 68.9798C128.181 69.3901 128.522 70.3677 128.111 71.2058C127.701 72.0438 126.724 72.3842 125.886 71.9739Z" fill="#FF94FF"/>
<path opacity="0.45" d="M131.237 80.031C130.826 80.869 129.849 81.2095 129.011 80.7992C128.173 80.3889 127.832 79.4113 128.242 78.5733C128.653 77.7352 129.63 77.3948 130.468 77.8051C131.306 78.2066 131.647 79.1843 131.237 80.031Z" fill="#FF94FF"/>
<path opacity="0.45" d="M32.0729 134.842C31.6713 135.68 30.6762 136.029 29.8382 135.61C29.0264 135.208 28.6859 134.231 29.0788 133.41C29.4803 132.572 30.4754 132.223 31.3134 132.642C32.1252 133.043 32.457 134.021 32.0729 134.842Z" fill="#FF94FF"/>
<path opacity="0.45" d="M110.042 48.021C109.64 48.859 108.636 49.1994 107.807 48.7804C106.995 48.3789 106.664 47.4012 107.056 46.5807C107.458 45.7427 108.462 45.4022 109.291 45.8212C110.103 46.2228 110.435 47.2004 110.042 48.021Z" fill="#FF94FF"/>
<path opacity="0.45" d="M108.881 142.227C108.506 143.038 107.511 143.405 106.69 143.03C105.878 142.654 105.512 141.659 105.887 140.839C106.262 140.027 107.257 139.66 108.078 140.036C108.899 140.42 109.265 141.415 108.881 142.227Z" fill="#FF94FF"/>
<path opacity="0.45" d="M123.223 127.3C122.839 128.111 121.844 128.469 121.032 128.094C120.22 127.71 119.862 126.715 120.238 125.903C120.622 125.091 121.617 124.733 122.429 125.109C123.249 125.493 123.607 126.488 123.223 127.3Z" fill="#FF94FF"/>
<path opacity="0.45" d="M19.9825 114.503C19.6072 115.314 18.6033 115.681 17.7915 115.297C16.9797 114.922 16.6131 113.918 16.9972 113.106C17.3725 112.294 18.3764 111.928 19.1882 112.312C20 112.696 20.3579 113.691 19.9825 114.503Z" fill="#FF94FF"/>
<path opacity="0.45" d="M71.5287 36.996C71.2057 37.6594 70.5248 38.026 69.7916 37.9213C69.0932 37.8253 68.5346 37.2928 68.3862 36.5945C68.2552 35.9572 68.3949 35.6342 68.9536 35.2763C69.1107 35.1803 69.2504 35.0581 69.4162 34.9621C70.1844 34.5082 70.6121 34.5169 71.1533 35.0145C71.7033 35.5208 71.8604 36.3151 71.5287 36.996Z" fill="#FF94FF"/>
<path opacity="0.45" d="M131.716 109.466C131.332 110.269 130.311 110.627 129.517 110.225C128.731 109.833 128.391 108.846 128.766 108.061C129.15 107.257 130.171 106.9 130.966 107.301C131.751 107.694 132.092 108.68 131.716 109.466Z" fill="#FF94FF"/>
<path opacity="0.45" d="M15.7317 88.8126C16.5261 89.188 16.884 90.1569 16.5086 90.96C16.1333 91.7543 15.1643 92.1122 14.3612 91.7369C13.5669 91.3615 13.209 90.3926 13.5843 89.5895C13.951 88.7864 14.9286 88.4373 15.7317 88.8126Z" fill="#FF94FF"/>
<path opacity="0.45" d="M22.2785 121.05C23.0728 121.442 23.4046 122.42 23.0205 123.206C22.6277 124 21.65 124.332 20.8644 123.948C20.07 123.555 19.7383 122.577 20.1224 121.792C20.5065 120.997 21.4841 120.657 22.2785 121.05Z" fill="#FF94FF"/>
<path opacity="0.45" d="M124.995 62.4765C124.62 63.2709 123.642 63.6201 122.848 63.2447C122.053 62.8694 121.704 61.8917 122.08 61.0973C122.455 60.303 123.433 59.9538 124.227 60.3292C125.021 60.7045 125.37 61.6735 124.995 62.4765Z" fill="#FF94FF"/>
<path opacity="0.45" d="M71.5635 155.416C70.7604 155.041 70.4287 154.133 70.8041 153.339C71.1794 152.536 72.0873 152.204 72.8816 152.579C73.6847 152.955 74.0164 153.863 73.6411 154.657C73.2657 155.451 72.3579 155.783 71.5635 155.416Z" fill="#FF94FF"/>
<path opacity="0.45" d="M14.7015 106.419C13.8809 106.044 13.5405 105.11 13.9333 104.298C14.3087 103.504 15.2252 103.172 16.0196 103.539C16.8401 103.914 17.1806 104.848 16.7877 105.66C16.4124 106.454 15.5046 106.786 14.7015 106.419Z" fill="#FF94FF"/>
<path opacity="0.45" d="M84.0551 37.3713C83.2433 36.9873 82.9203 36.0445 83.3219 35.2327C83.7147 34.4471 84.6312 34.1328 85.4256 34.5082C86.2374 34.8922 86.5604 35.835 86.1589 36.6468C85.766 37.4412 84.8495 37.7554 84.0551 37.3713Z" fill="#FF94FF"/>
<path opacity="0.45" d="M115.123 48.7019C115.917 49.086 116.231 50.0025 115.847 50.7969C115.463 51.5913 114.546 51.9055 113.752 51.5214C112.958 51.1373 112.643 50.2208 113.028 49.4264C113.412 48.6233 114.319 48.3091 115.123 48.7019Z" fill="#FF94FF"/>
<path opacity="0.45" d="M132.188 89.5371C131.394 89.153 131.071 88.2452 131.455 87.4421C131.839 86.6478 132.747 86.3248 133.55 86.7089C134.344 87.093 134.667 88.0008 134.283 88.8039C133.89 89.5982 132.982 89.9212 132.188 89.5371Z" fill="#FF94FF"/>
<path opacity="0.45" d="M119.601 131.079C120.386 131.455 120.709 132.389 120.316 133.174C119.932 133.934 119.024 134.248 118.248 133.881C117.462 133.506 117.139 132.572 117.532 131.786C117.916 131.018 118.832 130.713 119.601 131.079Z" fill="#FF94FF"/>
<path opacity="0.45" d="M134.484 103.434C134.134 104.193 133.183 104.534 132.432 104.176C131.699 103.818 131.367 102.902 131.708 102.151C132.057 101.391 133.008 101.051 133.759 101.418C134.492 101.767 134.824 102.683 134.484 103.434Z" fill="#FF94FF"/>
<path opacity="0.45" d="M28.3278 62.1012C27.8652 61.8481 27.5422 61.3767 27.4549 60.7307C27.4025 60.3903 27.5422 60.2332 27.8652 60.1546C28.6246 59.9538 29.3753 59.7531 30.1173 59.5086C30.4577 59.3952 30.6236 59.4912 30.772 59.7792C31.1037 60.4427 30.9902 61.2458 30.4752 61.787C29.9427 62.3456 29.1222 62.494 28.3278 62.1012Z" fill="#FF94FF"/>
<path opacity="0.45" d="M95.0713 152.003C94.3206 151.654 93.9976 150.729 94.3555 149.987C94.7134 149.236 95.6387 148.922 96.3806 149.289C97.1052 149.646 97.4194 150.537 97.0877 151.27C96.7385 152.021 95.822 152.361 95.0713 152.003Z" fill="#FF94FF"/>
<path opacity="0.45" d="M46.1878 147.237C46.9385 147.578 47.2703 148.494 46.9211 149.254C46.5719 150.004 45.6466 150.327 44.9046 149.969C44.1714 149.62 43.8571 148.73 44.1801 147.988C44.5206 147.237 45.4371 146.897 46.1878 147.237Z" fill="#FF94FF"/>
<path opacity="0.45" d="M52.892 152.126C52.5254 152.876 51.6001 153.191 50.8668 152.815C50.1249 152.44 49.8193 151.514 50.1947 150.781C50.5701 150.057 51.4604 149.751 52.185 150.1C52.9357 150.458 53.2587 151.375 52.892 152.126Z" fill="#FF94FF"/>
<path opacity="0.45" d="M41.0025 146.46C40.6359 147.202 39.7804 147.499 39.0297 147.132C38.2615 146.766 37.9734 145.884 38.3663 145.125C38.7416 144.391 39.6058 144.112 40.3478 144.487C41.081 144.854 41.3691 145.718 41.0025 146.46Z" fill="#FF94FF"/>
<path opacity="0.45" d="M87.573 152.344C88.3237 152.702 88.6205 153.557 88.2626 154.308C87.896 155.076 87.0231 155.373 86.2549 154.997C85.5129 154.631 85.2336 153.767 85.6002 153.025C85.9669 152.274 86.831 151.977 87.573 152.344Z" fill="#FF94FF"/>
<path opacity="0.45" d="M24.0679 132.668C23.3172 132.319 22.9942 131.472 23.3346 130.722C23.6838 129.945 24.5567 129.63 25.3249 129.997C26.0756 130.355 26.3724 131.21 26.0232 131.961C25.674 132.703 24.8273 133.017 24.0679 132.668Z" fill="#FF94FF"/>
<path opacity="0.45" d="M80.0746 33.7313C79.7167 34.4733 78.8612 34.7701 78.1105 34.4034C77.3685 34.0368 77.0805 33.1813 77.4558 32.4306C77.8137 31.7148 78.6517 31.4268 79.385 31.7672C80.1357 32.1251 80.4412 32.9806 80.0746 33.7313Z" fill="#FF94FF"/>
<path opacity="0.45" d="M12.886 94.8532C13.593 95.2024 13.8898 96.0666 13.5406 96.7824C13.1827 97.5156 12.2924 97.8124 11.5678 97.4371C10.8608 97.0704 10.5814 96.2062 10.9481 95.4904C11.306 94.7921 12.1702 94.504 12.886 94.8532Z" fill="#FF94FF"/>
<path opacity="0.45" d="M18.2979 68.3338C19.005 68.683 19.3105 69.5646 18.9526 70.2717C18.6034 70.9701 17.7043 71.2668 17.0147 70.9089C16.3338 70.5598 16.037 69.6956 16.3688 69.006C16.7005 68.3076 17.5908 67.9934 18.2979 68.3338Z" fill="#FF94FF"/>
<path opacity="0.45" d="M58.8101 154.936C58.4696 155.643 57.588 155.949 56.8809 155.608C56.1738 155.259 55.877 154.369 56.2262 153.671C56.5754 152.99 57.4308 152.684 58.1205 153.016C58.8275 153.339 59.1505 154.221 58.8101 154.936Z" fill="#FF94FF"/>
<path opacity="0.45" d="M115.437 139.748C114.738 139.398 114.442 138.499 114.8 137.81C115.157 137.111 116.057 136.823 116.746 137.19C117.427 137.548 117.706 138.412 117.375 139.093C117.025 139.8 116.135 140.097 115.437 139.748Z" fill="#FF94FF"/>
<path opacity="0.45" d="M119.129 52.2983C119.496 51.5999 120.386 51.3119 121.076 51.6785C121.774 52.0451 122.045 52.9442 121.678 53.6339C121.311 54.306 120.447 54.5853 119.766 54.2362C119.059 53.887 118.771 52.9966 119.129 52.2983Z" fill="#FF94FF"/>
<path opacity="0.45" d="M21.7811 64.301C21.4232 64.9819 20.5416 65.2699 19.8694 64.9208C19.1885 64.5629 18.9005 63.6812 19.2496 63.0091C19.6075 62.3282 20.4892 62.0401 21.1613 62.3893C21.8509 62.7472 22.1303 63.6288 21.7811 64.301Z" fill="#FF94FF"/>
<path opacity="0.45" d="M103.914 148.791C103.225 148.451 102.928 147.578 103.26 146.897C103.6 146.207 104.473 145.91 105.154 146.242C105.843 146.582 106.14 147.455 105.809 148.136C105.477 148.826 104.604 149.123 103.914 148.791Z" fill="#FF94FF"/>
<path opacity="0.45" d="M16.0809 76.1814C15.7579 76.8972 14.9286 77.194 14.2215 76.8623C13.5319 76.5306 13.2351 75.7275 13.5581 75.0291C13.8811 74.3133 14.7104 74.0166 15.4174 74.3483C16.107 74.68 16.3951 75.4831 16.0809 76.1814Z" fill="#FF94FF"/>
<path opacity="0.45" d="M135.357 98.0743C134.667 97.7513 134.362 96.9482 134.667 96.2499C134.981 95.5341 135.811 95.2198 136.526 95.5515C137.234 95.8832 137.53 96.7125 137.19 97.4196C136.858 98.1092 136.046 98.3972 135.357 98.0743Z" fill="#FF94FF"/>
<path opacity="0.45" d="M133.846 73.9118C133.523 74.6014 132.72 74.8982 132.022 74.584C131.306 74.261 131.001 73.4317 131.332 72.7247C131.664 72.0176 132.502 71.7208 133.2 72.07C133.89 72.4191 134.169 73.2222 133.846 73.9118Z" fill="#FF94FF"/>
<path opacity="0.45" d="M34.9531 143.553C34.6127 144.261 33.7747 144.549 33.0764 144.191C32.3955 143.85 32.1161 143.038 32.4479 142.349C32.7883 141.642 33.6263 141.354 34.3246 141.712C35.0055 142.061 35.2848 142.864 34.9531 143.553Z" fill="#FF94FF"/>
<path opacity="0.45" d="M77.6305 158.079C76.9235 157.747 76.6354 156.962 76.9671 156.254C77.2988 155.547 78.0932 155.268 78.7915 155.609C79.4724 155.94 79.7517 156.708 79.4462 157.398C79.1145 158.114 78.3289 158.411 77.6305 158.079Z" fill="#FF94FF"/>
<path opacity="0.45" d="M130.652 65.1739C130.32 65.8722 129.526 66.1515 128.818 65.8111C128.12 65.4706 127.85 64.6763 128.199 63.9692C128.53 63.2971 129.307 63.0265 129.997 63.3495C130.704 63.6812 130.983 64.4755 130.652 65.1739Z" fill="#FF94FF"/>
<path opacity="0.45" d="M16.2816 118.483C16.9537 118.815 17.2243 119.601 16.9013 120.281C16.5696 120.971 15.7491 121.242 15.0682 120.892C14.4048 120.552 14.1516 119.758 14.4833 119.085C14.815 118.413 15.6094 118.151 16.2816 118.483Z" fill="#FF94FF"/>
<path opacity="0.45" d="M136.928 82.7196C136.614 83.383 135.793 83.6711 135.138 83.3568C134.475 83.0339 134.196 82.2133 134.519 81.5586C134.833 80.9214 135.627 80.6421 136.282 80.9388C136.937 81.2356 137.233 82.0562 136.928 82.7196Z" fill="#FF94FF"/>
<path opacity="0.45" d="M11.9433 112.163C11.2799 111.849 10.9918 111.028 11.3061 110.374C11.6291 109.71 12.4496 109.431 13.1043 109.754C13.7416 110.068 14.0209 110.863 13.7241 111.517C13.4186 112.181 12.6068 112.477 11.9433 112.163Z" fill="#FF94FF"/>
<path opacity="0.45" d="M64.6063 157.686C64.2921 158.349 63.4715 158.638 62.8168 158.323C62.1534 158.009 61.8741 157.18 62.1971 156.525C62.5113 155.888 63.3057 155.6 63.9516 155.897C64.6151 156.202 64.9206 157.023 64.6063 157.686Z" fill="#FF94FF"/>
<path opacity="0.45" d="M12.5716 80.2929C13.2088 80.5897 13.5056 81.4102 13.2088 82.0475C12.912 82.6847 12.0915 82.9815 11.4542 82.6847C10.817 82.3879 10.5202 81.5673 10.817 80.9301C11.1138 80.2842 11.9256 79.9961 12.5716 80.2929Z" fill="#FF94FF"/>
<path opacity="0.45" d="M99.9858 34.5344C100.623 34.8486 100.902 35.6692 100.588 36.3064C100.274 36.9436 99.4533 37.223 98.8161 36.9087C98.1789 36.5945 97.8995 35.7739 98.2138 35.1367C98.5368 34.4994 99.3573 34.2201 99.9858 34.5344Z" fill="#FF94FF"/>
<path opacity="0.45" d="M105.974 37.3888C106.612 37.7118 106.882 38.5323 106.568 39.1608C106.245 39.7981 105.424 40.0687 104.796 39.7544C104.159 39.4314 103.888 38.6109 104.202 37.9824C104.517 37.3451 105.346 37.0658 105.974 37.3888Z" fill="#FF94FF"/>
<path opacity="0.45" d="M28.8517 140.629C28.5549 141.258 27.8304 141.528 27.2019 141.24C26.5734 140.943 26.3028 140.219 26.5909 139.59C26.8877 138.962 27.6122 138.691 28.2407 138.979C28.8779 139.267 29.1485 140.001 28.8517 140.629Z" fill="#FF94FF"/>
<path opacity="0.45" d="M114.398 144.88C114.101 145.509 113.359 145.762 112.731 145.465C112.102 145.168 111.849 144.426 112.146 143.798C112.443 143.169 113.185 142.916 113.813 143.213C114.442 143.519 114.695 144.261 114.398 144.88Z" fill="#FF94FF"/>
<path opacity="0.45" d="M94.6522 33.4694C94.3379 34.1153 93.6047 34.3598 92.95 34.0368C92.304 33.7138 92.0683 32.9805 92.4001 32.3259C92.7143 31.7061 93.4301 31.4617 94.0673 31.7672C94.7133 32.0814 94.9752 32.8147 94.6522 33.4694Z" fill="#FF94FF"/>
<path opacity="0.45" d="M18.1756 129.613C17.5209 129.307 17.2678 128.574 17.582 127.919C17.8963 127.273 18.6296 127.02 19.2755 127.343C19.904 127.649 20.1572 128.365 19.8604 129.002C19.5548 129.657 18.8303 129.918 18.1756 129.613Z" fill="#FF94FF"/>
<path opacity="0.45" d="M131.691 124C131.394 124.629 130.669 124.899 130.041 124.611C129.412 124.314 129.142 123.59 129.43 122.961C129.727 122.333 130.451 122.062 131.08 122.35C131.717 122.638 131.987 123.363 131.691 124Z" fill="#FF94FF"/>
<path opacity="0.45" d="M112.478 41.9629C112.172 42.5827 111.439 42.8358 110.81 42.5303C110.191 42.2248 109.937 41.4915 110.243 40.863C110.548 40.2432 111.282 39.9901 111.91 40.2956C112.53 40.6011 112.783 41.3431 112.478 41.9629Z" fill="#FF94FF"/>
<path opacity="0.45" d="M127.5 56.3312C127.212 56.9422 126.435 57.2128 125.833 56.9073C125.248 56.6105 124.986 55.8685 125.266 55.275C125.554 54.6639 126.33 54.3933 126.933 54.6988C127.526 54.9956 127.78 55.7376 127.5 56.3312Z" fill="#FF94FF"/>
<path opacity="0.45" d="M134.536 118.003C134.257 118.623 133.489 118.902 132.878 118.605C132.284 118.326 132.013 117.584 132.284 116.982C132.563 116.362 133.332 116.083 133.943 116.379C134.536 116.668 134.807 117.41 134.536 118.003Z" fill="#FF94FF"/>
<path opacity="0.45" d="M10.4852 102.648C10.2059 103.242 9.44644 103.504 8.86158 103.216C8.268 102.928 8.01485 102.16 8.31164 101.583C8.59971 101.016 9.32423 100.763 9.90909 101.025C10.4939 101.304 10.7646 102.055 10.4852 102.648Z" fill="#FF94FF"/>
<path opacity="0.45" d="M93.4042 155.451C94.0065 155.731 94.251 156.412 93.9716 157.014C93.6923 157.616 93.0114 157.861 92.4091 157.581C91.8068 157.302 91.5624 156.621 91.8417 156.019C92.121 155.425 92.8019 155.172 93.4042 155.451Z" fill="#FF94FF"/>
<path opacity="0.45" d="M127.221 130.521C126.619 130.241 126.366 129.561 126.636 128.958C126.916 128.356 127.597 128.103 128.199 128.373C128.801 128.653 129.054 129.334 128.784 129.936C128.504 130.547 127.824 130.8 127.221 130.521Z" fill="#FF94FF"/>
<path opacity="0.45" d="M8.63489 88.5158C8.0413 88.219 7.81434 87.5294 8.11113 86.9358C8.40792 86.3422 9.09753 86.1153 9.69112 86.4121C10.2847 86.7088 10.5117 87.3984 10.2149 87.992C9.91808 88.5856 9.22847 88.8126 8.63489 88.5158Z" fill="#FF94FF"/>
<path opacity="0.45" d="M87.0405 31.1213C86.4381 30.8332 86.1937 30.1523 86.4818 29.55C86.7699 28.9477 87.4507 28.7033 88.0531 28.9913C88.6554 29.2794 88.8998 29.9603 88.6117 30.5626C88.3237 31.1649 87.6428 31.4093 87.0405 31.1213Z" fill="#FF94FF"/>
<path opacity="0.45" d="M135.697 112.67C135.104 112.381 134.868 111.692 135.156 111.098C135.444 110.505 136.134 110.269 136.727 110.557C137.321 110.845 137.556 111.535 137.268 112.128C136.98 112.731 136.299 112.966 135.697 112.67Z" fill="#FF94FF"/>
<path opacity="0.45" d="M139.809 91.4488C139.521 92.0424 138.831 92.2868 138.237 91.99C137.644 91.7019 137.399 91.0123 137.696 90.4187C137.984 89.8251 138.674 89.5807 139.267 89.8775C139.861 90.1656 140.097 90.8465 139.809 91.4488Z" fill="#FF94FF"/>
<path opacity="0.45" d="M70.4115 160.453C70.1322 161.038 69.4775 161.282 68.8926 161.021C68.2816 160.741 68.0372 160.06 68.334 159.458C68.622 158.882 69.2767 158.646 69.8616 158.926C70.4552 159.205 70.6909 159.868 70.4115 160.453Z" fill="#FF94FF"/>
<path opacity="0.45" d="M101.208 154.517C100.632 154.255 100.387 153.566 100.658 152.998C100.929 152.431 101.618 152.187 102.186 152.466C102.736 152.737 102.971 153.4 102.718 153.95C102.465 154.535 101.784 154.788 101.208 154.517Z" fill="#FF94FF"/>
<path opacity="0.45" d="M117.724 43.1937C118.291 43.4643 118.535 44.1452 118.265 44.7213C117.994 45.2887 117.305 45.5244 116.737 45.2451C116.187 44.9745 115.952 44.3111 116.205 43.7524C116.467 43.1763 117.148 42.9231 117.724 43.1937Z" fill="#FF94FF"/>
<path opacity="0.45" d="M84.544 158.664C85.0765 158.917 85.3122 159.563 85.059 160.104C84.8059 160.663 84.125 160.898 83.5838 160.619C83.0513 160.348 82.8418 159.694 83.0949 159.17C83.3656 158.638 84.0115 158.411 84.544 158.664Z" fill="#FF94FF"/>
<path opacity="0.45" d="M124.428 136.308C123.895 136.046 123.668 135.4 123.922 134.868C124.183 134.318 124.864 134.082 125.405 134.37C125.929 134.641 126.147 135.296 125.877 135.828C125.606 136.352 124.96 136.57 124.428 136.308Z" fill="#FF94FF"/>
<path opacity="0.45" d="M138.639 106.603C138.08 106.35 137.853 105.739 138.124 105.189C138.377 104.656 138.97 104.438 139.503 104.682C140.062 104.935 140.289 105.546 140.018 106.096C139.765 106.629 139.171 106.847 138.639 106.603Z" fill="#FF94FF"/>
<path opacity="0.45" d="M22.7936 137.749C22.5317 138.298 21.9206 138.517 21.3707 138.237C20.8469 137.975 20.6374 137.382 20.8906 136.841C21.1525 136.291 21.7635 136.073 22.3135 136.352C22.8459 136.622 23.0467 137.216 22.7936 137.749Z" fill="#FF94FF"/>
<path opacity="0.45" d="M139.494 76.6266C139.241 77.1503 138.613 77.3599 138.098 77.098C137.583 76.8361 137.382 76.2076 137.644 75.6926C137.897 75.195 138.499 74.9942 139.005 75.2386C139.529 75.4831 139.747 76.1028 139.494 76.6266Z" fill="#FF94FF"/>
<path opacity="0.45" d="M135.837 66.5007C136.361 66.7452 136.579 67.3649 136.326 67.8887C136.073 68.4124 135.453 68.6219 134.929 68.3601C134.432 68.1069 134.213 67.5133 134.449 67.007C134.693 66.4833 135.313 66.2563 135.837 66.5007Z" fill="#FF94FF"/>
<path opacity="0.45" d="M43.2198 153.566C43.7348 153.828 43.9356 154.456 43.6737 154.971C43.4118 155.486 42.7746 155.678 42.2683 155.408C41.7795 155.146 41.5787 154.544 41.8318 154.037C42.0763 153.522 42.7048 153.304 43.2198 153.566Z" fill="#FF94FF"/>
<path opacity="0.45" d="M49.1818 156.438C49.6706 156.682 49.8801 157.337 49.627 157.817C49.3738 158.306 48.7191 158.507 48.239 158.245C47.7764 157.992 47.5756 157.372 47.8026 156.9C48.0557 156.403 48.7017 156.185 49.1818 156.438Z" fill="#FF94FF"/>
<path opacity="0.45" d="M48.6845 50.2469C49.7058 49.505 50.6486 48.8066 51.6437 48.0734C51.7834 48.9026 51.539 49.5224 50.9541 50.0025C50.3081 50.5525 49.5662 50.6136 48.6845 50.2469Z" fill="#FF94FF"/>
<path opacity="0.45" d="M10.1186 115.943C10.6162 116.17 10.8257 116.755 10.5987 117.244C10.3718 117.741 9.78691 117.951 9.29807 117.724C8.80051 117.497 8.59101 116.912 8.81797 116.423C9.04493 115.934 9.62106 115.716 10.1186 115.943Z" fill="#FF94FF"/>
<path opacity="0.45" d="M7.23797 93.7795C6.99355 94.2684 6.4087 94.4691 5.91986 94.2247C5.43102 93.9803 5.23025 93.3954 5.47467 92.9066C5.71909 92.4178 6.30395 92.217 6.79278 92.4614C7.27289 92.7058 7.47366 93.2994 7.23797 93.7795Z" fill="#FF94FF"/>
<path opacity="0.45" d="M37.7641 152.099C37.5372 152.597 36.9523 152.806 36.4635 152.579C35.9659 152.353 35.7564 151.768 35.9834 151.279C36.2103 150.781 36.7952 150.572 37.284 150.799C37.7729 151.026 37.9911 151.602 37.7641 152.099Z" fill="#FF94FF"/>
<path opacity="0.45" d="M111.316 150.729C111.089 151.226 110.504 151.436 110.016 151.209C109.518 150.982 109.309 150.397 109.535 149.908C109.762 149.411 110.347 149.201 110.836 149.428C111.325 149.655 111.543 150.24 111.316 150.729Z" fill="#FF94FF"/>
<path opacity="0.45" d="M123.607 46.2141C124.096 46.441 124.297 46.9822 124.079 47.4711C123.852 47.9599 123.311 48.1607 122.822 47.9424C122.333 47.7155 122.132 47.1743 122.35 46.6854C122.577 46.1879 123.119 45.9871 123.607 46.2141Z" fill="#FF94FF"/>
<path opacity="0.45" d="M55.1265 159.362C55.5717 159.589 55.7638 160.148 55.5455 160.602C55.3186 161.073 54.725 161.256 54.2711 161.012C53.8346 160.776 53.66 160.209 53.887 159.764C54.1139 159.318 54.6726 159.144 55.1265 159.362Z" fill="#FF94FF"/>
<path opacity="0.45" d="M13.6713 126.06C13.4618 126.514 12.9032 126.715 12.4493 126.514C11.9779 126.296 11.7684 125.711 12.0041 125.248C12.231 124.803 12.7897 124.611 13.2436 124.829C13.6888 125.048 13.8896 125.606 13.6713 126.06Z" fill="#FF94FF"/>
<path opacity="0.45" d="M122.429 140.463C122.883 140.664 123.101 141.214 122.909 141.677C122.708 142.157 122.123 142.375 121.652 142.148C121.198 141.93 120.997 141.38 121.207 140.917C121.416 140.463 121.975 140.263 122.429 140.463Z" fill="#FF94FF"/>
<path opacity="0.45" d="M141.214 85.801C140.76 85.5915 140.542 85.0416 140.743 84.5877C140.952 84.1076 141.528 83.8981 142 84.125C142.454 84.3432 142.646 84.9019 142.436 85.3558C142.227 85.801 141.668 86.0105 141.214 85.801Z" fill="#FF94FF"/>
<path opacity="0.45" d="M133.113 59.0023C132.904 59.4563 132.345 59.6657 131.891 59.4562C131.411 59.2467 131.21 58.6619 131.437 58.1905C131.664 57.7453 132.223 57.5533 132.668 57.7715C133.122 57.9985 133.323 58.5484 133.113 59.0023Z" fill="#FF94FF"/>
<path opacity="0.45" d="M141.528 100.484C141.083 100.274 140.891 99.6804 141.118 99.2527C141.336 98.8337 141.895 98.6504 142.314 98.8512C142.759 99.0607 142.951 99.6543 142.724 100.082C142.506 100.501 141.947 100.684 141.528 100.484Z" fill="#FF94FF"/>
<path opacity="0.45" d="M6.14699 108.925C5.7018 108.715 5.50103 108.13 5.72799 107.694C5.94622 107.275 6.49616 107.083 6.92389 107.284C7.36908 107.493 7.56985 108.078 7.34289 108.514C7.12466 108.933 6.57472 109.125 6.14699 108.925Z" fill="#FF94FF"/>
<path opacity="0.45" d="M12.5105 67.1642C12.301 67.6093 11.7161 67.8101 11.2884 67.5919C10.8694 67.3824 10.6773 66.8237 10.8781 66.396C11.0876 65.9508 11.6725 65.75 12.1002 65.9682C12.5192 66.1865 12.7112 66.7364 12.5105 67.1642Z" fill="#FF94FF"/>
<path opacity="0.45" d="M74.5492 162.391C74.7849 161.955 75.3785 161.789 75.7975 162.033C76.2078 162.278 76.3736 162.836 76.1554 163.247C75.9197 163.683 75.3261 163.849 74.9071 163.604C74.4881 163.36 74.3223 162.801 74.5492 162.391Z" fill="#FF94FF"/>
<path opacity="0.45" d="M31.6626 149.219C31.4531 149.646 30.9642 149.821 30.5278 149.612C30.0739 149.393 29.908 148.878 30.135 148.433C30.3532 148.014 30.8508 147.857 31.2872 148.075C31.715 148.293 31.8808 148.782 31.6626 149.219Z" fill="#FF94FF"/>
<path opacity="0.45" d="M8.46032 73.4928C8.04132 73.2746 7.88419 72.7683 8.11115 72.3493C8.32938 71.9478 8.80949 71.8081 9.21976 72.0089C9.63877 72.2271 9.79589 72.7334 9.56893 73.1524C9.3507 73.5539 8.8706 73.7023 8.46032 73.4928Z" fill="#FF94FF"/>
<path opacity="0.45" d="M61.3067 163.369C61.1059 163.762 60.5735 163.927 60.1981 163.709C59.8315 163.508 59.6743 163.002 59.8664 162.635C60.0672 162.243 60.5996 162.077 60.975 162.295C61.3416 162.496 61.4987 162.993 61.3067 163.369Z" fill="#FF94FF"/>
<path opacity="0.45" d="M101.915 30.4229C101.531 30.2309 101.383 29.8032 101.566 29.4191C101.758 29.0175 102.221 28.8604 102.613 29.0786C102.989 29.2794 103.12 29.7159 102.928 30.0999C102.736 30.4666 102.299 30.615 101.915 30.4229Z" fill="#FF94FF"/>
<path opacity="0.45" d="M16.5434 134.781C16.3514 135.165 15.9236 135.313 15.5396 135.13C15.138 134.938 14.9809 134.484 15.1904 134.082C15.3912 133.707 15.8276 133.567 16.2117 133.768C16.5958 133.969 16.7355 134.397 16.5434 134.781Z" fill="#FF94FF"/>
<path opacity="0.45" d="M99.5408 159.676C99.375 160.043 98.956 160.2 98.5893 160.034C98.2053 159.86 98.0481 159.414 98.2314 159.039C98.4148 158.681 98.8338 158.542 99.2004 158.716C99.5583 158.891 99.7067 159.318 99.5408 159.676Z" fill="#FF94FF"/>
<path opacity="0.45" d="M6.67929 78.966C6.49598 79.3239 6.07698 79.4723 5.71035 79.2977C5.33499 79.1144 5.1866 78.6605 5.38737 78.2939C5.57941 77.9447 6.00714 77.8138 6.36504 77.9971C6.72294 78.1804 6.86261 78.6081 6.67929 78.966Z" fill="#FF94FF"/>
<path opacity="0.45" d="M107.93 33.2512C107.563 33.0853 107.397 32.6663 107.554 32.2997C107.72 31.9156 108.165 31.7497 108.541 31.933C108.899 32.1076 109.047 32.5354 108.881 32.8933C108.715 33.2599 108.296 33.417 107.93 33.2512Z" fill="#FF94FF"/>
<path opacity="0.45" d="M89.7464 163.124C89.4147 162.959 89.2663 162.531 89.4235 162.199C89.5893 161.85 90.052 161.693 90.3924 161.876C90.7154 162.051 90.855 162.487 90.6892 162.81C90.5146 163.142 90.0782 163.29 89.7464 163.124Z" fill="#FF94FF"/>
<path opacity="0.45" d="M119.88 147.499C119.723 147.831 119.286 147.988 118.955 147.831C118.605 147.674 118.448 147.202 118.632 146.871C118.806 146.548 119.243 146.408 119.566 146.574C119.889 146.731 120.037 147.167 119.88 147.499Z" fill="#FF94FF"/>
<path opacity="0.45" d="M4.13936 99.6194C3.98223 99.9511 3.5545 100.117 3.22279 99.9685C2.87362 99.8114 2.70777 99.3487 2.88235 99.0083C3.04821 98.6853 3.48467 98.5369 3.81638 98.6941C4.13936 98.8512 4.29648 99.2876 4.13936 99.6194Z" fill="#FF94FF"/>
<path opacity="0.45" d="M129.831 50.2207C129.683 50.5524 129.255 50.7183 128.914 50.5699C128.565 50.4215 128.399 49.9501 128.574 49.6097C128.74 49.2867 129.176 49.1383 129.499 49.2954C129.822 49.4526 129.979 49.8803 129.831 50.2207Z" fill="#FF94FF"/>
<path opacity="0.45" d="M24.6352 146.626C24.3035 146.478 24.1289 146.05 24.2686 145.71C24.417 145.36 24.8796 145.186 25.2201 145.352C25.5518 145.509 25.7002 145.945 25.5518 146.277C25.3947 146.617 24.9669 146.775 24.6352 146.626Z" fill="#FF94FF"/>
<path opacity="0.45" d="M137.006 126.54C136.814 126.942 136.5 127.081 136.142 126.916C135.81 126.758 135.653 126.331 135.802 125.99C135.95 125.659 136.387 125.493 136.718 125.641C137.085 125.798 137.19 126.147 137.006 126.54Z" fill="#FF94FF"/>
<path opacity="0.45" d="M60.8091 41.0289C61.586 40.4615 62.2669 39.9552 62.9739 39.4315C62.9914 40.479 62.0486 41.2122 60.8091 41.0289Z" fill="#FF94FF"/>
<path opacity="0.45" d="M114.476 34.8573C114.817 35.0145 114.948 35.3811 114.791 35.7215C114.625 36.062 114.249 36.1929 113.918 36.0183C113.577 35.835 113.472 35.5469 113.621 35.1891C113.761 34.8399 114.136 34.7002 114.476 34.8573Z" fill="#FF94FF"/>
<path opacity="0.45" d="M107.834 155.731C108.148 155.931 108.288 156.22 108.113 156.56C107.938 156.9 107.624 157.005 107.292 156.831C106.978 156.673 106.873 156.368 107.022 156.045C107.179 155.696 107.476 155.626 107.834 155.731Z" fill="#FF94FF"/>
<path opacity="0.45" d="M139.712 119.775C139.616 120.089 139.529 120.412 139.433 120.727C139.328 121.058 139.11 121.05 138.883 120.866C138.578 120.622 138.508 120.299 138.691 119.95C138.883 119.592 139.258 119.539 139.712 119.775Z" fill="#FF94FF"/>
<path opacity="0.45" d="M133.977 132.398C133.82 132.633 133.707 133 133.305 132.79C132.991 132.624 132.886 132.319 133.043 131.996C133.209 131.647 133.515 131.551 133.864 131.708C134.213 131.865 134.178 132.118 133.977 132.398Z" fill="#FF94FF"/>
<path opacity="0.45" d="M80.8516 166.153C80.808 165.9 80.677 165.63 80.7381 165.403C80.8342 165.054 81.1571 164.966 81.4801 165.132C81.7856 165.289 81.8991 165.586 81.7071 165.857C81.5674 166.049 81.2793 166.127 81.0611 166.249C81 166.223 80.9214 166.188 80.8516 166.153Z" fill="#FF94FF"/>
<path opacity="0.45" d="M3.72026 84.9717C3.46711 85.0241 3.19651 85.1638 2.97828 85.1114C2.62911 85.0241 2.53308 84.7011 2.69021 84.3694C2.83861 84.0639 3.1354 83.933 3.406 84.125C3.59805 84.2559 3.68534 84.544 3.81628 84.7622C3.79009 84.8321 3.75517 84.9019 3.72026 84.9717Z" fill="#FF94FF"/>
<path opacity="0.45" d="M67.0855 166.232C66.8324 166.276 66.553 166.398 66.3348 166.337C65.9856 166.232 65.9071 165.909 66.0729 165.586C66.23 165.28 66.5356 165.176 66.7974 165.368C66.9808 165.507 67.0593 165.795 67.1815 166.022C67.1553 166.092 67.1204 166.162 67.0855 166.232Z" fill="#FF94FF"/>
<path opacity="0.45" d="M97.1316 27.0098C96.992 27.5073 96.7301 27.7343 96.3198 27.6907C95.9096 27.647 95.6389 27.4113 95.6215 26.905C96.1191 26.9399 96.5904 26.9749 97.1316 27.0098Z" fill="#FF94FF"/>
<path opacity="0.45" d="M6.50483 123.31C6.46118 123.075 6.32151 122.769 6.41753 122.612C6.52229 122.446 6.88018 122.333 7.07223 122.385C7.20316 122.42 7.36029 122.83 7.29918 122.996C7.22935 123.179 6.92383 123.276 6.72306 123.406C6.65322 123.38 6.58339 123.345 6.50483 123.31Z" fill="#FF94FF"/>
<path opacity="0.45" d="M119.731 38.7331C119.696 38.4974 119.565 38.2093 119.661 38.0348C119.74 37.8776 120.15 37.7205 120.264 37.7991C120.438 37.9126 120.587 38.253 120.534 38.445C120.491 38.6196 120.159 38.7069 119.958 38.8379C119.871 38.8029 119.801 38.768 119.731 38.7331Z" fill="#FF94FF"/>
<path opacity="0.45" d="M4.32264 114.284C3.94729 114.337 3.68541 114.459 3.55447 114.372C3.41481 114.284 3.30132 113.944 3.36243 113.813C3.43226 113.682 3.76397 113.569 3.9211 113.621C4.06949 113.665 4.1306 113.953 4.32264 114.284Z" fill="#FF94FF"/>
<path opacity="0.45" d="M18.7258 143.763C18.6821 143.388 18.5686 143.117 18.6647 142.986C18.7607 142.846 19.1011 142.742 19.2321 142.811C19.363 142.881 19.4677 143.222 19.4066 143.379C19.3455 143.527 19.0575 143.588 18.7258 143.763Z" fill="#FF94FF"/>
<path opacity="0.45" d="M10.5027 131.874C10.1885 131.935 9.94407 132.066 9.84805 131.987C9.71711 131.891 9.69966 131.638 9.62982 131.455C9.80441 131.394 10.0139 131.254 10.1536 131.306C10.2758 131.35 10.3369 131.594 10.5027 131.874Z" fill="#FF94FF"/>
<path opacity="0.45" d="M0.158703 91.0211C0.0888692 90.7155 -0.0508013 90.4711 0.0190323 90.3664C0.115054 90.2354 0.368201 90.2092 0.551515 90.1307C0.612619 90.3053 0.761018 90.506 0.717372 90.6457C0.673726 90.7854 0.429308 90.8552 0.158703 91.0211Z" fill="#FF94FF"/>
<path opacity="0.45" d="M1.05773 105.52C0.78712 105.546 0.595076 105.625 0.507784 105.555C0.411763 105.485 0.376846 105.258 0.411762 105.136C0.429221 105.066 0.699827 104.988 0.787119 105.04C0.891869 105.093 0.926787 105.285 1.05773 105.52Z" fill="#FF94FF"/>
</g>
<path opacity="0.3" d="M95.019 19.4066C82.126 22.7063 71.6335 33.0853 60.0498 39.2918C48.9725 45.2276 35.3374 43.8833 24.6791 50.6921C14.5357 57.1692 10.4068 68.8139 13.043 80.4238C15.0944 89.4498 20.5065 97.341 26.5209 104.377C40.0338 120.168 58.0421 133.157 78.6256 136.046C105.442 139.817 129.91 122.778 139.564 98.2052C146.294 81.0785 145.325 61.3941 137.757 44.9221C131.088 30.3967 117.401 17.4949 101.313 18.4115C99.148 18.5424 97.0529 18.8916 95.019 19.4066Z" fill="url(#paint0_linear)"/>
<path opacity="0.3" d="M78.1368 18.8218C69.0846 27.2542 65.1564 40.383 58.4698 50.6049C52.0801 60.3728 40.3655 65.3485 34.7002 75.649C29.3143 85.4519 31.13 96.7824 38.445 105.066C44.1365 111.509 52.0626 115.541 60.1022 118.597C78.1455 125.458 98.6155 128.033 116.685 121.233C140.236 112.373 152.597 87.5905 149.542 63.2535C147.412 46.2926 137.853 30.6673 124.349 20.6113C112.443 11.7424 95.5428 7.30799 82.8331 15.2167C81.1221 16.2816 79.5683 17.495 78.1368 18.8218Z" fill="url(#paint1_linear)"/>
<path opacity="0.3" d="M31.3395 32.2299C24.1292 24.4783 24.5656 12.3447 32.3172 5.13439C40.0687 -2.07594 52.2023 -1.63948 59.4126 6.11206C66.623 13.8636 66.719 30.0214 60.6871 35.6255C54.6552 41.2297 38.5498 39.9814 31.3395 32.2299Z" fill="url(#paint2_linear)"/>
<path d="M31.5927 53.7124C35.0783 53.7124 37.9039 50.8868 37.9039 47.4012C37.9039 43.9156 35.0783 41.09 31.5927 41.09C28.1071 41.09 25.2815 43.9156 25.2815 47.4012C25.2815 50.8868 28.1071 53.7124 31.5927 53.7124Z" fill="url(#paint3_linear)"/>
<path d="M141.013 118.998C141.013 121.634 138.874 123.773 136.238 123.773C133.602 123.773 131.463 121.634 131.463 118.998C131.463 116.362 133.602 114.223 136.238 114.223C138.874 114.223 141.013 116.362 141.013 118.998Z" fill="url(#paint4_linear)"/>
<path d="M75.0031 133.244C102.656 133.244 125.074 110.827 125.074 83.1735C125.074 55.5202 102.656 33.1028 75.0031 33.1028C47.3498 33.1028 24.9324 55.5202 24.9324 83.1735C24.9324 110.827 47.3498 133.244 75.0031 133.244Z" fill="white"/>
<defs>
<linearGradient id="paint0_linear" x1="42.0133" y1="32.3863" x2="127.539" y2="117.679" gradientUnits="userSpaceOnUse">
<stop offset="0.00243405" stop-color="#DF34FF"/>
<stop offset="1" stop-color="#A36BFF"/>
</linearGradient>
<linearGradient id="paint1_linear" x1="58.2991" y1="39.3217" x2="132.92" y2="111.305" gradientUnits="userSpaceOnUse">
<stop stop-color="#D803FF"/>
<stop offset="1" stop-color="#7814FF"/>
</linearGradient>
<linearGradient id="paint2_linear" x1="31.8161" y1="5.61037" x2="61.2587" y2="35.0557" gradientUnits="userSpaceOnUse">
<stop stop-color="#D803FF"/>
<stop offset="1" stop-color="#7814FF"/>
</linearGradient>
<linearGradient id="paint3_linear" x1="27.125" y1="42.9384" x2="36.0538" y2="51.8673" gradientUnits="userSpaceOnUse">
<stop stop-color="#D803FF"/>
<stop offset="1" stop-color="#7814FF"/>
</linearGradient>
<linearGradient id="paint4_linear" x1="132.853" y1="115.619" x2="139.61" y2="122.376" gradientUnits="userSpaceOnUse">
<stop stop-color="#D803FF"/>
<stop offset="1" stop-color="#7814FF"/>
</linearGradient>
</defs>
</svg>
