<svg width="77" height="25" viewBox="0 0 77 25" fill="none" xmlns="http://www.w3.org/2000/svg">
<path d="M0.288 19L8.256 0.639999H8.448L16.416 19H12.384L11.016 15.544H5.16L3.72 19H0.288ZM6.384 12.616H9.864L8.16 8.32L6.384 12.616ZM23.5114 24.28C22.5674 24.28 21.7674 24.168 21.1114 23.944C20.4714 23.72 19.9274 23.448 19.4794 23.128C19.0314 22.808 18.6314 22.504 18.2794 22.216L20.2474 19.912C20.6154 20.248 21.0394 20.568 21.5194 20.872C22.0154 21.192 22.6634 21.352 23.4634 21.352C24.2634 21.352 24.9594 21.144 25.5514 20.728C26.1594 20.328 26.4634 19.736 26.4634 18.952V17.464C26.1594 17.96 25.6874 18.392 25.0474 18.76C24.4074 19.112 23.5754 19.288 22.5514 19.288C21.6074 19.288 20.7274 19.048 19.9114 18.568C19.1114 18.072 18.4714 17.408 17.9914 16.576C17.5114 15.728 17.2714 14.768 17.2714 13.696C17.2714 12.592 17.5274 11.616 18.0394 10.768C18.5514 9.904 19.2154 9.224 20.0314 8.728C20.8474 8.232 21.7114 7.984 22.6234 7.984C23.5354 7.984 24.3194 8.12 24.9754 8.392C25.6474 8.648 26.1434 8.96 26.4634 9.328L26.7274 8.512H29.8234V19C29.8234 20.024 29.5354 20.928 28.9594 21.712C28.3834 22.512 27.6154 23.136 26.6554 23.584C25.7114 24.048 24.6634 24.28 23.5114 24.28ZM20.6554 13.6C20.6554 14.432 20.9354 15.136 21.4954 15.712C22.0554 16.272 22.7434 16.552 23.5594 16.552C24.9034 16.552 25.8714 16.024 26.4634 14.968V12.4C26.2394 11.888 25.8714 11.48 25.3594 11.176C24.8474 10.872 24.2474 10.72 23.5594 10.72C22.7434 10.72 22.0554 10.992 21.4954 11.536C20.9354 12.064 20.6554 12.752 20.6554 13.6ZM33.2749 8.512H36.6349V19H33.2749V8.512ZM33.2029 4.792C33.2029 4.296 33.3949 3.888 33.7789 3.568C34.1789 3.248 34.6029 3.088 35.0509 3.088C35.4989 3.088 35.9069 3.248 36.2749 3.568C36.6589 3.888 36.8509 4.296 36.8509 4.792C36.8509 5.288 36.6589 5.696 36.2749 6.016C35.9069 6.32 35.4989 6.472 35.0509 6.472C34.6029 6.472 34.1789 6.32 33.7789 6.016C33.3949 5.696 33.2029 5.288 33.2029 4.792ZM43.1432 8.512L43.3832 10.192C43.7512 9.536 44.2712 9.008 44.9432 8.608C45.6152 8.208 46.4312 8.008 47.3912 8.008C48.3832 8.008 49.2072 8.304 49.8632 8.896C50.5352 9.472 50.8792 10.224 50.8952 11.152V19H47.5352V12.4C47.5192 11.936 47.3912 11.568 47.1512 11.296C46.9272 11.008 46.5432 10.864 45.9992 10.864C45.2152 10.864 44.5912 11.232 44.1272 11.968C43.6792 12.688 43.4552 13.608 43.4552 14.728V19H40.0952V8.512H43.1432ZM63.2492 18.064C62.7852 18.432 62.2012 18.728 61.4972 18.952C60.8092 19.176 60.1292 19.288 59.4572 19.288C57.6652 19.288 56.2252 18.8 55.1372 17.824C54.0652 16.848 53.5292 15.488 53.5292 13.744C53.5292 12.576 53.7932 11.584 54.3212 10.768C54.8492 9.936 55.5372 9.304 56.3852 8.872C57.2492 8.44 58.1532 8.224 59.0972 8.224C60.0412 8.224 60.8572 8.352 61.5452 8.608C62.2492 8.864 62.8492 9.2 63.3452 9.616L61.7132 11.776C61.4892 11.6 61.1772 11.424 60.7772 11.248C60.3932 11.056 59.9372 10.96 59.4092 10.96C58.7212 10.96 58.1292 11.224 57.6332 11.752C57.1372 12.264 56.8892 12.928 56.8892 13.744C56.8892 14.528 57.1452 15.192 57.6572 15.736C58.1852 16.28 58.8812 16.552 59.7452 16.552C60.4812 16.552 61.0892 16.352 61.5692 15.952L63.2492 18.064ZM70.9896 19.288C69.7096 19.288 68.6216 19.048 67.7256 18.568C66.8456 18.088 66.1736 17.424 65.7096 16.576C65.2456 15.728 65.0136 14.752 65.0136 13.648C65.0136 12.592 65.2856 11.64 65.8296 10.792C66.3736 9.944 67.1016 9.272 68.0136 8.776C68.9256 8.264 69.9416 8.008 71.0616 8.008C72.5656 8.008 73.7976 8.448 74.7576 9.328C75.7336 10.192 76.3656 11.448 76.6536 13.096L68.9736 15.544C69.4856 16.136 70.1816 16.432 71.0616 16.432C71.4296 16.432 71.7816 16.368 72.1176 16.24C72.4696 16.112 72.8136 15.944 73.1496 15.736L74.6376 18.232C74.0776 18.552 73.4696 18.808 72.8136 19C72.1736 19.192 71.5656 19.288 70.9896 19.288ZM68.3256 13.456C68.3256 13.536 68.3256 13.608 68.3256 13.672L72.9336 12.112C72.7896 11.712 72.5576 11.368 72.2376 11.08C71.9176 10.776 71.4376 10.624 70.7976 10.624C70.0456 10.624 69.4456 10.88 68.9976 11.392C68.5496 11.904 68.3256 12.592 68.3256 13.456Z" fill="#161859"/>
</svg>
