<svg width="485" height="428" viewBox="0 0 485 428" fill="none" xmlns="http://www.w3.org/2000/svg">
<path d="M237.469 398.24C341.578 398.24 425.974 313.843 425.974 209.735C425.974 105.627 341.578 21.2301 237.469 21.2301C133.361 21.2301 48.9647 105.627 48.9647 209.735C48.9647 313.843 133.361 398.24 237.469 398.24Z" fill="#E2DAFC" fill-opacity="0.5"/>
<path d="M466.217 227.215C452.478 201.383 450.081 170.914 459.67 142.829C465.875 124.638 466.85 96.5398 461.725 77.9001C445.259 17.9895 369.107 -17.6959 295.667 8.96609C228.34 33.4151 211.861 134.293 160.157 123.32C38.5711 97.5278 -5.22893 184.193 1.18629 254.747C5.33577 300.325 43.5505 356.692 125.196 350.764C149.237 349.026 172.843 354.927 193.182 366.69C227.919 386.779 283.14 391.495 340.508 375.727C426.791 352.016 485.239 290.946 471.052 239.348C469.879 235.119 468.259 231.062 466.217 227.215Z" fill="#E2DAFC" fill-opacity="0.5"/>
<path d="M361.348 27.9613C361.453 26.1171 364.641 22.3628 364.153 21.9018C363.798 21.5593 362.56 22.7185 361.888 23.4035C361.809 23.4825 361.69 23.5089 361.585 23.4694C361.479 23.4298 361.413 23.3376 361.4 23.2191C361.255 21.4144 360.808 16.3428 360.294 16.3033C359.78 16.2506 359.53 19.4648 359.451 20.5318C359.451 20.5581 359.424 20.5845 359.385 20.5977C359.359 20.5977 359.319 20.5845 359.306 20.5581C358.911 19.4253 357.58 15.75 357.014 16.2242C356.474 16.6721 357.317 20.1893 357.659 21.5461C357.672 21.5856 357.646 21.612 357.62 21.6251C357.593 21.6383 357.554 21.6251 357.541 21.5988C356.856 20.3869 355.051 17.3176 354.564 17.6996C354.063 18.0948 355.472 21.4276 355.986 22.6131C355.999 22.6395 355.986 22.679 355.96 22.6922C355.934 22.7053 355.894 22.7053 355.868 22.679C355.09 21.7964 353.036 19.5438 353.049 20.2025C353.062 21.0192 356.658 27.8296 357.844 28.9756C359.042 30.1085 361.348 27.9613 361.348 27.9613Z" fill="#FA968C"/>
<path d="M393.674 50.7505C391.237 56.1646 387.72 62.3032 383.478 66.5185C375.219 74.6989 364.601 72.5649 360.9 53.4378C360.254 50.5529 359.806 47.6812 359.424 44.8227C358.66 39.1056 358.357 33.3886 358.094 27.711C358.054 26.8548 358.726 26.1171 359.582 26.0776C360.359 26.0381 361.031 26.5782 361.189 27.329V27.3554C362.309 32.8748 363.442 38.3943 364.878 43.7557C365.615 46.4298 366.393 49.0775 367.288 51.6331C368.066 54.0569 371.188 61.5655 373.625 62.3032C373.704 62.29 373.783 62.3954 373.835 62.3427C373.875 62.3032 373.901 62.3032 373.928 62.3163C373.967 62.2505 374.007 62.2241 374.046 62.2373C374.178 62.1319 374.336 62.1056 374.626 61.8817C375.153 61.5392 375.877 60.8542 376.562 59.9979C377.972 58.325 379.289 56.1119 380.435 53.833C382.437 49.947 383.596 47.1543 383.596 47.1543C386.06 40.3966 396.295 43.624 393.819 50.408C393.779 50.5002 393.726 50.6319 393.674 50.7505Z" fill="#FA968C"/>
<path d="M377.287 58.0351C377.3 58.0219 377.3 58.0087 377.313 57.9956C378.564 56.1645 379.724 54.2676 380.791 52.3049C381.845 50.3948 382.925 48.2739 383.676 46.4692L383.715 46.377C383.781 46.2321 383.847 46.0872 383.913 45.9555C385.309 43.2946 388.615 42.2671 391.276 43.6766C393.937 45.0729 394.965 48.3793 393.555 51.0403C392.238 53.5431 390.96 55.5849 389.511 57.7321C388.523 59.1548 387.483 60.5248 386.402 61.8816C385.599 61.0122 379.197 58.7201 377.287 58.0351Z" fill="#F1BA4B"/>
<path d="M382.622 95.894C387.364 101.334 414.751 103.613 414.751 103.613C416.766 101.269 413.815 90.6117 413.104 79.7835C412.34 68.0859 411.892 55.1633 411.681 48.1948C411.602 45.3099 409.244 43.031 406.359 43.031H388.984C386.31 43.031 384.071 45.0728 383.86 47.7469C383.399 53.2664 382.609 62.8694 381.831 72.2881C381.028 81.8385 378.525 91.1913 382.622 95.894Z" fill="#FAB9AF"/>
<path d="M398.416 186.866L398.377 197.642L399.312 202.885C399.47 203.794 398.798 204.637 397.876 204.663C393.463 204.795 382.174 205.098 381.871 204.61C380.448 202.318 386.864 201.436 391.566 199.618C396.256 197.8 393.015 179.977 393.015 179.977L398.416 186.866Z" fill="#FA968C"/>
<path d="M391.566 199.605C391.593 199.592 391.619 199.578 391.632 199.565C392.752 199.987 394.003 200.224 395.426 200.224C396.638 200.224 397.744 200.053 398.745 199.736L399.299 202.872C399.457 203.781 398.785 204.624 397.863 204.65C393.45 204.782 382.161 205.085 381.858 204.597C380.461 202.305 386.877 201.423 391.566 199.605Z" fill="#F57A2F"/>
<path d="M382.622 99.8196C382.451 107.302 385.402 154.79 391.211 154.922C397.02 155.054 403.514 107.776 403.686 100.294C403.857 92.8116 399.273 86.6335 393.463 86.5017C387.654 86.3832 382.793 92.3374 382.622 99.8196Z" fill="#0091C8"/>
<path d="M399.246 145.069C399.826 149.192 399.918 175.59 398.996 189H393.7C390.855 175.986 387.825 150.773 387.259 146.755C387.245 146.702 387.245 146.649 387.245 146.597C384.084 132.607 382.516 105.352 382.635 99.8328C382.806 92.3506 387.654 86.3832 393.476 86.515C399.285 86.6467 403.87 92.8248 403.698 100.307C403.58 104.997 398.982 143.119 399.246 145.069Z" fill="#FF965A"/>
<path d="M398.377 166C398.509 163.142 398.179 160.349 397.481 157.675C395.4 149.758 395.347 141.499 396.177 133.345C396.243 132.66 396.296 131.975 396.335 131.277C396.809 120.607 391.079 110.924 382.727 104.812C382.635 102.56 382.609 100.821 382.622 99.8064C382.793 92.3242 387.641 86.3569 393.463 86.4886C399.273 86.6203 403.857 92.7984 403.686 100.281C403.58 104.983 398.97 143.093 399.246 145.042C399.826 149.165 399.918 175.564 398.996 188.974H393.701C393.371 187.446 393.029 185.734 392.699 183.929C396.045 178.739 398.087 172.561 398.377 166Z" fill="#F07D4B"/>
<path d="M411.128 186.866L411.088 197.642L412.024 202.885C412.182 203.794 411.51 204.637 410.588 204.663C406.175 204.795 394.886 205.098 394.583 204.61C393.16 202.318 399.575 201.436 404.278 199.618C408.968 197.8 405.727 179.977 405.727 179.977L411.128 186.866Z" fill="#FA968C"/>
<path d="M404.278 199.605C404.305 199.592 404.331 199.578 404.344 199.565C405.464 199.987 406.715 200.224 408.138 200.224C409.35 200.224 410.457 200.053 411.458 199.736L412.011 202.872C412.169 203.781 411.497 204.624 410.575 204.65C406.162 204.782 394.873 205.085 394.57 204.597C393.16 202.305 399.589 201.423 404.278 199.605Z" fill="#FF8C46"/>
<path d="M395.334 99.8196C395.163 107.302 398.113 154.79 403.923 154.922C409.732 155.054 414.962 107.605 415.133 100.123C415.304 92.6403 411.984 86.6335 406.175 86.5017C400.353 86.3832 395.505 92.3374 395.334 99.8196Z" fill="#0091C8"/>
<path d="M411.958 145.069C412.538 149.192 412.63 175.59 411.708 189H406.412C403.567 175.986 400.537 150.773 399.971 146.755C399.958 146.702 399.958 146.649 399.958 146.597C396.796 132.607 393.964 105.168 394.096 99.6484C394.267 92.1662 400.379 86.3701 406.188 86.5018C411.998 86.6336 415.317 92.6404 415.146 100.123C415.027 104.825 411.681 143.119 411.958 145.069Z" fill="#FFBE82"/>
<path d="M388.827 43.031H391.646C392.634 45.3099 394.715 47.0619 397.942 47.0619C401.17 47.0619 403.251 45.3099 404.239 43.031H406.821C409.455 43.031 411.616 45.1123 411.682 47.7469C411.879 54.61 412.327 67.8357 413.117 79.7835C413.829 90.5985 416.78 100.663 414.764 103.613C414.764 103.613 387.378 101.348 382.635 95.894C378.539 91.1913 381.041 81.8385 381.845 72.2749C382.635 62.7641 383.439 53.0688 383.887 47.5757C384.084 45.0069 386.232 43.031 388.827 43.031Z" fill="#FFC655"/>
<path d="M408.586 58.6146C408.836 53.0293 407.387 47.7074 404.766 43.031H406.808C409.442 43.031 411.603 45.1123 411.668 47.7469C411.866 54.61 412.314 67.8357 413.104 79.7835C413.816 90.5985 416.766 100.663 414.751 103.613C414.751 103.613 387.364 101.348 382.622 95.894C381.542 94.6558 380.936 93.0882 380.62 91.2835C396.52 88.7806 407.861 74.8568 408.586 58.6146Z" fill="#DCAB4A"/>
<path d="M398.68 36.708L399.009 36.7739C401.486 37.3272 403.949 35.7596 404.502 33.2831L405.978 26.6439L401.156 25.5769L398.68 36.708Z" fill="#41378C"/>
<path d="M394.385 43.031H403.461L400.84 33.9812L394.649 34.7452L394.385 43.031Z" fill="#FAB9AF"/>
<path d="M394.649 34.7452L400.84 33.9812L402.065 38.1965C400.682 39.7641 398.627 42.1879 396.375 42.1879C395.663 42.1879 395.005 41.9903 394.425 41.6083L394.649 34.7452Z" fill="#FA968C"/>
<path d="M393.714 39.5534C397.797 40.4624 401.841 37.8936 402.737 33.81L404.568 25.5769L391.896 22.7579C391.896 22.7579 390.473 29.1863 390.421 33.7178C390.407 37.1428 391.632 39.0924 393.714 39.5534Z" fill="#FAB9AF"/>
<path d="M401.913 29.4289L404.292 29.958L404.532 28.8778L402.153 28.3487L401.913 29.4289Z" fill="#41378C"/>
<path d="M400.946 31.7813C400.59 33.3884 401.064 34.8638 402.013 35.0746C402.961 35.2853 404.476 33.4148 404.832 31.8077C405.187 30.2006 404.252 29.4761 403.304 29.2653C402.355 29.0414 401.301 30.1742 400.946 31.7813Z" fill="#FAB9AF"/>
<path d="M390.275 25.959C390.209 24.8656 390.381 23.7723 390.789 22.758C391.803 20.2419 394.622 19.1617 397.178 20.0575C397.441 20.1497 397.718 20.2287 398.008 20.2946L402.289 21.2431C404.858 21.8095 406.478 24.365 405.912 26.9338L405.688 27.9349L403.158 29.4103L402.131 31.215L401.96 31.1755C401.143 30.991 400.616 30.2138 400.748 29.3971C400.958 28.0535 400.287 26.7362 398.956 26.4464L395.162 25.6033C392.857 25.0896 391.382 26.0644 390.987 27.79L390.776 29.2786L390.275 25.959Z" fill="#41378C"/>
<path d="M402.394 74.778L464.9 422.623" stroke="#5046AF" stroke-width="2.0668" stroke-miterlimit="10" stroke-linecap="round"/>
<path d="M412.933 422.623L350.414 74.778" stroke="#5046AF" stroke-width="2.0668" stroke-miterlimit="10" stroke-linecap="round"/>
<path d="M354.55 90.2694H405.359" stroke="#5046AF" stroke-width="2.0668" stroke-miterlimit="10" stroke-linecap="round"/>
<path d="M357.936 113.546H409.442" stroke="#5046AF" stroke-width="2.0668" stroke-miterlimit="10" stroke-linecap="round"/>
<path d="M362.625 136.823H413.684" stroke="#5046AF" stroke-width="2.0668" stroke-miterlimit="10" stroke-linecap="round"/>
<path d="M367.17 160.099H417.912" stroke="#5046AF" stroke-width="2.0668" stroke-miterlimit="10" stroke-linecap="round"/>
<path d="M369.923 183.376H421.258" stroke="#5046AF" stroke-width="2.0668" stroke-miterlimit="10" stroke-linecap="round"/>
<path d="M373.479 206.231H425.526" stroke="#5046AF" stroke-width="2.0668" stroke-miterlimit="10" stroke-linecap="round"/>
<path d="M378.697 229.929H429.952" stroke="#5046AF" stroke-width="2.0668" stroke-miterlimit="10" stroke-linecap="round"/>
<path d="M382.885 253.192H434.273" stroke="#5046AF" stroke-width="2.0668" stroke-miterlimit="10" stroke-linecap="round"/>
<path d="M387.022 275.191H438.409" stroke="#5046AF" stroke-width="2.0668" stroke-miterlimit="10" stroke-linecap="round"/>
<path d="M390.526 297.19H441.927" stroke="#5046AF" stroke-width="2.0668" stroke-miterlimit="10" stroke-linecap="round"/>
<path d="M394.57 319.189H445.971" stroke="#5046AF" stroke-width="2.0668" stroke-miterlimit="10" stroke-linecap="round"/>
<path d="M398.495 341.174H449.883" stroke="#5046AF" stroke-width="2.0668" stroke-miterlimit="10" stroke-linecap="round"/>
<path d="M402.315 363.173H453.716" stroke="#5046AF" stroke-width="2.0668" stroke-miterlimit="10" stroke-linecap="round"/>
<path d="M406.768 385.172H458.155" stroke="#5046AF" stroke-width="2.0668" stroke-miterlimit="10" stroke-linecap="round"/>
<path d="M350.414 74.778L287.369 423.413" stroke="#9F9FFF" stroke-width="2.0668" stroke-miterlimit="10" stroke-linecap="round"/>
<path d="M339.349 423.413L402.394 74.778" stroke="#9F9FFF" stroke-width="2.0668" stroke-miterlimit="10" stroke-linecap="round"/>
<path d="M398.245 90.2694H347.595" stroke="#9F9FFF" stroke-width="2.0668" stroke-miterlimit="10" stroke-linecap="round"/>
<path d="M394.873 113.546H343.353" stroke="#9F9FFF" stroke-width="2.0668" stroke-miterlimit="10" stroke-linecap="round"/>
<path d="M390.183 136.823H339.125" stroke="#9F9FFF" stroke-width="2.0668" stroke-miterlimit="10" stroke-linecap="round"/>
<path d="M385.638 160.099H334.883" stroke="#9F9FFF" stroke-width="2.0668" stroke-miterlimit="10" stroke-linecap="round"/>
<path d="M381.989 183.376H330.654" stroke="#9F9FFF" stroke-width="2.0668" stroke-miterlimit="10" stroke-linecap="round"/>
<path d="M378.539 206.231H326.492" stroke="#9F9FFF" stroke-width="2.0668" stroke-miterlimit="10" stroke-linecap="round"/>
<path d="M373.427 229.929H322.171" stroke="#9F9FFF" stroke-width="2.0668" stroke-miterlimit="10" stroke-linecap="round"/>
<path d="M369.923 253.192H318.522" stroke="#9F9FFF" stroke-width="2.0668" stroke-miterlimit="10" stroke-linecap="round"/>
<path d="M365.971 279.301H314.57" stroke="#9F9FFF" stroke-width="2.0668" stroke-miterlimit="10" stroke-linecap="round"/>
<path d="M359.991 305.41H308.59" stroke="#9F9FFF" stroke-width="2.0668" stroke-miterlimit="10" stroke-linecap="round"/>
<path d="M355.525 331.519H304.125" stroke="#9F9FFF" stroke-width="2.0668" stroke-miterlimit="10" stroke-linecap="round"/>
<path d="M351.31 357.641H299.922" stroke="#9F9FFF" stroke-width="2.0668" stroke-miterlimit="10" stroke-linecap="round"/>
<path d="M345.843 384H294.442" stroke="#9F9FFF" stroke-width="2.0668" stroke-miterlimit="10" stroke-linecap="round"/>
<path d="M403.066 22.9556C403.356 25.3004 394.925 28.2775 392.699 28.5541C390.473 28.8307 388.431 27.1446 388.141 24.7998C387.851 22.455 389.419 20.321 391.645 20.0575C393.872 19.7941 402.776 20.6108 403.066 22.9556Z" fill="#41378C"/>
<path d="M286.499 26.5254C283.799 26.9996 281.994 29.5815 282.481 32.282L287.066 58.2327L288.791 57.9297C290.385 54.5311 293.836 52.0677 298.091 52.1072C302.122 52.1468 305.837 54.7155 307.273 58.4698C309.631 64.5952 305.784 71.0104 299.659 72.0906C296.3 72.6834 293.046 71.5373 290.793 69.2979L289.068 69.6009L294.139 98.3047C294.614 101.005 297.196 102.81 299.896 102.322L325.847 97.7383L325.531 95.96C322.132 94.366 319.669 90.9147 319.708 86.6599C319.748 82.6289 322.316 78.9142 326.071 77.4783C332.196 75.1204 338.611 78.9669 339.691 85.0923C340.284 88.4514 339.138 91.7051 336.899 93.9577L337.215 95.736L365.919 90.6644C368.619 90.1902 370.424 87.6083 369.937 84.9079L358.265 18.8851C357.791 16.1846 355.209 14.3799 352.509 14.8673L286.499 26.5254Z" fill="#303D72"/>
<path d="M412.709 51.8965C409.916 55.7167 405.108 60.7224 399.365 65.0563C381.805 77.8604 363.008 79.1645 347.674 64.6611C347.042 64.0683 347.016 63.0803 347.608 62.448C348.122 61.908 348.913 61.8157 349.518 62.1714L349.584 62.2109C359.583 67.9807 368.527 70.3518 379.803 65.6095C394.583 59.247 405.056 43.9269 403.962 45.3891C405.78 42.9916 409.192 42.5174 411.589 44.3221C413.974 46.1268 414.461 49.4991 412.709 51.8965Z" fill="#FAB9AF"/>
<path d="M395.913 54.1886C399.575 50.9085 404.225 44.4406 404.225 44.4406C404.225 44.4406 406.425 41.8324 410.97 43.7293C414.593 45.2442 413.855 49.5254 413.855 49.5254C413.763 50.1182 412.551 57.1788 404.225 63.436C404.225 63.436 395.294 54.7418 395.913 54.1886Z" fill="#F1BA4B"/>
<path d="M350.638 62.8696C349.439 61.4732 349.123 56.5597 348.451 56.5597C347.964 56.5597 347.885 58.259 347.872 59.2075C347.872 59.3129 347.806 59.4182 347.7 59.4578C347.595 59.4973 347.476 59.4841 347.397 59.4051C346.04 58.2063 342.194 54.8736 341.799 55.1897C341.404 55.5059 343.445 57.9956 344.13 58.8123C344.157 58.8386 344.157 58.8782 344.13 58.9045C344.104 58.9308 344.078 58.944 344.051 58.9177C342.971 58.3776 339.467 56.6519 339.388 57.3896C339.309 58.0878 342.365 60.0374 343.551 60.7619C343.577 60.7751 343.59 60.8146 343.577 60.8541C343.564 60.8804 343.524 60.9068 343.498 60.8936C342.168 60.4984 338.73 59.55 338.65 60.1691C338.571 60.8014 341.891 62.2241 343.09 62.7115C343.116 62.7247 343.142 62.7642 343.129 62.7905C343.116 62.83 343.09 62.8432 343.063 62.8432C341.891 62.751 338.848 62.5534 339.309 63.0276C339.889 63.6072 347.213 66.0047 348.846 66.0047C350.48 66.0047 350.638 62.8696 350.638 62.8696Z" fill="#FAB9AF"/>
<path d="M412.314 145.951H64.9172V357.324H412.314V145.951Z" fill="#303D72"/>
<path d="M394.702 161.772H82.543V341.49H394.702V161.772Z" fill="white"/>
<path d="M182.855 206.995H102.868V321.599H182.855V206.995Z" stroke="#827DDC" stroke-width="0.9879" stroke-miterlimit="10"/>
<path d="M280.875 206.995H200.889V321.599H280.875V206.995Z" stroke="#827DDC" stroke-width="0.9879" stroke-miterlimit="10"/>
<path d="M378.908 206.995H298.922V321.599H378.908V206.995Z" stroke="#827DDC" stroke-width="0.9879" stroke-miterlimit="10"/>
<path d="M394.702 161.772H82.543V164.696H394.702V161.772Z" fill="#A5C8CD"/>
<path d="M34.2373 388.386C34.2373 388.386 27.1108 396.593 25.7935 397.897C24.7133 398.977 23.1853 399.372 21.7099 399.781C21.2357 399.912 20.6297 400.4 20.116 400.808C19.6944 401.138 19.51 401.638 19.5232 402.178C19.6944 411.412 27.7299 417.893 28.1646 417.353C28.9418 416.379 28.349 413.678 26.8078 411.887C25.2666 410.095 24.8846 407.553 25.5696 405.287C26.1228 403.482 27.124 401.849 28.4939 400.545L34.6984 394.735L34.2373 388.386Z" fill="#FA968C"/>
<path d="M18.1926 426.021H134.707C135.656 426.021 136.42 425.257 136.42 424.309C136.42 423.36 135.656 422.596 134.707 422.596H18.1926C17.2441 422.596 16.4801 423.36 16.4801 424.309C16.4801 425.257 17.2573 426.021 18.1926 426.021Z" fill="#B4D7DC"/>
<path d="M107.123 400.057L112.801 409.529C114.54 412.427 115.172 415.852 114.606 419.184C114.276 421.042 115.673 422.754 117.57 422.807C123.682 422.952 135.498 423.176 135.827 422.622C137.566 419.79 130.084 418.526 124.222 416.537C120.257 415.193 115.396 404.483 112.3 396.053L107.677 398.99C107.308 399.214 107.097 399.622 107.123 400.057Z" fill="#FA968C"/>
<path d="M124.09 419.804C126.593 419.804 129.161 419.224 131.519 418.763C131.796 418.71 132.073 418.723 132.336 418.816C135.076 419.79 136.736 421.121 135.814 422.623C135.445 423.229 121.548 422.912 116.12 422.767C114.987 422.741 114.158 421.7 114.342 420.594L114.698 418.552C117.767 419.343 120.915 419.804 124.09 419.804Z" fill="#823264"/>
<path d="M86.8239 293.027C80.5536 291.776 73.0582 296.913 71.4511 304.975C70.529 309.612 69.159 326.895 69.3435 340.99C69.4225 346.404 66.8143 351.607 62.1906 354.426C61.4397 354.887 60.7415 355.388 60.1487 355.941C57.0531 358.76 42.6683 376.807 33.6448 389.045C33.3682 390.955 33.6448 393.602 34.7118 394.867C46.2513 385.817 65.8394 368.785 69.1195 365.781C70.9506 364.108 72.9924 362.159 74.6521 360.235C81.7392 355.48 93.2523 319.189 94.7541 311.706C96.3875 303.618 93.0943 294.279 86.8239 293.027Z" fill="#B945CC"/>
<path d="M82.9116 253.271C88.2953 253.271 92.6596 247.639 92.6596 240.691C92.6596 233.743 88.2953 228.111 82.9116 228.111C77.5279 228.111 73.1636 233.743 73.1636 240.691C73.1636 247.639 77.5279 253.271 82.9116 253.271Z" fill="#323D5B"/>
<path d="M80.5801 241.982C80.4221 235.013 74.7841 229.165 67.8287 228.769C61.6638 228.414 56.3288 232.194 54.3397 237.595C53.6415 239.492 51.7841 240.717 49.7686 240.691C48.9256 240.678 48.0693 240.757 47.1868 240.941C42.0888 241.982 38.1369 246.29 37.5969 251.466C37.1095 256.13 39.2962 260.319 42.8133 262.716C44.3151 263.73 45.1581 265.43 45.4084 267.221C46.5544 275.52 54.1421 281.619 62.7835 280.671C70.1735 279.867 76.1014 273.781 76.7337 266.365C77.1157 261.82 75.5613 257.645 72.8081 254.549C77.4845 252.323 80.6987 247.528 80.5801 241.982Z" fill="#323D5B"/>
<path d="M166.547 243.747C164.083 243.22 161.818 244.274 160.553 246.079H159.091V232.603C159.091 230.126 157.088 228.124 154.612 228.124H139.529V226.622C141.334 225.358 142.387 223.092 141.861 220.629C141.413 218.508 139.7 216.769 137.579 216.282C133.799 215.425 130.453 218.271 130.453 221.893C130.453 223.843 131.428 225.568 132.916 226.622V228.124H119.44C116.964 228.124 114.961 230.126 114.961 232.603V246.079H115.963C117.227 244.274 119.493 243.22 121.956 243.747C124.077 244.195 125.816 245.908 126.303 248.015C127.173 251.796 124.314 255.142 120.692 255.142C118.742 255.142 117.016 254.167 115.963 252.678H114.961V267.761C114.961 270.238 116.964 272.24 119.44 272.24H132.916V271.2C131.111 269.935 130.058 267.669 130.584 265.206C131.032 263.085 132.745 261.346 134.853 260.859C138.633 260.003 141.979 262.848 141.979 266.47C141.979 268.42 141.004 270.146 139.516 271.2V272.24H154.599C157.075 272.24 159.078 270.238 159.078 267.761V252.678H160.54C161.58 254.167 163.306 255.142 165.269 255.142C168.905 255.142 171.75 251.796 170.88 248.015C170.406 245.908 168.667 244.195 166.547 243.747Z" fill="#C4C4C4"/>
<path d="M166.547 243.747C164.083 243.22 161.818 244.274 160.553 246.079H159.091V232.603C159.091 230.126 157.088 228.124 154.612 228.124H139.529V226.622C141.334 225.358 142.387 223.092 141.861 220.629C141.413 218.508 139.7 216.769 137.579 216.282C133.799 215.425 130.453 218.271 130.453 221.893C130.453 223.843 131.428 225.568 132.916 226.622V228.124H119.44C116.964 228.124 114.961 230.126 114.961 232.603V246.079H115.963C117.227 244.274 119.493 243.22 121.956 243.747C124.077 244.195 125.816 245.908 126.303 248.015C127.173 251.796 124.314 255.142 120.692 255.142C118.742 255.142 117.016 254.167 115.963 252.678H114.961V267.761C114.961 270.238 116.964 272.24 119.44 272.24H132.916V271.2C131.111 269.935 130.058 267.669 130.584 265.206C131.032 263.085 132.745 261.346 134.853 260.859C138.633 260.003 141.979 262.848 141.979 266.47C141.979 268.42 141.004 270.146 139.516 271.2V272.24H154.599C157.075 272.24 159.078 270.238 159.078 267.761V252.678H160.54C161.58 254.167 163.306 255.142 165.269 255.142C168.905 255.142 171.75 251.796 170.88 248.015C170.406 245.908 168.667 244.195 166.547 243.747Z" fill="#518AFA"/>
<path d="M82.9115 223.975C82.9115 223.975 88.4046 227.426 87.7328 232.076C87.7328 232.076 90.6704 229.995 91.329 222.855C91.7901 217.902 82.9115 223.975 82.9115 223.975Z" fill="#323D5B"/>
<path d="M96.045 252.336C95.9396 254.523 96.0582 256.762 96.3611 258.935C96.6641 261.096 97.1647 263.243 97.9155 265.035C98.2844 265.93 98.7059 266.694 99.0879 267.274C99.4831 267.854 99.7861 268.038 99.7334 268.104C99.6544 268.157 99.6017 268.341 100.115 268.17C100.326 268.143 100.642 267.88 100.972 267.709C101.301 267.445 101.643 267.169 101.999 266.826C103.395 265.417 104.752 263.454 105.912 261.346C107.097 259.238 108.164 256.999 109.178 254.694C111.154 250.07 112.893 245.236 114.5 240.335V240.322C114.79 239.426 115.765 238.926 116.674 239.229C117.477 239.492 117.952 240.283 117.846 241.086C117.148 246.276 116.292 251.48 114.961 256.657C114.658 257.961 114.25 259.252 113.894 260.556C113.46 261.847 113.064 263.151 112.538 264.442C111.55 267.037 110.351 269.632 108.48 272.24C107.993 272.886 107.426 273.531 106.834 274.177C106.149 274.809 105.503 275.441 104.555 275.994L103.883 276.403C103.646 276.535 103.356 276.64 103.093 276.758C102.539 276.969 102.026 277.22 101.367 277.312C100.142 277.602 98.7454 277.602 97.494 277.325C94.9121 276.758 93.0416 275.336 91.7243 273.992C90.407 272.622 89.4058 271.2 88.6023 269.79C85.533 264.099 84.3606 258.343 84.084 252.362V252.336C83.9259 249.029 86.4814 246.224 89.7878 246.066C93.0942 245.907 95.9001 248.463 96.0581 251.769C96.0581 251.954 96.0582 252.151 96.045 252.336Z" fill="#FAB9AF"/>
<path d="M89.0634 276.442C91.2633 269.83 95.6763 255.814 95.2943 251.229C95.0571 248.292 92.607 246.052 89.6562 246.052H70.5555C67.394 246.052 64.7989 248.568 64.7067 251.73C64.5486 257.263 67.091 269.856 68.5268 276.442H89.0634Z" fill="#FAB9AF"/>
<path d="M85.2959 306.319C87.4958 314.249 105.358 370.642 99.1933 372.354C93.0284 374.067 59.4901 319.004 59.0554 310.784C58.647 302.986 63.1653 294.542 69.3303 292.829C75.4952 291.13 83.096 298.388 85.2959 306.319Z" fill="#FAB9AF"/>
<path d="M112.906 398.292C113.13 398.029 113.183 397.647 113.064 397.317C108.282 384.092 101.88 367.349 100.51 364.187C100.352 363.832 100.194 363.476 100.01 363.134C97.6781 346.417 86.9421 312.352 85.2824 306.319C83.0825 298.389 75.4817 291.117 69.3167 292.83C63.1518 294.542 58.6335 302.986 59.0419 310.784C59.3053 315.935 72.5441 339.422 83.9255 355.862C86.323 359.327 87.8247 363.292 88.5624 367.441C89.063 370.313 89.8797 373.171 90.7755 375.253C92.1191 378.361 100.01 390.243 107.07 400.321C107.268 400.611 107.624 400.782 107.966 400.742C109.85 400.558 111.615 399.807 112.906 398.292Z" fill="#E859FF"/>
<path d="M66.3398 284.834C67.3278 282.054 67.6307 279.09 67.2092 276.179C66.2476 269.408 64.5614 256.657 64.7195 251.243C64.7985 248.344 67.1697 246.052 70.0677 246.052H72.8999C73.9801 248.555 76.259 250.492 79.8157 250.492C83.3592 250.492 85.6513 248.555 86.7315 246.052H89.3924C86.5075 252.244 87.535 260.411 92.5144 265.166C91.5923 268.433 90.8151 271.713 90.2355 274.387C89.4451 277.997 89.8008 281.751 91.2103 285.163C93.6473 291.025 95.5837 300.417 95.0041 304.145C74.9154 309.836 61.0179 299.758 61.0179 299.758L66.3398 284.834Z" fill="#3C6BE0"/>
<path d="M90.2354 274.387C90.433 273.492 90.657 272.504 90.8941 271.489C88.0092 270.765 85.1638 269.816 82.3844 268.605C76.5356 266.049 69.0797 261.886 64.8907 256.143C65.0092 257.79 65.1673 259.607 65.3649 261.491C67.4331 266.299 69.6461 270.949 73.7034 274.559C78.5642 278.893 84.4788 281.751 90.6701 283.635C89.7217 280.645 89.5636 277.457 90.2354 274.387Z" fill="#2450BD"/>
<path d="M82.9114 247.37L74.2436 246.461L76.9836 236.976L82.5952 237.661L82.9114 247.37Z" fill="#FAB9AF"/>
<path d="M82.5955 237.661L76.9838 236.963L76.1276 239.927C77.379 241.336 78.9993 244.393 81.0279 244.393C81.6734 244.393 82.2661 244.208 82.7931 243.879L82.5955 237.661Z" fill="#FA968C"/>
<path d="M82.7931 242.245C80.8961 242.245 78.828 241.297 75.9958 238.82C74.3624 237.398 73.1636 234.921 73.1636 233.248V223.988H87.4299C87.4299 223.988 88.4969 228.914 87.4563 233.788C86.6791 237.437 84.2816 242.259 82.7931 242.245Z" fill="#FAB9AF"/>
<path d="M75.5739 231.496C75.5739 233.301 74.7044 234.776 73.6374 234.776C72.5704 234.776 71.398 232.405 71.398 230.601C71.398 228.796 72.5704 228.229 73.6374 228.229C74.7044 228.216 75.5739 229.678 75.5739 231.496Z" fill="#FAB9AF"/>
<path d="M71.398 225.094C71.398 222.196 73.7428 219.851 76.6409 219.851H81.4622C82.8453 219.851 84.1758 219.496 85.3482 218.824C87.0475 217.862 89.1947 218.179 90.3539 219.759C91.6053 221.459 92.1454 223.737 88.9707 225.845C87.39 226.899 85.0847 225.727 83.5435 226.24C83.4513 226.24 83.3591 226.227 83.2669 226.227H79.0252C77.5498 226.227 76.4169 227.439 76.3774 228.901C76.3511 229.837 75.587 230.587 74.6518 230.587H74.4673L73.7823 228.414L71.4112 231.615V225.094H71.398Z" fill="#323D5B"/>
<path d="M118.281 235.33C118.281 235.33 119.282 240.256 117.872 241.06C116.476 241.863 115.383 242.14 114.131 240.151C112.88 238.162 112.129 234.816 112.076 232.735C112.023 230.653 113.407 227.11 113.815 226.82C115.264 225.792 114.961 229.599 114.908 231.444C114.856 233.288 114.974 235.382 115.87 235.158C116.766 234.934 116.608 231.391 117.543 230.798C118.491 230.192 118.281 235.33 118.281 235.33Z" fill="#FAB9AF"/>
<path d="M139.568 268.829C139.568 268.829 134.615 268.025 133.865 269.448C133.114 270.883 132.877 271.977 134.918 273.149C136.96 274.322 140.319 274.941 142.414 274.914C144.508 274.888 147.986 273.36 148.249 272.952C149.211 271.463 145.43 271.911 143.599 272.03C141.755 272.161 139.661 272.122 139.858 271.213C140.043 270.304 143.599 270.33 144.153 269.369C144.693 268.42 139.568 268.829 139.568 268.829Z" fill="#FAB9AF"/>
<path d="M86.3627 223.817C85.8885 225.937 86.5867 227.097 79.6445 230.39C72.7024 233.696 70.5025 232.287 68.3421 235.843C68.3421 235.843 69.2906 229.955 73.1239 227.926C76.9572 225.898 83.6096 224.581 85.7304 219.904C85.7436 219.904 86.692 222.368 86.3627 223.817Z" fill="#323D5B"/>
<path d="M74.3623 251.427C74.3623 251.374 74.3491 251.322 74.336 251.282L74.3755 251.387L74.4413 251.625C74.5335 251.835 74.6126 252.046 74.6916 252.27C74.8892 252.718 75.1 253.192 75.3634 253.666C75.6796 254.127 75.9167 254.615 76.2724 255.076C76.6412 255.524 77.0101 255.972 77.3526 256.446C78.2351 257.289 78.9728 258.251 80.053 258.988L81.5547 260.187L83.2672 261.228C87.8514 264.033 93.4104 265.851 99.1669 267.248C100.629 267.551 102.105 267.775 103.593 268.051C105.082 268.302 106.544 268.631 108.072 268.723L112.63 269.171L114.922 269.434L117.227 269.54L121.864 269.751C123.418 269.83 124.96 269.895 126.527 269.856C129.649 269.856 132.771 269.816 135.919 269.869H136.012C136.96 269.882 137.711 270.659 137.698 271.608C137.685 272.425 137.105 273.096 136.328 273.268C133.206 273.926 130.071 274.493 126.909 275.099C125.342 275.441 123.734 275.586 122.141 275.771L117.332 276.311L114.922 276.587L112.485 276.693L107.598 276.838C105.964 276.943 104.318 276.798 102.671 276.732C101.024 276.64 99.3645 276.587 97.7047 276.469C91.0788 275.718 84.2947 274.295 77.8136 271.028L75.403 269.737C74.6258 269.237 73.8617 268.684 73.0977 268.157C71.5301 267.169 70.147 265.759 68.7111 264.468C68.0525 263.731 67.4202 262.966 66.7879 262.202C66.1687 261.425 65.6286 260.529 65.0754 259.686C64.5485 258.791 64.0742 257.855 63.6264 256.867L63.0468 255.3L62.7965 254.391L62.6779 253.93L62.5462 253.205C62.0719 249.938 64.3245 246.895 67.6046 246.408C70.832 245.894 73.8749 248.147 74.3623 251.427Z" fill="#FAB9AF"/>
<path d="M85.0321 224.212C85.0321 224.212 85.2956 231.338 91.5264 234.763C91.5264 234.763 88.7864 229.375 88.9709 225.845C89.1553 222.315 84.6106 221.775 85.0321 224.212Z" fill="#323D5B"/>
<path d="M16.533 403.759C16.2959 403.179 16.5199 402.507 17.06 402.191C17.4947 401.928 18.6802 401.203 19.576 400.65C19.958 400.413 20.4454 400.663 20.4981 401.111C21.0777 406.209 23.383 410.833 27.73 413.046C28.8629 414.561 29.021 417.143 28.415 417.907C28.2701 418.091 26.2415 417.419 24.529 415.456C16.9546 406.802 16.533 403.759 16.533 403.759Z" fill="#823264"/>
<path d="M476.69 377.123C476.387 377.057 476.098 377.005 475.834 376.952C475.123 376.807 474.214 376.82 473.41 376.886C472.067 377.005 470.71 376.754 469.498 376.162L464.479 373.685C462.358 372.644 460.079 374.805 461.028 376.978C461.107 377.163 461.252 377.308 461.436 377.4L467.377 380.034C469.103 380.798 470.618 381.958 471.803 383.42L473.489 385.501C477.072 383.249 476.572 379.191 476.69 377.123Z" fill="#FAB9AF"/>
<path d="M474.517 394.419C474.754 391.561 473.463 386.845 472.857 385.264C474.385 382.445 474.438 379.429 473.516 376.702C474.306 376.636 475.175 376.623 475.874 376.768C476.822 376.965 479.022 377.308 479.931 377.479C480.563 377.598 481.011 378.177 480.998 378.823C480.998 378.823 478.152 399.399 477.52 399.017C476.414 398.332 474.306 396.856 474.517 394.419Z" fill="#46738C"/>
<path d="M284.458 427.483H357.172C358.121 427.483 358.885 426.719 358.885 425.771C358.885 424.823 358.121 424.058 357.172 424.058H284.458C283.509 424.058 282.745 424.823 282.745 425.771C282.745 426.719 283.509 427.483 284.458 427.483Z" fill="#B4D7DC"/>
<path d="M403.146 427.483H482.184C483.224 427.483 484.08 426.64 484.08 425.586C484.08 424.546 483.237 423.69 482.184 423.69H403.146C402.105 423.69 401.249 424.533 401.249 425.586C401.262 426.64 402.105 427.483 403.146 427.483Z" fill="#B4D7DC"/>
<path d="M367.131 356.758C365.537 363.068 354.314 412.73 356.527 412.782C358.45 412.822 378.882 366.453 380.475 360.13C382.069 353.82 380.37 347.945 376.695 347.01C373.006 346.088 368.725 350.448 367.131 356.758Z" fill="#41B4E6"/>
<path d="M391.712 306.332C386.311 312.905 362.191 356.047 367.302 360.236C372.414 364.425 405.846 328.713 411.247 322.139C416.648 315.566 415.845 306.2 410.734 302.011C405.636 297.822 397.113 299.759 391.712 306.332Z" fill="#41B4E6"/>
<path d="M359.346 419.672C359.359 419.369 359.386 419.066 359.399 418.802C359.438 418.078 359.293 417.182 359.109 416.392C358.806 415.074 358.845 413.704 359.254 412.413L360.966 407.078C361.691 404.826 359.214 402.903 357.212 404.141C357.041 404.246 356.909 404.418 356.856 404.615L355.117 410.872C354.617 412.69 353.682 414.363 352.417 415.746L350.612 417.722C353.352 420.95 357.278 419.869 359.346 419.672Z" fill="#FAB9AF"/>
<path d="M341.918 420.054C344.777 419.869 349.255 417.907 350.731 417.064C353.747 418.17 356.738 417.775 359.293 416.458C359.464 417.222 359.609 418.091 359.57 418.802C359.504 419.777 359.491 422.003 359.451 422.926C359.425 423.571 358.924 424.098 358.279 424.177C358.279 424.177 337.505 424.388 337.795 423.703C338.322 422.504 339.481 420.212 341.918 420.054Z" fill="#46738C"/>
<path d="M380.476 360.13C379.488 364.029 367.289 394.274 360.729 408.369C358.753 407.619 357.647 407.671 355.631 407.039C358.2 393.8 362.797 364.253 364.312 357.878C364.971 348.999 386.706 312.418 391.712 306.319C397.113 299.745 405.623 297.809 410.734 301.998C415.845 306.187 416.648 315.553 411.247 322.126C407.77 326.394 381.147 357.496 380.476 360.13Z" fill="#011429"/>
<path d="M410.747 302.011C405.636 297.822 397.113 299.745 391.725 306.332C391.29 306.859 390.711 307.649 390.052 308.611C394.926 318.306 396.573 329.042 396.322 339.936C403.014 331.901 409.64 324.115 411.274 322.139C416.648 315.566 415.858 306.2 410.747 302.011Z" fill="#152435"/>
<path d="M406.65 360.394C406.65 360.394 406.637 360.381 406.65 360.394C406.637 360.381 406.637 360.367 406.624 360.354C406.4 359.933 406.242 359.524 406.123 359.103C402.527 348.433 403.554 309.704 404.714 301.84C405.03 299.745 405.649 297.822 406.479 296.07L417.952 302.314C420.837 305.581 424.236 308.466 428.122 310.798C428.701 311.153 427.924 309.625 428.517 309.941C426.857 320.137 424.71 340.344 423.893 350.461C423.709 352.753 425.013 354.914 427.134 355.796C437.83 360.288 456.905 369.022 467.535 374.765L467.18 380.785C451.662 377.532 420.653 368.311 415.95 366.941C411.537 365.637 408.086 363.094 406.65 360.394Z" fill="#061E3A"/>
<path d="M397.179 262.571C397.153 263.23 397.113 263.533 397.06 263.968C397.008 264.363 396.955 264.771 396.889 265.153C396.771 265.93 396.626 266.681 396.454 267.419C396.112 268.907 395.717 270.37 395.19 271.792C394.162 274.638 392.753 277.378 391.027 279.894C387.55 284.939 382.478 288.93 376.972 291.064C374.232 292.184 371.413 292.856 368.607 293.264C365.814 293.725 363.035 293.738 360.308 293.686C354.841 293.475 349.598 292.421 344.54 291.012C343.591 290.748 343.038 289.773 343.302 288.825C343.539 287.995 344.329 287.468 345.159 287.534H345.185C350.231 287.942 355.25 287.982 360.058 287.376C364.826 286.691 369.45 285.492 373.217 283.213C376.998 280.987 379.962 277.918 381.846 274.203C382.807 272.359 383.558 270.396 384.032 268.328C384.296 267.3 384.48 266.26 384.625 265.232C384.691 264.718 384.744 264.205 384.783 263.704C384.796 263.454 384.81 263.204 384.823 262.966C384.823 262.769 384.823 262.44 384.81 262.453C384.849 259.041 387.642 256.301 391.067 256.327C394.478 256.354 397.218 259.16 397.179 262.571Z" fill="#FA968C"/>
<path d="M378.288 271.516C379.342 269.237 383.465 260.345 383.966 258.185L383.992 258.079C384.032 257.908 384.084 257.737 384.137 257.566C385.217 254.312 388.721 252.56 391.975 253.64C395.229 254.72 396.981 258.224 395.901 261.478C394.886 264.521 393.846 267.05 392.607 269.738C391.764 271.516 390.842 273.255 389.894 274.967C388.84 274.137 378.288 271.529 378.288 271.516Z" fill="#AAC85A"/>
<path d="M391.975 313.814C397.099 318.043 418.505 317.186 426.449 316.712C428.451 316.594 429.953 314.789 429.623 312.813C428.78 307.781 425.276 299.1 423.169 290.103C420.139 277.128 417.241 262.729 415.726 254.944C415.094 251.73 412.024 249.609 408.797 250.136L389.314 253.364C386.311 253.864 384.19 256.565 384.44 259.608C384.954 265.891 385.85 276.798 386.719 287.495C387.575 298.336 386.495 309.296 391.975 313.814Z" fill="#FAB9AF"/>
<path d="M389.117 253.377L392.278 252.85C393.806 255.221 396.467 256.802 400.077 256.209C403.699 255.603 405.701 253.258 406.386 250.518L409.271 250.044C412.222 249.556 415.028 251.493 415.607 254.431C417.096 262.084 420.047 276.825 423.156 290.09C425.29 299.245 428.807 307.649 429.597 312.76C429.9 314.763 428.398 316.58 426.383 316.712C418.4 317.186 397.086 318.029 391.962 313.814C386.495 309.296 387.575 298.336 386.693 287.481C385.81 276.68 384.914 265.654 384.401 259.397C384.164 256.472 386.219 253.864 389.117 253.377Z" fill="#82BE50"/>
<path d="M399.458 242.746L399.827 242.641C402.606 241.85 404.213 238.952 403.41 236.173L401.276 228.743L395.888 230.284L399.458 242.746Z" fill="#CD5014"/>
<path d="M395.097 253.39L404.49 252.705L404.819 251.348L399.326 241.468L392.792 244.248L395.097 253.39Z" fill="#FAB9AF"/>
<path d="M392.792 244.248L399.313 241.468L401.526 245.433C400.498 247.58 399.26 249.952 396.797 250.663C396.019 250.887 395.137 250.821 394.386 250.597L392.792 244.248Z" fill="#FA968C"/>
<path d="M396.046 248.292C400.617 246.988 403.251 242.219 401.934 237.648L399.286 228.44L385.112 232.511C385.112 232.511 387.18 239.703 389.604 244.248C391.435 247.673 393.727 248.951 396.046 248.292Z" fill="#FAB9AF"/>
<path d="M398.766 233.748L401.425 232.985L401.08 231.782L398.421 232.545L398.766 233.748Z" fill="#CD5014"/>
<path d="M399.036 236.594C399.55 238.386 400.828 239.598 401.895 239.295C402.962 238.992 403.449 236.304 402.935 234.5C402.421 232.695 401.091 232.484 400.024 232.787C398.97 233.103 398.522 234.803 399.036 236.594Z" fill="#FAB9AF"/>
<path d="M385.231 236.581C384.572 235.527 384.151 234.342 384.019 233.103C384.019 233.103 382.781 229.007 384.177 227.768C385.442 226.636 388.208 226.833 389.894 226.728C391.132 226.649 394.676 225.358 394.676 225.358C397.547 224.528 400.551 226.188 401.381 229.073L401.697 230.192L399.958 233.038L399.905 235.396L399.721 235.448C398.812 235.712 397.864 235.211 397.547 234.329C397.034 232.88 395.651 231.931 394.162 232.353L389.92 233.565C387.338 234.302 386.39 236.081 386.943 238.017L387.549 239.611L385.231 236.581Z" fill="#CD5014"/>
<path d="M349.875 258.277L349.018 256.064C350.507 253.811 350.994 250.94 350.112 248.213C348.57 243.431 342.919 240.691 338.217 242.456C333.435 244.248 331.064 249.596 332.908 254.325C334.028 257.21 336.465 259.186 339.257 259.871L340.113 262.084L316.046 271.489C313.952 272.306 312.911 274.677 313.728 276.772L323.041 300.615L321.764 301.115C319.511 299.627 316.639 299.139 313.912 300.022C309.131 301.563 306.391 307.214 308.156 311.917C309.947 316.699 315.296 319.07 320.025 317.226C322.91 316.106 324.886 313.669 325.571 310.877L326.848 310.376L336.162 334.219C336.978 336.313 339.349 337.354 341.444 336.537L398.891 314.091C400.986 313.274 402.026 310.903 401.21 308.808L378.763 251.361C377.946 249.267 375.575 248.226 373.481 249.043L349.875 258.277Z" fill="#FA735F"/>
<path d="M418.176 255.735C418.993 271.147 410.364 289.444 392.186 293.897C377.748 297.466 362.204 293.475 348.491 287.626C347.582 287.244 347.174 286.19 347.556 285.295C347.898 284.504 348.741 284.083 349.558 284.254H349.585C368.659 288.298 393.029 290.946 402.052 273.571C406.623 265.021 405.807 254.681 405.82 256.143C405.714 248.134 417.741 247.739 418.176 255.735Z" fill="#FAB9AF"/>
<path d="M403.95 267.985C405.386 261.452 405.596 256.156 405.596 256.064V256.248L406.637 252.086C406.637 252.086 408.626 248.753 414.067 250.044C418.414 251.071 418.387 256.011 418.387 256.011C418.4 256.696 419.968 261.636 415.713 272.346C415.713 272.359 403.752 268.908 403.95 267.985Z" fill="#AAC85A"/>
<path d="M350.599 284.517C349.4 283.121 349.084 278.208 348.412 278.208C347.925 278.208 347.846 279.907 347.832 280.855C347.832 280.961 347.767 281.066 347.661 281.106C347.556 281.145 347.437 281.132 347.358 281.053C346.001 279.854 342.155 276.522 341.76 276.838C341.365 277.154 343.406 279.644 344.091 280.46C344.118 280.487 344.118 280.526 344.091 280.552C344.065 280.579 344.039 280.592 344.012 280.566C342.932 280.026 339.428 278.3 339.349 279.038C339.27 279.736 342.326 281.685 343.512 282.41C343.538 282.423 343.551 282.463 343.538 282.502C343.525 282.528 343.485 282.555 343.459 282.542C342.129 282.146 338.69 281.198 338.611 281.817C338.532 282.449 341.852 283.872 343.051 284.359C343.077 284.373 343.103 284.412 343.09 284.438C343.077 284.478 343.051 284.491 343.024 284.491C341.852 284.399 338.809 284.201 339.27 284.676C339.85 285.255 347.174 287.653 348.807 287.653C350.428 287.666 350.599 284.517 350.599 284.517Z" fill="#FAB9AF"/>
<path d="M271.943 216.822H208.99V231.575H271.943V216.822Z" fill="#C8E6EB"/>
<path d="M271.943 238.965H208.99V253.719H271.943V238.965Z" fill="#C8E6EB"/>
<path d="M271.943 261.096H208.99V275.85H271.943V261.096Z" fill="#C8E6EB"/>
<path d="M271.943 283.226H208.99V297.98H271.943V283.226Z" fill="#C8E6EB"/>
<path d="M379.171 178.462H102.75V194.691H379.171V178.462Z" fill="#C8E6EB"/>
<path d="M229.842 186.287H145.22C140.938 186.287 137.474 182.822 137.474 178.541V159.019C137.474 154.738 140.938 151.273 145.22 151.273H229.842C234.124 151.273 237.588 154.738 237.588 159.019V178.541C237.588 182.809 234.124 186.287 229.842 186.287Z" fill="#39AE96"/>
<path d="M222.694 186.194L217.003 180.503L211.312 186.194L217.003 191.885L222.694 186.194Z" fill="#39AE96"/>
<path d="M223.52 160.125H149.369V162.865H223.52V160.125Z" fill="white"/>
<path d="M223.52 167.41H149.369V170.15H223.52V167.41Z" fill="white"/>
<path d="M223.52 174.682H149.369V177.421H223.52V174.682Z" fill="white"/>
<path d="M220.493 301.021V292.972H212.445V301.021H220.493Z" fill="#41A0D7"/>
<path d="M195.106 350.777C212.544 350.777 226.681 336.64 226.681 319.202C226.681 301.763 212.544 287.626 195.106 287.626C177.667 287.626 163.53 301.763 163.53 319.202C163.53 336.64 177.667 350.777 195.106 350.777Z" fill="#C4C4C4"/>
<path d="M195.106 350.777C212.544 350.777 226.681 336.64 226.681 319.202C226.681 301.763 212.544 287.626 195.106 287.626C177.667 287.626 163.53 301.763 163.53 319.202C163.53 336.64 177.667 350.777 195.106 350.777Z" fill="#518AFA"/>
<path d="M185.595 319.294C185.595 320.717 184.449 321.863 183.026 321.863C181.603 321.863 180.457 320.717 180.457 319.294C180.457 317.871 181.603 316.725 183.026 316.725C184.449 316.725 185.595 317.871 185.595 319.294Z" fill="white"/>
<path d="M196.857 319.294C196.857 320.717 195.711 321.863 194.289 321.863C192.866 321.863 191.72 320.717 191.72 319.294C191.72 317.871 192.866 316.725 194.289 316.725C195.698 316.725 196.857 317.871 196.857 319.294Z" fill="white"/>
<path d="M208.107 319.294C208.107 320.717 206.961 321.863 205.538 321.863C204.116 321.863 202.97 320.717 202.97 319.294C202.97 317.871 204.116 316.725 205.538 316.725C206.961 316.725 208.107 317.871 208.107 319.294Z" fill="white"/>
</svg>
