<svg width="522" height="298" viewBox="0 0 522 298" fill="none" xmlns="http://www.w3.org/2000/svg">
<g clip-path="url(#clip0)">
<path d="M407.834 274.837C407.834 276.818 409.445 278.431 411.425 278.431C413.423 278.431 415.035 276.818 415.035 274.837C415.035 272.856 413.423 271.242 411.425 271.242C409.445 271.225 407.834 272.838 407.834 274.837Z" fill="#4A3E46"/>
<path d="M488.903 271.26L487.992 273.82L449.463 261.879L451.321 256.689L488.903 271.26Z" fill="#4A3E46"/>
<path d="M448.137 260.054H452.518V213.517H448.137V260.054Z" fill="#4A3E46"/>
<path d="M411.426 271.26L412.337 273.82L450.865 261.879L449.166 256.355L411.426 271.26Z" fill="#4A3E46"/>
<path d="M438.565 273.557V276.538L450.865 261.879L449.165 256.355L438.565 273.557Z" fill="#4A3E46"/>
<path d="M438.267 274.837C438.267 276.818 439.879 278.431 441.859 278.431C443.857 278.431 445.451 276.818 445.451 274.837C445.451 272.856 443.839 271.242 441.859 271.242C439.879 271.225 438.267 272.838 438.267 274.837Z" fill="#4A3E46"/>
<path d="M395.376 262.3C395.376 262.3 395.341 264.737 394.535 267.595C393.957 269.682 392.783 277.765 391.294 278.888C389.805 280.027 385.004 283.008 385.705 286.094C386.406 289.18 387.001 291.32 392.205 289.496C397.391 287.672 400.86 286.638 401.859 282.079C402.858 277.52 405.696 273.364 405.696 273.364L409.446 282.71L411.426 281.921C411.426 281.921 408.429 271.839 408.692 270.927C408.955 270.033 407.326 262.019 401.036 260.02C394.781 258.039 395.376 262.3 395.376 262.3Z" fill="#AE244E"/>
<path d="M360.703 265.245C360.703 265.245 359.756 267.49 357.952 269.84C356.638 271.558 352.538 278.624 350.733 279.115C348.928 279.606 343.357 280.588 342.849 283.709C342.358 286.83 342.113 289.04 347.614 289.285C353.098 289.531 356.725 289.864 359.336 286.006C361.964 282.149 366.152 279.361 366.152 279.361V289.426H368.289C368.289 289.426 369.27 278.957 369.848 278.203C370.427 277.467 371.898 269.419 366.817 265.228C361.736 261.055 360.703 265.245 360.703 265.245Z" fill="#AE244E"/>
<path d="M416.577 128.458C416.577 128.458 415.35 124.127 415.228 123.566C415.105 123.005 413.949 121.883 412.512 120.708C411.075 119.533 408.605 118.586 408.307 118.692C408.009 118.797 407.641 118.744 407.15 119.393C406.642 120.042 406.572 120.866 406.572 120.866C406.572 120.866 405.574 121.374 405.556 122.391C405.556 122.391 404.645 122.917 404.82 124.075C404.82 124.075 403.944 124.601 404.137 125.442C404.137 125.442 405.293 126.565 405.609 127.108C405.924 127.652 408.482 129.826 411.268 131.544C411.285 131.544 414.825 134.157 416.577 128.458Z" fill="#EEA886"/>
<path d="M411.268 125.022C411.268 125.022 410.742 126.845 410.865 127.441C410.97 128.02 406.695 128.108 406.695 128.108C406.695 128.108 409.043 124.443 411.268 125.022Z" fill="#CF8C6C"/>
<path d="M459.398 135.911C457.681 133.105 455.368 131.86 448.062 136.91C440.756 141.978 442.473 140.978 440.72 142.591C438.968 144.187 431.294 148.202 431.294 148.202C431.294 148.202 426.809 143.749 424.654 140.575C422.236 136.998 417.172 127.459 417.172 127.459L410.076 132.737C410.076 132.737 423.848 157.741 426.739 159.582C429.612 161.423 438.285 158.337 442.805 156.444C447.326 154.532 452.092 152.078 454.159 151.569C456.209 151.078 463.901 143.205 459.398 135.911Z" fill="#AE244E"/>
<path d="M407.44 106.863L406.122 107.155L409.585 122.82L410.903 122.529L407.44 106.863Z" fill="#EB4747"/>
<path d="M408.71 118.972C408.71 118.972 412.284 122.041 411.863 122.672C411.443 123.303 410.9 123.286 410.9 123.286L411.793 125.214C411.793 125.214 411.671 126.828 409.954 126.214C409.954 126.214 409.989 127.739 408.412 126.95C408.412 126.95 407.991 127.967 407.185 127.739C406.397 127.511 404.172 125.442 404.172 125.442C404.172 125.442 403.839 124.776 404.803 124.057C404.803 124.057 404.575 122.953 405.556 122.374C405.556 122.374 405.468 121.427 406.537 120.813C406.537 120.813 406.642 118.797 408.342 118.674C408.307 118.674 408.552 118.849 408.71 118.972Z" fill="#DB9C7C"/>
<path d="M415.192 123.601C415.192 123.601 412.792 121.427 410.97 120.831C410.549 120.691 410.129 120.638 409.848 120.971C409.568 121.304 409.691 122.146 410.672 123.128C411.653 124.11 412.477 125.846 412.477 125.846C412.477 125.846 413.808 126.565 415.192 123.601Z" fill="#EEA886"/>
<path d="M425.302 151.096C425.302 151.096 423.865 145.87 425.565 141.82C425.565 141.82 424.917 146.011 426.756 148.991C428.07 151.148 425.302 151.096 425.302 151.096Z" fill="#78102F"/>
<path d="M399.178 151.902C399.178 151.902 395.306 123.268 388.596 110.784H398.495C398.495 110.784 409.586 130.335 407.501 150.079L399.178 151.902Z" fill="#EDDAD3"/>
<path d="M396.796 130.475C396.796 130.475 395.674 128.371 395.394 127.687C395.114 127.003 394.01 128.195 394.185 129.072C394.36 129.949 396.796 130.475 396.796 130.475Z" fill="#EEA886"/>
<path d="M388.018 135.262C388.018 135.262 388.316 136.296 388.666 136.682C388.666 136.682 389.367 137.331 389.822 137.839C389.963 137.997 390.085 138.137 390.173 138.243C390.471 138.663 390.996 139.663 391.977 140.452C392.959 141.241 396.743 143.713 396.743 143.713L399.406 140.855L401.544 138.646C401.544 138.646 399.739 131.86 398.898 131.018C398.811 130.931 398.723 130.861 398.653 130.79C397.882 130.142 397.023 129.984 396.585 129.686C396.41 129.581 394.711 128.616 394.168 128.827C393.414 129.125 393.011 129.633 392.888 130.177C392.888 130.177 391.434 130.826 390.944 131.772C390.944 131.772 389.577 132.316 389.314 133.684C389.314 133.666 387.983 134.367 388.018 135.262Z" fill="#EEA886"/>
<path d="M370.497 209.205C370.497 209.205 377.05 223.934 381.71 234.455C382.499 236.226 383.217 237.874 383.865 239.312C384.619 240.995 385.232 242.398 385.67 243.362C388.649 250.06 395.955 264.649 395.955 264.649C395.955 264.649 401.456 264.86 401.772 260.178C401.772 260.178 396.498 250.043 396.498 242.941C396.498 235.84 395.552 214.869 388.754 210.327C380.449 204.786 375.07 203.734 370.497 209.205Z" fill="#EEA886"/>
<path d="M430.979 181.202C430.979 181.202 429.595 182.588 428.438 182.903C427.282 183.219 407.746 184.709 398.723 187.69C389.7 190.671 377.715 192.582 375.473 195.125C373.248 197.685 369.533 211.695 369.638 214.343C369.743 217.008 361.701 261.756 360.703 265.246C360.177 267.104 367.974 266.385 367.974 266.385C367.974 266.385 379.047 239.943 381.412 235.051C385.758 226.073 385.985 215.079 387.562 213.378C389.157 211.677 406.87 207.855 417.067 207.855C427.265 207.855 450.077 208.697 452.512 207.329C454.948 205.944 470.243 195.861 463.866 182.36C457.523 168.876 430.979 181.202 430.979 181.202Z" fill="#EEA886"/>
<path d="M386.949 190.934L403.068 221.988C403.068 221.988 407.939 210.433 416.436 208.451C424.934 206.47 458.837 207.522 458.837 207.522C458.837 207.522 474.395 187.831 461.062 177.485C447.746 167.157 432.188 179.116 432.188 179.116C432.188 179.116 428.981 182.605 427.422 182.675C425.863 182.763 413.423 182.447 386.949 190.934Z" fill="#FC5184"/>
<path d="M350.733 279.115C350.733 279.115 355.656 280.343 357.531 279.115C359.423 277.888 365.836 267.034 367.956 266.385C367.956 266.385 365.889 262.212 360.685 265.246C360.702 265.246 352.135 277.309 350.733 279.115Z" fill="#EEA886"/>
<path d="M391.312 278.887C391.312 278.887 396.34 278.186 397.619 276.345C398.916 274.504 400.825 262.037 402.543 260.634C402.543 260.634 399.073 257.53 395.376 262.282C395.376 262.3 391.925 276.696 391.312 278.887Z" fill="#EEA886"/>
<path d="M485.294 274.837C485.294 276.818 486.906 278.431 488.886 278.431C490.883 278.431 492.477 276.818 492.477 274.837C492.477 272.856 490.865 271.242 488.886 271.242C486.906 271.225 485.294 272.838 485.294 274.837Z" fill="#4A3E46"/>
<path d="M442.648 83.4297C438.758 83.2368 430.156 85.2007 428.824 95.4935C428.824 95.4935 429.139 98.2639 429.805 100.456C430.471 102.648 428.526 109.065 429.034 109.381C429.542 109.696 431.645 110.1 431.645 110.1C431.645 110.1 433.905 117.131 436.375 117.061C438.846 117.008 448.167 115.08 452.565 106.33C456.963 97.5976 458.329 84.2012 442.648 83.4297Z" fill="#EEA886"/>
<path d="M439.722 113.87C439.722 113.87 440.02 114.852 440.37 116.324C440.545 117.061 440.738 117.938 440.896 118.867C441.351 121.427 441.614 124.425 440.948 126.424C440.948 126.424 446.397 128.318 450.707 120.603C450.707 120.603 448.868 112.291 451.268 107.259C453.651 102.227 439.722 113.87 439.722 113.87Z" fill="#EEA886"/>
<path d="M428.824 95.4934C428.824 95.4934 434.781 100.841 441.088 100.421C447.484 99.9822 451.636 107.996 451.636 107.996C451.636 107.996 461.167 96.037 453.476 86.3579C445.802 76.6963 427.457 83.4997 428.824 95.4934Z" fill="#1D3B54"/>
<path d="M443.979 100.386C444.014 99.1757 445.364 97.3521 447.343 99.0179C449.323 100.684 446.66 106.435 445.031 105.874C443.419 105.295 443.944 101.631 443.979 100.386Z" fill="#EEA886"/>
<path d="M440.37 116.325C440.545 117.061 440.738 117.938 440.896 118.867C445.959 115.658 448.5 111.748 448.5 111.748C445.609 114.361 440.37 116.325 440.37 116.325Z" fill="#A77860"/>
<path d="M425.6 145.765C426.739 151.095 429.77 151.358 429.577 155.304C429.402 159.231 428.228 159.565 430.261 165.772C430.629 166.912 430.944 168.174 431.189 169.437C431.224 169.594 431.242 169.735 431.277 169.892C431.4 170.611 431.522 171.33 431.61 172.032C431.785 173.347 431.925 174.627 432.013 175.802C432.258 178.853 429.998 181.22 429.998 181.22C429.998 181.22 449.867 193.126 463.498 191.46C463.498 191.46 459.959 176.608 458.014 171.506C456.069 166.403 456.665 142.819 458.084 137.769C460.186 130.299 455.981 119.112 450.199 117.657L441.264 121.795C441.264 121.795 432.258 132.561 430.243 134.192C428.228 135.805 424.426 140.382 425.6 145.765Z" fill="#AE244E"/>
<path d="M455.14 123.969C452.617 121.865 448.955 118.271 443.629 125.39C438.303 132.509 434.413 137.103 433.274 139.189C432.118 141.276 422.096 155.742 422.096 155.742C422.096 155.742 416.769 150.797 413.738 148.483C410.304 145.87 400.966 136.121 400.966 136.121L394.781 142.977C394.781 142.977 416.209 166.789 419.538 167.63C422.849 168.472 432.135 160.108 435.815 156.864C439.494 153.62 449.814 141.82 451.601 140.68C453.388 139.523 461.728 129.458 455.14 123.969Z" fill="#AE244E"/>
<path d="M381.71 234.437C382.499 236.208 383.217 237.857 383.865 239.294C386.283 231.562 386.073 218.621 386.073 218.621C384.636 227.634 381.745 234.332 381.71 234.437Z" fill="#A77860"/>
<path d="M416.443 215.106H485.3V207.531H416.443V215.106Z" fill="#6B5A65"/>
<path d="M449.464 183.342C449.464 183.342 451.198 190.373 443.033 191.969C434.869 193.564 424.812 195.598 424.812 208.223H453.16L449.464 183.342Z" fill="#6B5A65"/>
<path d="M407.431 106.856L406.274 104.699L406.117 107.154L407.431 106.856Z" fill="#EEA886"/>
<path d="M485.294 215.114L509.367 113.87C509.367 113.87 465.845 107.066 460.659 126.617C455.473 146.168 446.94 204.278 436.568 207.855C426.213 211.449 485.294 215.114 485.294 215.114Z" fill="#6B5A65"/>
<path d="M429.314 162.388C429.314 162.388 429.752 164.247 430.225 165.79L440.808 152.042L429.314 162.388Z" fill="#78102F"/>
<path d="M455.859 99.4036C455.859 99.4036 451.671 110.468 452.81 113.484C452.81 113.484 446.275 110.696 447.466 103.437C448.675 96.1948 455.859 99.4036 455.859 99.4036Z" fill="#1D3B54"/>
<path d="M440.773 122.409V120.217L450.059 115.693L453.265 119.411L440.773 122.409Z" fill="#78102F"/>
<path d="M139.957 80.2732H135.822V268.139H139.957V80.2732Z" fill="#706865"/>
<path d="M145.756 237.12H34.6739C27.8232 237.12 22.2691 231.562 22.2691 224.706V14.1855C22.2691 7.3295 27.8232 1.78857 34.6739 1.78857H145.774C152.625 1.78857 158.179 7.34703 158.179 14.1855V224.723C158.161 231.579 152.607 237.12 145.756 237.12Z" fill="#BDAFAA"/>
<path d="M142.182 227.932H38.2481C31.485 227.932 26.0009 222.443 26.0009 215.675V17.8326C26.0009 11.0642 31.485 5.57593 38.2481 5.57593H142.182C148.945 5.57593 154.429 11.0642 154.429 17.8326V215.675C154.429 222.443 148.945 227.932 142.182 227.932Z" fill="white"/>
<path d="M110.469 0H69.9785V9.15304H110.469V0Z" fill="#706865"/>
<path d="M52.8255 53.1649C52.8255 34.0172 68.384 18.429 87.5344 18.429V19.9895C69.2601 19.9895 54.3848 34.8764 54.3848 53.1649C54.3848 73.2946 72.0809 88.5322 91.5992 86.0948C107.946 84.0959 120.666 70.1559 120.666 53.1649C120.666 51.5342 120.544 49.9035 120.316 48.2903L121.858 48.0624C122.103 49.7457 122.226 51.4465 122.226 53.1649C122.226 70.9275 108.91 85.5338 91.792 87.6379C71.2575 90.1804 52.8255 74.1538 52.8255 53.1649Z" fill="#B5DEFF"/>
<path d="M8.76043 162.615C8.76043 162.615 9.68903 164.141 9.81168 165.386C9.89929 166.368 10.7403 167.841 11.0907 168.665C11.4411 169.489 12.5975 173.171 12.6501 174.136C12.6676 174.521 11.7915 176.994 11.9142 177.783C12.0368 178.572 12.4924 180.132 11.774 180.238C11.0557 180.343 10.2672 179.063 10.2672 179.063C10.2672 179.063 10.3373 179.799 9.7416 180.062C8.5677 180.606 7.95447 180.132 7.95447 180.132C7.95447 180.132 7.51644 180.939 6.99082 181.044C5.7994 181.29 5.22121 180.799 5.22121 180.799C5.22121 180.799 4.69558 181.255 3.8721 181.237C2.82084 181.22 2.38282 180.308 2.38282 180.308C2.38282 180.308 1.05123 180.571 0.665774 179.957C0.280314 179.343 0.350398 178.677 0.19271 178.098C0.0350217 177.537 0.157668 172.435 1.87472 168.77C3.60928 165.105 1.43669 161.511 1.43669 161.511L8.76043 162.615Z" fill="#EEA886"/>
<path d="M10.4424 178.589C10.4424 178.589 10.565 174.013 9.35609 173.048C8.14715 172.066 8.0245 173.732 8.0245 173.732C8.0245 173.732 8.18219 172.101 6.86812 171.874C5.55406 171.646 5.50149 173.592 5.50149 173.592C5.50149 173.592 5.29124 172.329 3.90709 172.592C2.52294 172.855 2.85584 174.451 2.85584 174.451C2.85584 174.451 1.54177 172.873 0.683246 174.399C-0.753467 176.959 0.543079 179.992 0.543079 179.992C0.543079 179.992 1.01614 180.711 2.33021 180.378C2.33021 180.378 3.2413 182.184 5.20364 180.904C5.20364 180.904 7.23606 182.009 7.97194 180.238C7.97194 180.238 10.3548 181.167 10.4424 178.589Z" fill="#DB9C7C"/>
<path d="M24.2663 96.7206C24.2663 96.7206 16.4344 122.83 13.7888 132.456C12.9653 135.472 10.9504 164.299 10.6 165.474C10.2496 166.631 0.315216 168.227 0.315216 168.227C0.315216 168.227 1.52416 132.158 1.62928 130.177C1.75193 128.213 12.5974 87.9182 15.7336 86.4979C18.0989 85.4283 19.3429 86.3051 22.3215 88.5144C26.509 91.618 24.2663 96.7206 24.2663 96.7206Z" fill="#FFC655"/>
<path d="M118.487 48.4357L100.567 60.1606L101.439 61.4962L119.36 49.7712L118.487 48.4357Z" fill="#4DA8F2"/>
<path d="M121.262 55.181C121.262 55.181 121.087 56.198 120.807 56.6013C120.807 56.6013 120.211 57.3027 119.825 57.8287C119.703 58.0041 119.598 58.1444 119.545 58.2496C119.3 58.6704 118.914 59.6874 118.073 60.5466C117.215 61.4058 113.903 64.1587 113.903 64.1587L111.047 61.7389L108.086 60.4063C108.086 60.4063 109.733 53.1996 110.452 52.3053C110.522 52.2177 110.592 52.13 110.662 52.0599C111.328 51.3585 112.116 51.113 112.519 50.7798C112.659 50.6571 114.184 49.5699 114.727 49.7102C115.48 49.9031 115.918 50.3415 116.093 50.85C116.093 50.85 117.548 51.2883 118.108 52.1475C118.108 52.1475 119.457 52.5158 119.86 53.7782C119.878 53.7958 121.21 54.3218 121.262 55.181Z" fill="#EFAA88"/>
<path d="M17.9061 274.924C17.9061 274.924 17.1878 279.887 17.1002 280.623C17.0126 281.36 9.16321 280.185 9.16321 280.185L8.53246 274.293C8.53246 274.293 16.925 274.241 17.9061 274.924Z" fill="#424773"/>
<path d="M17.1879 280.009C17.1879 280.009 19.6758 282.99 22.0762 284.305C24.4766 285.603 28.2611 286.129 29.6803 287.462C30.714 288.426 33.4122 292.617 23.4253 292.529C13.4384 292.441 8.62015 293.125 7.55138 291.512C6.4826 289.899 9.09322 279.659 9.09322 279.659C9.09322 279.659 11.4761 280.518 17.1879 280.009Z" fill="#292C47"/>
<path d="M74.1309 274.924C74.1309 274.924 73.4126 279.887 73.325 280.623C73.2374 281.36 65.388 280.185 65.388 280.185L64.7573 274.293C64.7573 274.293 73.1498 274.241 74.1309 274.924Z" fill="#424773"/>
<path d="M73.4123 280.009C73.4123 280.009 75.9003 282.99 78.3006 284.305C80.701 285.603 89.549 286.673 90.9682 288.023C92.002 288.987 93.7015 292.915 79.6497 292.547C69.6628 292.284 64.8446 293.143 63.7758 291.53C62.707 289.916 65.3177 279.676 65.3177 279.676C65.3177 279.676 67.5603 280.571 73.4123 280.009Z" fill="#292C47"/>
<path d="M24.4066 147.606C24.4066 147.606 17.0303 159.337 17.591 169.927C18.1341 180.518 14.9103 192.091 13.8064 203.155C12.58 215.5 7.51645 244.712 7.34124 251.305C7.16603 257.898 8.12968 278.975 8.12968 278.975L18.2392 279.203C18.2392 279.203 26.7369 228.125 28.927 222.917C31.1171 217.709 42.0326 180.553 42.4006 176.38C42.7685 172.242 24.4066 147.606 24.4066 147.606Z" fill="#292C47"/>
<path d="M63.2153 149.202C63.2153 149.202 68.7694 178.239 69.5053 184.727C70.2412 191.214 70.7318 216.113 71.0997 220.164C71.4677 224.214 74.5338 273.083 75.4975 279.22H62.567C62.567 279.22 52.6502 243.608 52.6502 226.757C52.6502 209.906 44.9761 190.127 40.0352 179.01C35.0768 167.893 23.7583 167.63 20.7096 147.01C20.6921 147.01 59.0979 142.661 63.2153 149.202Z" fill="#292C47"/>
<path d="M36.7063 49.0617C36.7063 49.0617 46.6056 45.3619 51.161 52.9018C55.7165 60.4417 55.2784 75.5389 50.3025 77.3801C45.3091 79.2387 37.8276 78.2568 35.2696 73.54C32.7115 68.8232 30.4163 62.0022 30.5214 57.4432C30.6265 52.9018 34.1132 50.3768 36.7063 49.0617Z" fill="#EEA886"/>
<path d="M49.2336 77.7304C49.2336 77.7304 48.8131 80.3957 49.4964 81.7283C50.1797 83.0434 36.6711 83.0785 36.6711 83.0785C36.6711 83.0785 35.5673 75.9244 33.4999 69.8574C31.4324 63.808 49.2336 77.7304 49.2336 77.7304Z" fill="#EEA886"/>
<path d="M33.5001 69.8576C33.5001 69.8576 34.4287 71.4006 38.2307 70.8044C42.0327 70.2083 46.6758 65.1408 48.2702 64.5797C49.8646 64.0186 49.8821 63.0892 49.8821 63.0892L50.8808 64.5446L52.5628 64.6498C52.5628 64.6498 51.021 60.1259 53.3512 58.2672C55.664 56.4261 50.9334 43.6083 38.7388 47.8692C38.7388 47.8692 29.3651 50.4468 29.7155 55.7773C30.0484 61.1254 31.4151 67.2099 33.5001 69.8576Z" fill="#292C47"/>
<path d="M50.3023 81.5705C50.3023 81.5705 50.2672 79.0456 49.1284 78.8176C47.9895 78.5721 36.5484 77.4675 35.1467 78.0286V80.9568C35.1292 80.9393 37.8274 82.6051 50.3023 81.5705Z" fill="#E2D2CA"/>
<path d="M49.6192 61.1605C49.4089 60.2662 47.1312 57.7062 46.2727 60.4416C45.3967 63.177 47.5868 66.8592 48.8132 66.5436C50.0222 66.228 50.1623 63.4224 49.6192 61.1605Z" fill="#EEA886"/>
<path d="M69.225 85.3756C61.3757 84.341 50.3025 81.5706 50.3025 81.5706L35.1469 80.9569C35.1469 80.9569 21.2353 84.0254 15.7513 86.4978C15.2256 86.7257 15.2256 98.9123 13.8064 102.121L18.3444 111.713C18.3444 111.713 20.9725 130.72 21.5156 139.172C21.7609 143.047 16.1017 175.556 16.1017 175.556C16.1017 175.556 22.1639 177.344 32.5188 178.484C42.8736 179.624 68.7169 178.063 68.8921 176.853C69.0498 175.626 63.8812 131.299 63.6534 129.002C63.303 125.477 64.8623 106.768 64.8623 106.768C67.2452 104.909 88.2352 95.1599 93.947 90.0924C95.4889 88.7247 101.937 82.4298 103.776 80.2555C110.276 72.5578 115.62 65.9473 116.269 64.527C117.005 63.7204 108.962 59.3543 108.244 59.1088C107.631 58.8984 99.0631 70.4361 95.6816 74.1009C94.1748 75.7316 87.9023 80.3081 87.9023 80.3081C87.9023 80.3081 74.1309 85.6561 69.225 85.3756Z" fill="#FFC655"/>
<path d="M33.8854 49.9558C33.8854 49.9558 21.2704 50.9377 33.5 69.8575L33.8854 49.9558Z" fill="#292C47"/>
<path d="M119.352 49.7629L120.386 48.1848L118.476 48.4303L119.352 49.7629Z" fill="#DFE1E8"/>
<path d="M522 16.7632H463.007V59.5475V68.5603L472.013 59.5475H522V16.7632Z" fill="#518AFA"/>
<path d="M338.346 281.325L327.974 212.221L329.971 211.905L340.361 281.009L338.346 281.325Z" fill="#5C5049"/>
<path d="M325.679 281.325L315.289 212.221L317.286 211.905L327.676 281.009L325.679 281.325Z" fill="#5C5049"/>
<path d="M263.234 281.325L261.237 281.009L271.609 211.905L273.606 212.221L263.234 281.325Z" fill="#5C5049"/>
<path d="M331.215 212.922L339.345 127.284C339.345 127.284 325.118 125.425 316.533 125.881L303.62 212.922H331.215Z" fill="#6B5A65"/>
<path d="M331.215 208.574H303.62V212.922H331.215V208.574Z" fill="#FAB46C"/>
<path d="M285.556 209.433L281.245 127.827C281.245 127.827 317.251 123.917 339.362 127.284L285.556 209.433Z" fill="#6B5A65"/>
<path d="M259.274 279.028C259.274 279.028 256.611 281.36 254.211 284.954C251.811 288.549 245.468 288.742 245.188 293.652C244.907 298.561 253.825 298.701 258.503 297.106C263.182 295.51 263.9 290.723 266.721 289.513C269.559 288.321 271.013 287.339 270.803 285.007C270.575 282.675 269.016 278.87 269.016 278.87C269.016 278.87 267.264 279.431 266.23 279.554C265.196 279.676 261.71 279.712 259.274 279.028Z" fill="#061E3A"/>
<path d="M291.338 146.151C291.338 146.151 289.55 156.812 288.096 163.861C287.518 166.719 286.992 168.981 286.66 169.7C286.239 170.594 282.875 174.206 278.758 178.449C271.521 185.902 261.973 195.265 261.973 195.265L258.241 188.181C258.241 188.181 266.721 178.239 272.468 171.593C275.131 168.525 277.198 166.158 277.584 165.825C278.793 164.755 280.177 154.146 282.139 145.414C284.101 136.682 288.026 131.843 288.026 131.843L291.338 146.151Z" fill="#3C6BE0"/>
<path d="M278.758 178.467C271.521 185.919 261.973 195.283 261.973 195.283L258.241 188.199C258.241 188.199 266.721 178.256 272.468 171.611C274.237 172.47 277.479 174.539 278.758 178.467Z" fill="#EEA886"/>
<path d="M325.1 276.1C325.1 276.1 327.553 278.817 329.007 280.466C330.462 282.114 336.016 285.06 336.051 289.952C336.086 295.247 331.951 294.791 328.272 294.598C324.592 294.406 321.614 291.863 320.054 288.865C318.495 285.866 314.378 285.077 314.097 282.657C313.817 280.238 316.007 275.872 316.007 275.872L325.1 276.1Z" fill="#061E3A"/>
<path d="M316.48 271.347L316.007 275.854C316.007 275.854 323.681 279.203 325.1 276.099L324.767 272.084L316.48 271.347Z" fill="#5F8CC9"/>
<path d="M259.695 275.766L259.274 279.028C259.274 279.028 263.917 280.658 269.016 278.887L269.121 275.977L259.695 275.766Z" fill="#5F8CC9"/>
<path d="M325.538 193.845C325.801 194.792 276.409 193.845 276.409 193.845C276.409 193.845 290.076 183.885 290.952 181.237C291.845 178.572 287.483 162.633 286.905 157.425C286.449 153.27 285.31 134.683 288.043 131.843C290.899 128.879 301.202 125.758 301.202 125.758L316.217 126.319C316.217 126.319 318.687 126.845 320.475 127.669C322.244 128.493 332.371 132.106 334.018 137.173C335.665 142.241 323.909 158.53 323.909 158.53C323.909 158.53 323.891 159.267 323.856 160.459C323.804 162.055 323.751 164.492 323.681 167.122C323.593 170.541 323.541 174.294 323.541 177.047C323.523 183.482 325.258 192.88 325.538 193.845Z" fill="#3C6BE0"/>
<path d="M325.538 193.845C325.538 193.845 332.266 203.717 332.354 210.468C332.441 217.201 329.866 235.91 329.673 239.61C329.48 243.31 325.994 274.171 325.994 274.171C325.994 274.171 323.313 276.678 315.236 273.539C315.236 273.539 313.449 244.274 313.256 241.136C313.063 237.997 313.063 223.566 311.259 221.479C309.454 219.393 298.539 212.835 297.119 211.607C295.7 210.38 270.891 216.289 268.297 216.973C261.569 218.726 264.636 230.439 266.125 235.682C268.613 244.467 270.785 276.205 270.785 276.205C270.785 276.205 265.985 278.239 257.978 276.52C257.978 276.52 242.209 219.235 241.701 213.536C241.193 207.837 240.947 198.439 279.791 191.302L325.538 193.845Z" fill="#061E3A"/>
<path d="M305.319 93.1262C305.319 93.1262 292.284 90.1804 295.262 106.593C298.241 123.005 301.377 124.303 309.226 120.901C317.093 117.499 316.392 106.996 316.778 101.823C317.198 96.6857 309.472 93.3015 305.319 93.1262Z" fill="#EEA886"/>
<path d="M301.868 129.984C301.868 129.984 307.632 136.103 316.76 130.545C316.76 130.545 314.71 117.271 315.797 110.819C316.865 104.348 303.9 120.831 303.9 120.831C304.075 120.918 304.18 121.532 304.198 122.409C304.215 123.145 304.18 124.092 304.058 125.039C303.812 127.178 303.129 129.458 301.868 129.984Z" fill="#EEA886"/>
<path d="M312.31 104.418C312.485 102.963 315.341 102.437 315.569 104.611C315.797 106.786 314.272 110.591 313.186 110.222C312.1 109.854 312.082 106.417 312.31 104.418Z" fill="#EEA886"/>
<path d="M316.165 110.257C316.165 110.257 315.832 105.085 313.939 104.927C312.047 104.769 311.767 106.856 311.767 106.856L309.857 107.224C309.857 107.224 310.453 102.7 308.578 101.893C306.686 101.104 296.366 104.383 294.859 103.051C293.352 101.718 294.053 92.53 296.787 91.2675C299.52 90.005 307.089 87.182 312.625 90.9344C312.625 90.9344 316.936 90.4434 317.584 93.9328C318.197 97.4046 317.339 107.662 316.165 110.257Z" fill="#3A3F47"/>
<path d="M304.075 125.039C313.484 122.128 314.185 116.465 314.202 116.377C311.101 121.707 304.215 122.409 304.215 122.409C304.233 123.145 304.198 124.075 304.075 125.039Z" fill="#A77860"/>
<path d="M320.615 127.739C320.615 127.739 313.729 141.469 302.586 140.592C291.46 139.698 300.694 125.898 301.202 125.775C301.763 125.635 312.625 122.917 320.615 127.739Z" fill="#EEA886"/>
<path d="M270.75 193.143C270.75 193.143 304.863 197.352 325.521 193.845L286.029 188.9C286.046 188.9 285.801 189.917 270.75 193.143Z" fill="#19568E"/>
<path d="M296.278 187.339L293.738 188.619C293.738 188.619 294.316 192.652 295.718 193.88L298.574 193.161C298.556 193.178 297.96 188.742 296.278 187.339Z" fill="#EEA886"/>
<path d="M335.735 179.081C335.227 179.677 328.517 182.36 320.948 185.288C310.593 189.286 298.924 193.056 298.924 193.056L296.278 187.357C296.278 187.357 308.508 180.711 316.76 176.047C320.668 173.838 323.681 172.084 324.102 171.681C325.433 170.419 325.766 168.385 324.802 164.843C323.821 161.301 321.579 145.029 321.316 143.135C321.071 141.241 321.947 136.174 326.695 135.911C331.443 135.665 333.861 136.998 333.861 136.998C333.861 136.998 335.052 137.489 335.928 149.009C336.822 160.529 336.944 177.678 335.735 179.081Z" fill="#3C6BE0"/>
<path d="M323.839 160.441C323.786 162.037 323.734 164.474 323.664 167.104C319.038 155.742 321.701 146.677 321.754 146.536C321.263 149.622 323.804 160.301 323.839 160.441Z" fill="#19568E"/>
<path d="M288.096 163.878C287.518 166.736 286.992 168.998 286.659 169.717C285.082 162.055 286.502 152.253 286.502 152.253C286.712 156.917 288.096 163.878 288.096 163.878Z" fill="#19568E"/>
<path d="M320.948 185.288C310.593 189.286 298.556 193.178 298.556 193.178L296.278 187.357C296.278 187.357 308.508 180.711 316.76 176.047C316.76 176.029 319.756 177.502 320.948 185.288Z" fill="#EEA886"/>
<path d="M295.525 193.512L247.045 192.793L271.521 205.225L295.525 193.512Z" fill="#2B2A2A"/>
<path d="M271.521 205.225L295.525 195.931V193.512L269.629 202.858L271.521 205.225Z" fill="#3F3F3F"/>
<path d="M294.281 188.725C294.281 188.725 291.25 188.251 289.165 187.76C287.553 187.392 283.523 187.901 282.489 188.935C281.456 189.97 278.197 197.229 277.584 197.667C276.97 198.106 277.899 199.14 278.985 198.614C278.985 198.614 279.984 201.788 282.437 200.596C284.89 199.403 286.554 196.808 287.851 196.352C289.13 195.896 296.629 193.599 296.629 193.599C296.629 193.599 296.208 187.953 294.281 188.725Z" fill="#EEA886"/>
<path d="M283.225 188.479C283.225 188.479 281.281 189.426 280.773 189.847C280.264 190.268 278.215 191.811 277.706 192.179C277.216 192.547 278.46 193.564 282.139 191.968C285.819 190.355 283.225 188.479 283.225 188.479Z" fill="#EEA886"/>
<path d="M271.521 205.225L257.102 165.824L210.619 166.578L224.355 202.91L271.521 205.225Z" fill="#191818"/>
<path d="M242.226 183.254C243.645 186.094 243.207 189.18 241.263 190.162C239.318 191.144 236.585 189.619 235.165 186.796C233.746 183.955 234.184 180.869 236.111 179.887C238.074 178.905 240.807 180.431 242.226 183.254Z" fill="#3F3F3F"/>
<path d="M510.857 28.5288H474.133C473.485 28.5288 472.942 28.0027 472.942 27.3364V25.583C472.942 24.9342 473.467 24.3906 474.133 24.3906H510.857C511.505 24.3906 512.048 24.9167 512.048 25.583V27.3364C512.048 28.0027 511.505 28.5288 510.857 28.5288Z" fill="white"/>
<path d="M510.857 36.9804H474.133C473.485 36.9804 472.942 36.4544 472.942 35.7881V34.0346C472.942 33.3859 473.467 32.8423 474.133 32.8423H510.857C511.505 32.8423 512.048 33.3683 512.048 34.0346V35.7881C512.048 36.4544 511.505 36.9804 510.857 36.9804Z" fill="white"/>
<path d="M510.857 45.4321H474.133C473.485 45.4321 472.942 44.9061 472.942 44.2398V42.4863C472.942 41.8375 473.467 41.2939 474.133 41.2939H510.857C511.505 41.2939 512.048 41.82 512.048 42.4863V44.2398C512.048 44.9061 511.505 45.4321 510.857 45.4321Z" fill="white"/>
</g>
<defs>
<clipPath id="clip0">
<rect width="522" height="298" fill="white"/>
</clipPath>
</defs>
</svg>
