<svg width="571" height="490" viewBox="0 0 571 490" fill="none" xmlns="http://www.w3.org/2000/svg">
<circle cx="323" cy="245" r="245" fill="#EDF1FE"/>
<path d="M422.028 283.926C423.029 277.788 428.296 273.244 434.525 273.166C461.554 272.806 530.371 272.188 534.064 275.113C538.665 278.765 541.068 280.634 540.708 286.421C540.379 291.739 534.573 383.617 534.573 383.617H405.774L422.028 283.926Z" fill="#4D4D4D"/>
<path d="M519.9 383.664C519.892 383.664 519.877 383.57 519.861 383.39C519.845 383.187 519.822 382.929 519.791 382.592C519.736 381.865 519.665 380.841 519.564 379.527C519.462 378.198 519.36 376.571 519.298 374.671C519.227 372.778 519.11 370.62 519.11 368.235C519.094 367.038 519.078 365.795 519.071 364.489C519.063 363.183 519.102 361.83 519.118 360.43C519.125 357.623 519.282 354.628 519.415 351.476C519.775 345.173 520.37 338.26 521.332 331.042C522.334 323.824 523.602 316.998 524.947 310.827C525.66 307.754 526.317 304.829 527.053 302.116C527.412 300.763 527.733 299.441 528.093 298.19C528.453 296.939 528.805 295.735 529.134 294.593C529.776 292.294 530.464 290.245 531.036 288.439C531.599 286.624 532.131 285.084 532.585 283.833C533.031 282.597 533.375 281.627 533.618 280.939C533.735 280.626 533.829 280.376 533.9 280.188C533.962 280.024 534.001 279.938 534.009 279.938C534.017 279.938 533.994 280.032 533.939 280.204C533.876 280.399 533.798 280.65 533.696 280.963C533.469 281.651 533.148 282.628 532.734 283.879C532.303 285.138 531.787 286.687 531.247 288.509C530.699 290.323 530.026 292.372 529.4 294.671C529.079 295.821 528.735 297.017 528.383 298.276C528.031 299.527 527.718 300.849 527.366 302.202C526.638 304.908 526.004 307.84 525.3 310.906C523.977 317.068 522.725 323.887 521.723 331.089C520.761 338.299 520.15 345.205 519.775 351.492C519.634 354.636 519.47 357.631 519.438 360.43C519.415 361.83 519.368 363.183 519.368 364.481C519.376 365.779 519.376 367.03 519.384 368.219C519.368 370.604 519.47 372.755 519.517 374.647C519.556 376.54 519.634 378.166 519.712 379.503C519.775 380.817 519.822 381.842 519.861 382.569C519.869 382.905 519.884 383.163 519.892 383.367C519.908 383.57 519.908 383.664 519.9 383.664Z" fill="#263238"/>
<path d="M447.468 319.406C447.468 319.39 447.531 319.367 447.664 319.328C447.797 319.297 448 319.273 448.266 319.297C448.791 319.336 449.565 319.641 450.152 320.407C450.763 321.166 450.911 322.472 450.34 323.613C450.066 324.184 449.644 324.716 449.08 325.123C448.517 325.529 447.812 325.772 447.085 325.819C446.357 325.866 445.614 325.701 445.027 325.287C444.432 324.888 444.072 324.239 443.962 323.613C443.743 322.339 444.26 321.189 444.948 320.532C446.396 319.297 447.679 319.258 447.648 319.375C447.64 319.39 447.578 319.383 447.452 319.414C447.327 319.445 447.139 319.5 446.912 319.602C446.459 319.797 445.786 320.126 445.16 320.743C444.565 321.353 444.119 322.432 444.338 323.543C444.448 324.09 444.761 324.63 445.261 324.966C445.754 325.318 446.412 325.459 447.061 325.42C447.719 325.381 448.352 325.162 448.853 324.802C449.362 324.442 449.753 323.965 450.004 323.457C450.528 322.432 450.434 321.283 449.917 320.587C449.417 319.868 448.72 319.547 448.243 319.461C447.758 319.359 447.476 319.445 447.468 319.406Z" fill="#263238"/>
<path d="M467.673 307.731C467.666 307.809 466.343 307.566 464.214 307.77C462.109 307.957 459.167 308.716 456.499 310.577C453.83 312.446 452.116 314.949 451.224 316.864C450.309 318.796 450.09 320.125 450.011 320.102C449.988 320.094 450.027 319.766 450.152 319.171C450.285 318.585 450.536 317.74 450.966 316.739C451.811 314.753 453.533 312.157 456.272 310.241C459.011 308.325 462.047 307.59 464.199 307.48C465.279 307.418 466.163 307.465 466.758 307.551C467.345 307.629 467.673 307.707 467.673 307.731Z" fill="#263238"/>
<path d="M430.315 331.637C430.291 331.629 430.393 331.386 430.612 330.972C430.839 330.557 431.207 329.987 431.747 329.345C432.811 328.055 434.666 326.499 437.123 325.662C439.58 324.825 442.006 324.927 443.634 325.302C444.455 325.482 445.097 325.709 445.527 325.897C445.958 326.084 446.177 326.217 446.169 326.241C446.138 326.311 445.199 325.873 443.579 325.584C441.967 325.287 439.635 325.24 437.256 326.045C434.885 326.859 433.062 328.321 431.966 329.533C430.855 330.753 430.377 331.676 430.315 331.637Z" fill="#263238"/>
<path d="M455.239 334.835C455.208 334.874 454.675 334.546 453.916 333.881C453.157 333.216 452.195 332.176 451.357 330.878C450.52 329.572 449.98 328.274 449.691 327.304C449.401 326.335 449.323 325.709 449.37 325.701C449.495 325.662 450.043 328.11 451.702 330.659C453.322 333.216 455.325 334.733 455.239 334.835Z" fill="#263238"/>
<path d="M490.962 320.493C490.962 320.477 491.024 320.454 491.157 320.415C491.291 320.384 491.494 320.36 491.76 320.384C492.276 320.423 493.059 320.728 493.646 321.494C494.256 322.253 494.405 323.559 493.834 324.7C493.56 325.271 493.137 325.803 492.574 326.21C492.01 326.616 491.306 326.859 490.578 326.906C489.851 326.952 489.107 326.788 488.52 326.374C487.926 325.975 487.573 325.326 487.456 324.7C487.237 323.426 487.753 322.276 488.442 321.619C489.89 320.384 491.173 320.344 491.142 320.462C491.134 320.477 491.071 320.47 490.946 320.501C490.821 320.532 490.633 320.587 490.406 320.689C489.952 320.884 489.279 321.212 488.653 321.83C488.059 322.44 487.613 323.519 487.832 324.63C487.941 325.177 488.254 325.717 488.755 326.053C489.248 326.405 489.905 326.546 490.555 326.507C491.212 326.468 491.846 326.249 492.347 325.889C492.856 325.529 493.247 325.052 493.497 324.544C494.022 323.519 493.928 322.37 493.411 321.674C492.91 320.954 492.214 320.634 491.737 320.548C491.251 320.446 490.97 320.532 490.962 320.493Z" fill="#263238"/>
<path d="M511.167 308.818C511.159 308.896 509.837 308.653 507.708 308.857C505.603 309.044 502.661 309.803 499.992 311.664C497.324 313.533 495.61 316.036 494.718 317.952C493.802 319.883 493.583 321.213 493.505 321.189C493.482 321.181 493.521 320.853 493.646 320.258C493.779 319.672 494.029 318.827 494.46 317.826C495.305 315.84 497.027 313.244 499.765 311.328C502.504 309.412 505.541 308.677 507.693 308.567C508.772 308.505 509.657 308.56 510.251 308.638C510.846 308.716 511.167 308.794 511.167 308.818Z" fill="#263238"/>
<path d="M473.809 332.724C473.785 332.708 473.887 332.473 474.106 332.059C474.333 331.645 474.701 331.074 475.241 330.432C476.305 329.142 478.159 327.586 480.617 326.749C483.074 325.912 485.5 326.014 487.127 326.389C487.949 326.569 488.591 326.796 489.021 326.984C489.451 327.171 489.678 327.304 489.663 327.328C489.631 327.398 488.692 326.96 487.073 326.671C485.461 326.374 483.129 326.327 480.75 327.132C478.379 327.946 476.555 329.408 475.46 330.62C474.348 331.84 473.871 332.763 473.809 332.724Z" fill="#263238"/>
<path d="M498.732 335.922C498.701 335.961 498.169 335.633 497.41 334.968C496.651 334.303 495.688 333.263 494.851 331.965C494.014 330.659 493.474 329.361 493.184 328.391C492.895 327.422 492.816 326.796 492.863 326.788C492.989 326.749 493.536 329.197 495.195 331.746C496.823 334.303 498.819 335.828 498.732 335.922Z" fill="#263238"/>
<path d="M545.262 255.453C510.588 221.225 467.423 213.061 467.423 213.061C441.756 228.349 424.438 254.022 411.252 284.841C433.367 305.291 461.804 324.888 486.141 326.694C524.627 316.966 545.262 255.453 545.262 255.453Z" fill="#E8505B"/>
<g opacity="0.4">
<path opacity="0.4" d="M545.262 255.453C510.588 221.225 467.423 213.061 467.423 213.061C441.756 228.349 424.438 254.022 411.252 284.841C433.367 305.291 461.804 324.888 486.141 326.694C524.627 316.966 545.262 255.453 545.262 255.453Z" fill="#BA9BC9"/>
</g>
<path d="M532.906 282.636C532.898 282.636 532.875 282.558 532.82 282.401C532.765 282.229 532.695 281.995 532.601 281.698C532.405 281.056 532.131 280.134 531.771 278.945C531.059 276.521 530.026 273.01 528.727 268.599L528.884 268.685C524.212 270.202 518.445 272.071 511.879 274.198L511.989 274.097C511.973 274.128 511.973 274.136 511.942 274.183C511.895 274.245 511.777 274.269 511.73 274.237C511.668 274.222 511.613 274.12 511.621 274.128C511.597 274.073 511.597 274.034 511.59 274.003L511.574 273.823L511.558 273.471L511.55 272.783C511.55 272.321 511.55 271.86 511.55 271.391C511.558 270.452 511.558 269.506 511.566 268.536C511.574 266.605 511.574 264.619 511.543 262.578C511.511 260.537 511.457 258.449 511.339 256.314C511.214 254.187 511.05 252.005 510.666 249.839L510.909 249.995C505.963 251.145 500.775 252.349 495.446 253.584C492.245 254.327 489.099 255.055 486.024 255.766L485.82 255.813L485.781 255.61C484.388 248.314 483.066 241.377 481.837 234.98L482.064 235.121C472.58 237.678 464.058 238.883 457.367 239.438L457.242 239.446L457.226 239.321C456.577 234.003 456.06 229.78 455.708 226.863C455.544 225.432 455.411 224.314 455.325 223.548C455.286 223.18 455.254 222.898 455.231 222.687C455.215 222.492 455.207 222.398 455.215 222.398C455.223 222.398 455.239 222.492 455.27 222.687C455.301 222.898 455.341 223.18 455.395 223.54C455.505 224.314 455.654 225.417 455.849 226.848C456.233 229.757 456.788 233.979 457.485 239.289L457.344 239.18C464.019 238.586 472.517 237.342 481.963 234.769L482.158 234.715L482.197 234.91C483.426 241.307 484.764 248.236 486.173 255.532L485.93 255.375C489.005 254.664 492.159 253.929 495.352 253.186C500.681 251.95 505.869 250.754 510.815 249.604L511.018 249.557L511.057 249.76C511.449 251.966 511.605 254.147 511.723 256.29C511.84 258.425 511.887 260.521 511.91 262.57C511.934 264.611 511.934 266.605 511.918 268.536C511.91 269.506 511.903 270.452 511.895 271.391C511.895 271.86 511.895 272.321 511.895 272.783L511.903 273.463L511.918 273.799L511.934 273.956L511.942 273.987C511.926 274.003 511.981 273.971 511.903 274.011C511.832 274.05 511.824 274.018 511.809 274.057C511.809 274.104 511.809 274.018 511.77 274.034C511.644 273.956 511.676 273.979 511.676 273.979L511.59 273.94L511.785 273.878C518.359 271.79 524.141 269.944 528.821 268.458L528.938 268.419L528.97 268.536C530.222 272.963 531.223 276.482 531.912 278.914C532.241 280.11 532.499 281.033 532.679 281.682C532.757 281.987 532.82 282.222 532.867 282.394C532.89 282.55 532.906 282.628 532.906 282.636Z" fill="#E8505B"/>
<path d="M526.27 293.522C526.262 293.522 526.239 293.459 526.192 293.342C526.137 293.201 526.074 293.021 525.988 292.794C525.808 292.286 525.55 291.567 525.214 290.636C524.541 288.72 523.57 285.944 522.334 282.417L522.467 282.487C517.263 283.872 510.33 285.725 502.199 287.899L502.011 287.946L501.988 287.75C501.503 284.028 500.97 280.024 500.376 275.809C499.773 271.594 499.147 267.16 498.333 262.593L498.576 262.75C493.802 263.86 488.833 265.01 483.739 266.198C480.327 266.988 476.97 267.77 473.691 268.529L473.488 268.576L473.449 268.372C472.056 261.068 470.733 254.14 469.505 247.743L469.731 247.884C460.247 250.441 451.725 251.645 445.035 252.2L444.909 252.208L444.894 252.083C444.244 246.765 443.728 242.542 443.375 239.626C443.211 238.194 443.078 237.076 442.992 236.31C442.953 235.942 442.922 235.661 442.898 235.457C442.882 235.262 442.875 235.168 442.883 235.168C442.89 235.168 442.906 235.262 442.937 235.457C442.969 235.669 443.008 235.95 443.063 236.31C443.164 237.076 443.321 238.187 443.516 239.618C443.9 242.527 444.455 246.75 445.152 252.059L445.011 251.95C451.686 251.356 460.184 250.112 469.63 247.539L469.818 247.485L469.857 247.68C471.085 254.077 472.423 261.006 473.832 268.302L473.589 268.145C476.868 267.387 480.225 266.605 483.637 265.815C488.732 264.634 493.701 263.485 498.474 262.374L498.678 262.327L498.717 262.531C499.531 267.105 500.149 271.547 500.744 275.762C501.33 279.985 501.855 283.981 502.324 287.711L502.113 287.571C510.259 285.443 517.208 283.637 522.412 282.276L522.514 282.253L522.545 282.347C523.742 285.889 524.681 288.681 525.323 290.597C525.636 291.535 525.871 292.263 526.043 292.771C526.121 293.005 526.176 293.193 526.223 293.334C526.254 293.459 526.278 293.522 526.27 293.522Z" fill="#FAFAFA"/>
<path d="M512.701 310.382C512.701 310.382 512.701 310.163 512.732 309.733C512.771 309.287 512.818 308.661 512.889 307.848C513.037 306.175 513.249 303.742 513.522 300.638L513.656 300.74C508.499 302.452 501.284 304.845 492.636 307.715L492.456 307.778L492.417 307.59C490.758 298.988 488.794 288.822 486.673 277.803L486.916 277.96C482.776 278.922 478.465 279.922 474.059 280.947C469.958 281.893 465.936 282.832 462.031 283.731L461.828 283.778L461.789 283.574C460.396 276.27 459.073 269.334 457.853 262.945L458.079 263.086C448.587 265.643 440.073 266.847 433.382 267.403L433.257 267.41L433.242 267.285C432.592 261.96 432.076 257.737 431.723 254.82C431.559 253.389 431.426 252.278 431.34 251.504C431.301 251.145 431.27 250.855 431.246 250.652C431.23 250.456 431.223 250.363 431.23 250.363C431.238 250.363 431.254 250.456 431.285 250.652C431.317 250.855 431.356 251.137 431.41 251.504C431.512 252.271 431.669 253.381 431.864 254.812C432.248 257.721 432.803 261.944 433.5 267.262L433.359 267.152C440.026 266.558 448.517 265.315 457.978 262.742L458.166 262.687L458.205 262.883C459.433 269.272 460.771 276.2 462.18 283.504L461.937 283.348C465.842 282.441 469.865 281.51 473.965 280.556C478.371 279.539 482.683 278.538 486.822 277.576L487.026 277.53L487.065 277.733C489.162 288.751 491.103 298.925 492.746 307.527L492.535 307.402C501.197 304.579 508.428 302.233 513.593 300.552L513.742 300.505L513.726 300.654C513.413 303.758 513.163 306.182 512.998 307.856C512.912 308.669 512.842 309.295 512.795 309.74C512.74 310.163 512.701 310.382 512.701 310.382Z" fill="#E8505B"/>
<path d="M484.725 326.561C484.717 326.561 484.701 326.515 484.67 326.413C484.639 326.296 484.6 326.155 484.545 325.967C484.435 325.553 484.287 324.974 484.099 324.231C483.715 322.69 483.168 320.462 482.479 317.647C481.806 314.808 480.992 311.367 480.053 307.449C479.153 303.516 478.105 299.089 477.173 294.233L477.393 294.374C469.966 296.102 461.491 298.073 452.516 300.169L452.312 300.216L452.273 300.004C452.14 299.324 451.999 298.589 451.858 297.854C450.622 291.402 449.432 285.185 448.321 279.375L448.564 279.524C439.22 282.049 430.675 283.277 423.867 283.84L423.734 283.848L423.718 283.715C423.084 278.476 422.568 274.253 422.208 271.312C422.043 269.874 421.91 268.748 421.816 267.958C421.777 267.59 421.746 267.301 421.723 267.09C421.707 266.894 421.699 266.792 421.707 266.792C421.715 266.792 421.73 266.894 421.762 267.082C421.793 267.293 421.84 267.582 421.895 267.95C422.004 268.732 422.161 269.858 422.356 271.297C422.74 274.229 423.303 278.452 423.992 283.684L423.843 283.559C430.628 282.949 439.15 281.682 448.462 279.148L448.665 279.093L448.705 279.297C449.824 285.107 451.021 291.324 452.257 297.776C452.398 298.511 452.539 299.246 452.672 299.926L452.429 299.77C461.413 297.697 469.888 295.735 477.322 294.022L477.51 293.983L477.541 294.171C478.457 299.019 479.482 303.445 480.358 307.387C481.258 311.32 482.049 314.753 482.698 317.607C483.348 320.43 483.864 322.659 484.224 324.208C484.388 324.958 484.521 325.537 484.615 325.959C484.655 326.147 484.686 326.296 484.709 326.413C484.717 326.507 484.725 326.561 484.725 326.561Z" fill="#FAFAFA"/>
<path d="M471.5 323.77C471.477 323.777 471.375 323.394 471.211 322.683C471.038 321.908 470.811 320.9 470.545 319.672C469.99 317.107 469.246 313.525 468.425 309.467L468.667 309.623C467.916 309.795 467.126 309.983 466.327 310.171C461.742 311.234 457.586 312.172 454.582 312.837C453.126 313.15 451.921 313.408 451.013 313.596C450.168 313.768 449.698 313.846 449.691 313.823C449.683 313.799 450.145 313.658 450.974 313.439C451.874 313.213 453.071 312.915 454.519 312.548C457.516 311.813 461.656 310.827 466.241 309.772C467.04 309.584 467.83 309.404 468.581 309.232L468.785 309.185L468.824 309.389C469.63 313.447 470.326 317.029 470.811 319.609C471.038 320.845 471.218 321.869 471.359 322.651C471.477 323.363 471.531 323.762 471.5 323.77Z" fill="#E8505B"/>
<path d="M442.648 309.514C442.616 309.521 442.515 309.123 442.358 308.411C442.186 307.621 441.967 306.597 441.709 305.369C441.177 302.796 440.472 299.246 439.721 295.312C439.674 295.07 439.627 294.835 439.588 294.609L439.838 294.765C436.121 295.774 432.741 296.493 430.291 296.931C429.063 297.15 428.077 297.314 427.388 297.408C426.7 297.502 426.324 297.541 426.316 297.518C426.308 297.486 426.684 297.4 427.365 297.26C428.116 297.103 429.078 296.9 430.244 296.657C432.678 296.141 436.035 295.383 439.745 294.374L439.956 294.319L439.995 294.538C440.034 294.757 440.081 295 440.128 295.242C440.879 299.175 441.544 302.741 441.998 305.322C442.21 306.558 442.382 307.59 442.523 308.388C442.624 309.107 442.671 309.514 442.648 309.514Z" fill="#E8505B"/>
<path d="M413.608 286.984C413.498 287 413.263 285.897 413.091 284.528C412.919 283.16 412.864 282.042 412.982 282.026C413.091 282.01 413.326 283.113 413.498 284.482C413.67 285.85 413.717 286.968 413.608 286.984Z" fill="#E8505B"/>
<path d="M538.744 271.203C538.736 271.203 538.72 271.14 538.697 271.015C538.666 270.867 538.634 270.687 538.587 270.444C538.493 269.92 538.352 269.178 538.18 268.216C537.828 266.245 537.327 263.383 536.686 259.77L536.819 259.864C533.532 260.388 529.525 261.029 524.995 261.756L524.838 261.78L524.815 261.623C523.625 254.523 522.201 245.975 520.628 236.583L520.863 236.74C515.776 237.921 510.33 239.188 504.719 240.493C501.933 241.143 499.186 241.776 496.494 242.402L496.299 242.449L496.252 242.253C494.507 235.152 492.879 228.427 491.658 222.218L491.87 222.367C482.236 223.845 473.996 225.111 467.853 226.058L467.736 226.073L467.72 225.956C467.259 222.108 466.891 219.066 466.633 216.963C466.515 215.938 466.421 215.141 466.359 214.578C466.335 214.32 466.312 214.116 466.296 213.96C466.28 213.819 466.28 213.749 466.288 213.749C466.296 213.749 466.312 213.819 466.327 213.952C466.351 214.108 466.382 214.304 466.421 214.562C466.5 215.125 466.609 215.915 466.758 216.939C467.04 219.043 467.439 222.085 467.955 225.925L467.822 225.823C473.965 224.845 482.19 223.54 491.815 222.007L491.987 221.976L492.018 222.148C493.255 228.325 494.89 235.059 496.643 242.151L496.4 242.003C499.085 241.377 501.831 240.744 504.625 240.095C510.236 238.797 515.682 237.537 520.769 236.357L520.972 236.31L521.004 236.513C522.545 245.905 523.946 254.468 525.112 261.576L524.932 261.443C529.471 260.748 533.485 260.138 536.772 259.629L536.881 259.614L536.897 259.723C537.492 263.344 537.961 266.206 538.282 268.184C538.431 269.146 538.548 269.897 538.634 270.421C538.666 270.663 538.697 270.851 538.72 271C538.744 271.133 538.752 271.203 538.744 271.203Z" fill="#FAFAFA"/>
<path d="M541.389 254.875C541.389 254.882 541.318 254.906 541.17 254.953C541.005 255.008 540.786 255.07 540.52 255.148C539.957 255.336 539.096 255.524 538.039 255.915C535.895 256.611 532.859 257.831 529.338 259.778C525.808 261.717 521.864 264.493 517.928 268.075C513.992 271.657 510.111 276.083 506.597 281.119C503.107 286.178 500.258 291.316 497.911 296.094C495.563 300.88 493.677 305.299 492.143 309.029C490.61 312.759 489.42 315.801 488.583 317.897C488.168 318.921 487.847 319.734 487.62 320.305C487.511 320.563 487.425 320.767 487.362 320.931C487.3 321.072 487.268 321.142 487.26 321.142C487.253 321.142 487.276 321.064 487.323 320.923C487.378 320.759 487.456 320.548 487.542 320.282C487.753 319.695 488.059 318.882 488.434 317.842C489.225 315.731 490.375 312.673 491.87 308.927C493.372 305.181 495.234 300.747 497.566 295.938C499.898 291.136 502.747 285.975 506.253 280.892C509.79 275.832 513.695 271.391 517.67 267.809C521.645 264.22 525.628 261.459 529.197 259.543C532.757 257.619 535.825 256.431 537.993 255.774C539.065 255.406 539.925 255.242 540.497 255.078C540.771 255.015 540.982 254.961 541.154 254.922C541.31 254.882 541.389 254.867 541.389 254.875Z" fill="#263238"/>
<path d="M253.766 375.711C253.508 375.765 252.412 376.884 253.985 378.659C255.558 380.434 265.034 385.29 266.787 382.389C268.54 379.488 264.314 377.47 264.314 377.47L253.766 375.711Z" fill="#FFBE9D"/>
<path d="M264.181 372.583C264.181 372.583 273.963 371.504 277.954 372.012C282.289 372.567 286.875 370.377 289.598 367.398C292.322 364.411 293.034 360.485 293.034 360.485L299.255 356.129C299.255 356.129 299.928 341.341 290.06 343.734L278.533 344.141C278.533 344.141 255.855 347.895 252.342 350.718C252.342 350.718 248.069 354.862 246.825 356.473C246.355 357.075 245.948 363.175 250.284 365.247C250.284 365.247 247.732 368.516 249.978 370.354L251.035 371.159C251.035 371.159 249.571 374.413 250.949 375.351C252.326 376.282 263.211 379.582 266.302 377.431C269.409 375.281 265.825 372.802 264.181 372.583Z" fill="#FFBE9D"/>
<path d="M251.989 364.677C251.997 364.645 252.451 364.708 253.273 364.817C254.094 364.927 255.284 365.068 256.755 365.177C257.491 365.232 258.297 365.271 259.165 365.294C260.034 365.318 260.965 365.287 261.959 365.357C262.945 365.443 264.025 365.631 264.956 366.303C265.833 366.952 266.592 368.055 266.419 369.314C266.333 369.932 265.981 370.471 265.543 370.862C265.097 371.246 264.58 371.504 264.064 371.683C263.015 372.043 261.982 372.145 260.996 372.246C259.024 372.411 257.248 372.301 255.769 372.145C254.29 371.988 253.108 371.793 252.287 371.652C251.473 371.511 251.019 371.418 251.027 371.386C251.035 371.355 251.489 371.402 252.31 371.496C253.132 371.582 254.321 371.738 255.793 371.855C257.264 371.973 259.024 372.051 260.957 371.871C261.92 371.762 262.945 371.644 263.923 371.3C264.408 371.128 264.878 370.886 265.269 370.55C265.645 370.213 265.942 369.752 266.013 369.244C266.161 368.211 265.512 367.203 264.714 366.608C263.9 366.006 262.875 365.803 261.928 365.709C260.965 365.623 260.034 365.646 259.157 365.607C258.281 365.576 257.467 365.513 256.732 365.443C255.253 365.302 254.063 365.107 253.249 364.958C252.428 364.817 251.989 364.708 251.989 364.677Z" fill="#EB996E"/>
<path d="M251.199 357.615C251.207 357.584 251.661 357.646 252.475 357.756C253.288 357.865 254.478 358.022 255.941 358.147C257.405 358.272 259.158 358.374 261.106 358.374C262.069 358.389 263.156 358.319 264.197 358.835C264.706 359.093 265.152 359.539 265.371 360.094C265.598 360.641 265.637 361.259 265.535 361.846C265.316 363.042 264.479 363.981 263.555 364.559C262.624 365.154 261.576 365.427 260.59 365.529C258.602 365.701 256.849 365.396 255.386 365.287C253.969 365.146 252.795 365.021 251.911 364.935C251.09 364.841 250.636 364.778 250.644 364.747C250.644 364.716 251.105 364.731 251.927 364.77C252.819 364.825 253.993 364.903 255.417 364.997C256.888 365.068 258.649 365.341 260.558 365.154C261.505 365.052 262.491 364.778 263.352 364.223C264.205 363.683 264.956 362.823 265.144 361.775C265.355 360.735 264.941 359.617 264.025 359.195C263.133 358.741 262.084 358.772 261.122 358.757C259.165 358.733 257.405 358.608 255.933 358.444C254.462 358.28 253.281 358.076 252.467 357.92C251.637 357.756 251.191 357.638 251.199 357.615Z" fill="#EB996E"/>
<path d="M256.246 358.475C256.129 358.499 255.855 357.646 255.354 356.669C254.861 355.691 254.329 354.964 254.415 354.894C254.494 354.815 255.198 355.457 255.714 356.489C256.246 357.513 256.348 358.46 256.246 358.475Z" fill="#EB996E"/>
<path d="M286.163 344.329L276.913 343.101C276.913 343.101 250.776 337.775 250.518 338.464C250.26 339.152 248.977 339.394 249.939 342.194C250.902 344.993 265.989 347.48 266.662 348.372C267.335 349.263 267.812 354.448 273.736 356.833C279.66 359.21 283.33 358.413 283.33 358.413" fill="#FFBE9D"/>
<path d="M283.338 358.405C283.338 358.413 283.275 358.436 283.142 358.46C283.009 358.483 282.806 358.514 282.54 358.546C282.008 358.6 281.225 358.624 280.216 358.546C279.206 358.467 277.978 358.28 276.593 357.904C275.215 357.513 273.635 357.036 272.046 356.137C270.457 355.253 268.978 353.783 267.969 351.883C267.452 350.945 267.1 349.873 266.709 348.841C266.662 348.708 266.599 348.598 266.537 348.497C266.49 348.426 266.388 348.387 266.263 348.325C266.013 348.215 265.739 348.129 265.473 348.043C264.925 347.879 264.354 347.723 263.782 347.574C261.482 346.98 259.048 346.401 256.559 345.666C255.315 345.298 254.055 344.9 252.803 344.391C252.177 344.133 251.559 343.852 250.964 343.484C250.667 343.304 250.385 343.085 250.119 342.819C250.002 342.671 249.877 342.53 249.798 342.342C249.712 342.163 249.681 342.006 249.626 341.834C249.438 341.169 249.282 340.434 249.501 339.707C249.603 339.34 249.845 339.027 250.064 338.776C250.174 338.651 250.276 338.534 250.323 338.417C250.346 338.385 250.307 338.432 250.385 338.315C250.479 338.221 250.503 338.237 250.542 338.221C250.62 338.198 250.651 338.206 250.714 338.198C250.808 338.19 250.902 338.19 250.988 338.198C252.357 338.284 253.641 338.518 254.932 338.714C257.491 339.136 259.948 339.59 262.288 340.035C266.967 340.927 271.17 341.772 274.691 342.491C275.575 342.663 276.413 342.866 277.203 342.999C278.001 343.109 278.76 343.218 279.472 343.32C280.881 343.523 282.094 343.695 283.103 343.836C284.074 343.985 284.841 344.094 285.396 344.18C285.639 344.219 285.834 344.251 285.991 344.282C286.124 344.305 286.194 344.321 286.194 344.329C286.194 344.337 286.124 344.337 285.991 344.321C285.834 344.305 285.631 344.282 285.388 344.258C284.833 344.196 284.058 344.102 283.088 343.992C282.078 343.867 280.857 343.719 279.449 343.547C278.737 343.461 277.978 343.359 277.179 343.257C276.373 343.132 275.536 342.945 274.652 342.78C271.107 342.1 266.905 341.302 262.233 340.411C259.893 339.981 257.436 339.535 254.885 339.113C253.609 338.917 252.302 338.683 250.996 338.604C250.917 338.604 250.839 338.604 250.761 338.604C250.737 338.612 250.683 338.612 250.683 338.612C250.675 338.597 250.69 338.644 250.659 338.581C250.612 338.511 250.651 338.518 250.62 338.487C250.612 338.479 250.597 338.471 250.589 338.464C250.902 338.581 250.667 338.503 250.737 338.534L250.722 338.573C250.636 338.769 250.51 338.909 250.401 339.035C250.182 339.285 250.002 339.527 249.916 339.817C249.744 340.403 249.861 341.076 250.049 341.709C250.15 342.053 250.229 342.311 250.456 342.538C250.675 342.757 250.933 342.96 251.215 343.132C251.77 343.476 252.381 343.758 252.991 344.008C254.22 344.509 255.472 344.907 256.708 345.275C259.181 346.01 261.615 346.589 263.915 347.199C264.494 347.355 265.058 347.504 265.621 347.684C265.903 347.77 266.177 347.863 266.451 347.981C266.576 348.043 266.756 348.114 266.873 348.278C266.967 348.419 267.03 348.559 267.077 348.692C267.476 349.772 267.805 350.788 268.305 351.711C269.268 353.564 270.684 354.995 272.226 355.871C273.76 356.763 275.325 357.263 276.686 357.662C278.056 358.053 279.269 358.264 280.263 358.366C281.256 358.467 282.039 358.467 282.571 358.444C282.837 358.436 283.033 358.413 283.174 358.405C283.268 358.405 283.33 358.397 283.338 358.405Z" fill="#EB996E"/>
<path d="M261.333 372.121C261.333 372.098 261.677 372.082 262.295 372.168C262.914 372.254 263.798 372.45 264.823 372.919C265.332 373.161 265.872 373.443 266.404 373.857C266.912 374.264 267.476 374.843 267.562 375.672C267.656 376.501 267.116 377.306 266.404 377.736C265.668 378.197 264.768 378.276 263.923 378.252C260.543 378.049 257.522 377.548 255.378 376.993C254.306 376.719 253.453 376.438 252.874 376.227C252.295 376.016 251.982 375.867 251.989 375.844C251.997 375.812 252.326 375.906 252.921 376.078C253.515 376.25 254.368 376.477 255.44 376.719C257.577 377.197 260.597 377.65 263.931 377.853C264.745 377.885 265.566 377.799 266.185 377.408C266.811 377.032 267.249 376.368 267.179 375.711C267.124 375.054 266.654 374.514 266.185 374.123C265.7 373.724 265.175 373.435 264.69 373.185C262.734 372.215 261.309 372.207 261.333 372.121Z" fill="#EB996E"/>
<path d="M329.375 318.734C329.375 318.734 340.964 299.668 343.57 287.086C346.176 274.503 359.636 254.546 363.979 249.338C368.322 244.13 385.687 238.054 385.687 238.054L392.088 234.605L441.693 230.249C441.693 230.249 474.693 233.721 484.678 242.832C494.663 251.942 502.481 272.775 502.481 283.183C502.481 293.6 512.568 383.781 512.568 383.781L390.327 383.617L393.066 339.152C393.066 339.152 378.299 329.173 374.394 320.493C370.49 311.813 372.657 316.153 372.657 316.153C372.657 316.153 358.798 345.596 354.025 349.068C349.251 352.54 293.738 369.564 293.738 369.564L286.132 340.45L329.375 318.734Z" fill="#16CBCA"/>
<path d="M473.699 246.46C472.361 246.875 455.802 289.611 454.636 293.498C453.47 297.385 454.636 321.877 454.636 321.877L460.083 331.989C460.083 331.989 458.525 339.379 459.691 342.874L435.182 347.543C435.182 347.543 428.961 343.265 423.123 347.543L394.208 349.983C394.208 349.983 402.699 350.076 400.171 363.089C397.699 375.836 395.813 378.635 395.813 378.635L497.425 376.321C497.425 376.321 508.71 375.765 506.996 354.065C505.274 332.372 500.43 272.532 500.43 272.532C500.43 272.532 493.028 240.47 473.699 246.46Z" fill="#16CBCA"/>
<path d="M454.409 318.468C454.394 318.475 454.315 318.288 454.167 317.944C454.01 317.553 453.807 317.044 453.548 316.403C453.282 315.738 452.962 314.909 452.649 313.94C452.328 312.97 451.921 311.875 451.592 310.632C451.232 309.396 450.841 308.043 450.512 306.558C450.137 305.087 449.839 303.5 449.518 301.826C448.947 298.472 448.493 294.741 448.329 290.808C448.188 286.874 448.345 283.121 448.665 279.727C448.869 278.038 449.033 276.419 449.307 274.933C449.432 274.19 449.534 273.463 449.675 272.775C449.824 272.087 449.957 271.43 450.09 270.796C450.332 269.529 450.661 268.411 450.911 267.418C451.154 266.425 451.412 265.58 451.639 264.9C451.85 264.243 452.022 263.719 452.148 263.32C452.273 262.961 452.336 262.773 452.351 262.781C452.367 262.789 452.32 262.976 452.226 263.344C452.116 263.75 451.968 264.274 451.788 264.939C451.584 265.627 451.35 266.472 451.123 267.473C450.888 268.466 450.583 269.584 450.364 270.851C450.238 271.485 450.105 272.141 449.972 272.83C449.839 273.518 449.745 274.245 449.628 274.988C449.37 276.474 449.221 278.085 449.033 279.766C448.736 283.144 448.595 286.874 448.728 290.792C448.892 294.702 449.331 298.417 449.878 301.764C450.184 303.43 450.465 305.017 450.833 306.487C451.146 307.965 451.522 309.318 451.866 310.554C452.179 311.797 452.57 312.892 452.868 313.869C453.157 314.847 453.455 315.676 453.697 316.348C453.924 316.997 454.104 317.514 454.245 317.912C454.362 318.264 454.425 318.46 454.409 318.468Z" fill="#263238"/>
<path d="M489.764 364.809C489.757 364.817 489.663 364.716 489.506 364.512C489.326 364.27 489.099 363.973 488.825 363.613C488.536 363.214 488.184 362.737 487.738 362.205C487.299 361.666 486.822 361.04 486.235 360.391C485.664 359.734 485.038 359.015 484.31 358.288C483.614 357.529 482.808 356.786 481.978 355.996C480.272 354.448 478.308 352.837 476.133 351.312C473.934 349.811 471.735 348.544 469.684 347.496C468.644 346.995 467.665 346.503 466.711 346.119C465.772 345.697 464.88 345.369 464.058 345.064C463.244 344.743 462.485 344.516 461.828 344.297C461.17 344.071 460.599 343.906 460.13 343.781C459.699 343.656 459.339 343.547 459.05 343.461C458.807 343.382 458.674 343.336 458.682 343.32C458.69 343.304 458.823 343.328 459.073 343.375C459.371 343.437 459.738 343.523 460.177 343.617C460.654 343.719 461.241 343.867 461.906 344.071C462.571 344.274 463.338 344.477 464.16 344.782C464.989 345.072 465.897 345.392 466.844 345.799C467.806 346.174 468.8 346.651 469.849 347.144C471.923 348.184 474.153 349.451 476.36 350.96C478.558 352.493 480.53 354.127 482.229 355.699C483.058 356.512 483.864 357.263 484.553 358.037C485.273 358.78 485.891 359.515 486.454 360.188C487.033 360.845 487.495 361.494 487.918 362.049C488.348 362.596 488.685 363.089 488.951 363.504C489.201 363.879 489.404 364.192 489.569 364.45C489.71 364.684 489.78 364.802 489.764 364.809Z" fill="#263238"/>
<path d="M498.318 359.109C498.255 359.163 497.355 358.139 495.665 356.763C494.82 356.067 493.755 355.324 492.527 354.573C491.283 353.846 489.866 353.134 488.309 352.54C486.752 351.961 485.218 351.554 483.802 351.273C482.385 351.015 481.086 350.866 479.998 350.827C477.815 350.733 476.461 350.905 476.453 350.827C476.453 350.796 476.782 350.741 477.4 350.671C477.706 350.624 478.081 350.585 478.519 350.577C478.958 350.561 479.458 350.522 480.006 350.546C481.11 350.546 482.424 350.663 483.872 350.905C485.312 351.171 486.869 351.57 488.458 352.164C490.031 352.774 491.47 353.509 492.722 354.26C493.959 355.034 495.023 355.816 495.853 356.552C496.283 356.896 496.627 357.263 496.948 357.56C497.269 357.857 497.519 358.139 497.723 358.374C498.13 358.827 498.341 359.093 498.318 359.109Z" fill="#263238"/>
<path d="M488.927 344.821C488.872 344.892 487.675 343.946 485.484 342.859C484.936 342.593 484.334 342.303 483.661 342.061C483.003 341.779 482.26 341.568 481.493 341.326C479.944 340.904 478.198 340.559 476.344 340.419C474.489 340.301 472.713 340.403 471.116 340.614C470.326 340.755 469.567 340.857 468.871 341.052C468.166 341.201 467.532 341.404 466.953 341.592C464.637 342.366 463.322 343.148 463.275 343.062C463.26 343.038 463.588 342.843 464.191 342.507C464.488 342.335 464.864 342.131 465.318 341.944C465.772 341.748 466.273 341.498 466.859 341.318C467.439 341.107 468.08 340.888 468.792 340.724C469.489 340.513 470.256 340.395 471.062 340.247C472.682 340.012 474.481 339.903 476.375 340.02C478.261 340.161 480.03 340.52 481.603 340.966C482.377 341.224 483.121 341.451 483.786 341.748C484.467 342.006 485.069 342.319 485.617 342.6C486.173 342.866 486.642 343.179 487.057 343.437C487.479 343.687 487.824 343.93 488.098 344.149C488.645 344.556 488.943 344.798 488.927 344.821Z" fill="#263238"/>
<path d="M429.493 376.868C429.399 376.845 430.002 375.234 430.213 372.52C430.346 371.167 430.315 369.541 430.174 367.742C430.01 365.951 429.665 363.996 429.149 361.979C428.617 359.969 427.92 358.108 427.2 356.458C426.418 354.839 425.666 353.392 424.876 352.282C423.35 350.022 422.051 348.903 422.122 348.833C422.137 348.81 422.458 349.091 423.014 349.623C423.303 349.873 423.616 350.233 423.968 350.647C424.148 350.858 424.336 351.077 424.54 351.312C424.727 351.554 424.915 351.828 425.119 352.11C425.948 353.212 426.739 354.659 427.552 356.293C428.296 357.959 429.008 359.836 429.556 361.869C430.072 363.91 430.409 365.889 430.557 367.703C430.675 369.517 430.683 371.167 430.51 372.536C430.471 372.872 430.44 373.2 430.401 373.513C430.338 373.818 430.283 374.1 430.229 374.373C430.119 374.913 430.033 375.374 429.9 375.734C429.665 376.477 429.524 376.884 429.493 376.868Z" fill="#263238"/>
<path d="M412.457 347.519C412.449 347.519 412.434 347.441 412.41 347.292C412.379 347.12 412.348 346.901 412.301 346.628C412.215 346.01 412.089 345.15 411.933 344.055C411.62 341.818 411.197 338.573 410.72 334.569C409.757 326.554 408.607 315.449 407.707 303.156C406.815 290.863 406.338 279.703 406.126 271.633C406.017 267.598 405.962 264.329 405.954 262.069C405.954 260.959 405.946 260.091 405.946 259.465C405.946 259.184 405.954 258.965 405.954 258.793C405.962 258.644 405.962 258.566 405.97 258.566C405.978 258.566 405.986 258.644 405.993 258.793C406.001 258.965 406.009 259.191 406.025 259.465C406.048 260.091 406.072 260.959 406.111 262.061C406.181 264.345 406.283 267.606 406.416 271.618C406.698 279.688 407.222 290.831 408.114 303.125C409.014 315.41 410.117 326.515 411.009 334.538C411.463 338.526 411.839 341.764 412.097 344.039C412.222 345.142 412.324 346.002 412.395 346.62C412.418 346.894 412.442 347.12 412.457 347.292C412.465 347.441 412.465 347.519 412.457 347.519Z" fill="#263238"/>
<path d="M372.54 316.716C372.516 316.724 372.329 316.301 372.008 315.519C371.695 314.737 371.225 313.619 370.638 312.235C369.464 309.475 367.712 305.713 365.614 301.631C363.517 297.588 361.616 293.928 360.199 291.207C359.518 289.87 358.978 288.775 358.618 288.016C358.259 287.258 358.071 286.828 358.094 286.82C358.118 286.804 358.352 287.211 358.759 287.946C359.19 288.744 359.769 289.799 360.457 291.074C361.882 293.725 363.877 297.361 365.974 301.451C368.072 305.541 369.785 309.334 370.897 312.126C371.452 313.525 371.883 314.667 372.149 315.465C372.43 316.262 372.571 316.708 372.54 316.716Z" fill="#263238"/>
<path d="M366.295 302.264C366.287 302.288 366.037 302.241 365.583 302.131C365.137 302.022 364.487 301.834 363.705 301.576C362.132 301.068 359.988 300.239 357.726 299.121C355.457 297.995 353.508 296.798 352.147 295.852C351.466 295.383 350.926 294.984 350.566 294.695C350.206 294.405 350.01 294.233 350.026 294.218C350.065 294.171 350.91 294.741 352.303 295.617C353.696 296.493 355.66 297.643 357.906 298.761C360.152 299.871 362.265 300.732 363.799 301.31C365.348 301.881 366.311 302.21 366.295 302.264Z" fill="#263238"/>
<path d="M355.801 328.978C355.786 329.001 355.488 328.814 354.964 328.47C354.44 328.118 353.673 327.617 352.718 327.038C350.801 325.865 348.038 324.403 344.83 323.199C341.614 322.002 338.578 321.291 336.355 320.915C335.244 320.728 334.344 320.595 333.718 320.517C333.092 320.438 332.748 320.376 332.748 320.352C332.748 320.321 333.1 320.329 333.734 320.36C334.367 320.384 335.283 320.477 336.402 320.626C338.648 320.931 341.723 321.604 344.971 322.816C348.218 324.036 350.981 325.553 352.875 326.788C353.821 327.406 354.573 327.938 355.066 328.337C355.551 328.728 355.817 328.954 355.801 328.978Z" fill="#263238"/>
<path d="M440.41 230.312C440.425 230.312 440.41 230.531 440.363 230.945C440.308 231.399 440.245 232.001 440.159 232.759C439.956 234.331 439.674 236.607 439.197 239.407C438.719 242.198 438.062 245.522 437.006 249.135C435.918 252.724 434.415 256.619 432.083 260.302C430.878 262.241 429.454 263.962 428.006 265.526L427.85 265.698L427.709 265.502C425.604 262.695 422.935 260.638 420.283 259.348C418.968 258.667 417.622 258.253 416.37 257.909C415.102 257.627 413.905 257.44 412.809 257.432C410.618 257.377 408.873 257.752 407.739 258.143C406.604 258.542 406.001 258.839 405.986 258.8C405.978 258.793 406.126 258.714 406.416 258.574C406.706 258.448 407.113 258.198 407.699 258.011C408.834 257.573 410.595 257.15 412.825 257.174C413.936 257.166 415.157 257.338 416.448 257.612C417.724 257.948 419.093 258.362 420.439 259.035C423.147 260.325 425.886 262.405 428.038 265.268L427.732 265.244C429.157 263.696 430.565 261.999 431.755 260.083C434.055 256.446 435.558 252.583 436.661 249.025C437.733 245.444 438.414 242.144 438.931 239.36C439.447 236.576 439.768 234.308 440.018 232.744C440.136 231.993 440.23 231.391 440.3 230.937C440.355 230.523 440.394 230.312 440.41 230.312Z" fill="#263238"/>
<path d="M441.075 230.804L433.539 220.818L425.346 221.076L398.724 235.129L441.075 230.804Z" fill="#65C8D0"/>
<path d="M405.978 258.8C405.978 258.816 405.829 258.808 405.547 258.793C405.266 258.769 404.851 258.714 404.319 258.589C403.262 258.362 401.783 257.768 400.117 256.791C399.287 256.29 398.356 255.829 397.26 255.61C396.173 255.375 394.952 255.344 393.731 255.602C391.29 256.095 388.84 258.003 387.823 260.74L387.392 261.889L387.424 260.669C387.432 260.364 387.439 260.044 387.447 259.715C387.541 253.561 387.549 247.97 387.799 243.934C387.909 241.917 388.073 240.282 388.238 239.164C388.308 238.601 388.394 238.171 388.457 237.882C388.519 237.592 388.558 237.436 388.566 237.444C388.605 237.452 388.496 238.069 388.386 239.188C388.269 240.306 388.152 241.94 388.073 243.95C387.893 247.985 387.932 253.561 387.839 259.731C387.831 260.059 387.823 260.388 387.815 260.693L387.424 260.615C388.504 257.737 391.07 255.758 393.637 255.258C396.227 254.718 398.653 255.485 400.242 256.564C401.885 257.565 403.309 258.183 404.342 258.456C405.383 258.73 405.978 258.761 405.978 258.8Z" fill="#263238"/>
<path d="M433.539 172.459V232.415C433.539 235.841 432.326 239.156 430.119 241.776C426.731 245.796 422.654 249.174 418.076 251.747L405.978 258.558L395.969 249.627C393.027 247 391.282 243.293 391.125 239.352C390.953 234.98 390.953 230.586 390.953 230.586C390.953 230.586 373.995 229.366 372.399 212.654C371.648 204.787 371.413 188.67 371.374 173.812C371.311 156.866 384.317 142.727 401.22 141.327L401.697 141.288C419.195 140.866 433.602 154.965 433.539 172.459Z" fill="#FFBE9D"/>
<path d="M390.89 230.343C390.89 230.343 401.541 230.327 412.207 222.335C412.207 222.335 408.044 234.801 391.211 234.675L390.89 230.343Z" fill="#EB996E"/>
<path d="M376.993 185.041C377.055 186.308 378.174 187.301 379.497 187.262C380.819 187.223 381.844 186.167 381.782 184.901C381.719 183.634 380.6 182.641 379.278 182.68C377.963 182.719 376.938 183.775 376.993 185.041Z" fill="#263238"/>
<path d="M375.631 180.553C375.952 180.842 377.65 179.348 380.224 179.145C382.791 178.903 384.787 180.068 385.045 179.731C385.17 179.583 384.826 179.043 383.949 178.512C383.089 177.98 381.664 177.518 380.06 177.659C378.456 177.8 377.157 178.504 376.437 179.168C375.701 179.841 375.474 180.427 375.631 180.553Z" fill="#263238"/>
<path d="M401.478 184.009C401.541 185.276 402.66 186.269 403.982 186.23C405.305 186.191 406.33 185.135 406.267 183.868C406.205 182.601 405.086 181.608 403.763 181.647C402.441 181.686 401.416 182.742 401.478 184.009Z" fill="#263238"/>
<path d="M400.962 178.942C401.283 179.231 402.988 177.737 405.555 177.534C408.122 177.292 410.117 178.457 410.376 178.121C410.501 177.972 410.157 177.432 409.28 176.901C408.419 176.369 406.995 175.907 405.391 176.048C403.787 176.189 402.488 176.893 401.768 177.557C401.032 178.23 400.805 178.816 400.962 178.942Z" fill="#263238"/>
<path d="M393.207 198.781C393.207 198.633 391.587 198.492 388.965 198.375C388.3 198.359 387.674 198.281 387.526 197.843C387.33 197.381 387.549 196.654 387.799 195.864C388.285 194.222 388.793 192.509 389.325 190.703C391.43 183.36 392.902 177.346 392.604 177.268C392.307 177.182 390.358 183.071 388.245 190.414C387.745 192.22 387.259 193.948 386.798 195.598C386.61 196.365 386.25 197.248 386.673 198.203C386.892 198.68 387.4 198.992 387.831 199.071C388.261 199.164 388.629 199.141 388.958 199.133C391.587 199.047 393.207 198.93 393.207 198.781Z" fill="#263238"/>
<path d="M400.923 199.931C400.5 199.939 400.727 202.73 398.505 204.912C396.282 207.094 393.277 207.031 393.293 207.422C393.269 207.602 393.997 207.907 395.257 207.837C396.493 207.774 398.262 207.235 399.624 205.897C400.977 204.56 401.47 202.887 401.47 201.737C401.486 200.564 401.11 199.899 400.923 199.931Z" fill="#263238"/>
<path d="M399.467 168.916C399.78 169.597 402.323 169.049 405.367 169.166C408.419 169.221 410.924 169.902 411.276 169.245C411.432 168.932 410.947 168.306 409.914 167.712C408.881 167.118 407.269 166.602 405.446 166.555C403.615 166.508 401.979 166.93 400.923 167.47C399.843 168.001 399.326 168.596 399.467 168.916Z" fill="#263238"/>
<path d="M375.967 173.03C376.468 173.577 378.19 172.826 380.318 172.615C382.439 172.334 384.286 172.686 384.654 172.037C384.81 171.724 384.482 171.161 383.644 170.676C382.823 170.191 381.484 169.847 380.021 170.011C378.558 170.175 377.337 170.817 376.64 171.473C375.936 172.146 375.741 172.764 375.967 173.03Z" fill="#263238"/>
<path d="M413.842 155.614C413.874 155.638 413.905 155.661 413.936 155.677C416.777 157.562 418.788 160.463 419.539 163.786C419.563 163.904 419.594 164.013 419.617 164.123C420.666 168.838 420.948 173.702 422.043 178.41C423.139 183.118 422.935 186.715 427.654 187.778C430.628 188.451 433.163 186.793 434.228 185.112C434.634 184.463 434.65 183.642 434.642 182.875C434.58 171.278 436.912 166.774 435.894 154.731C435.62 151.454 433.821 148.498 430.988 146.809C428.312 145.214 425.08 143.587 422.38 145.151C419.68 146.715 416.487 152.26 414.492 154.66" fill="#263238"/>
<path d="M428.523 180.498C428.797 180.349 439.744 176.15 440.324 187.614C440.903 199.086 429.266 197.303 429.227 196.975C429.196 196.646 428.523 180.498 428.523 180.498Z" fill="#FFBE9D"/>
<path d="M432.514 192.447C432.561 192.408 432.717 192.58 433.069 192.713C433.406 192.846 433.977 192.924 434.564 192.666C435.754 192.158 436.677 190.187 436.63 188.115C436.606 187.067 436.34 186.089 435.926 185.284C435.534 184.463 434.963 183.907 434.345 183.829C433.727 183.72 433.32 184.103 433.195 184.439C433.054 184.768 433.14 184.994 433.085 185.018C433.054 185.049 432.827 184.838 432.897 184.361C432.936 184.134 433.054 183.853 433.312 183.618C433.578 183.383 433.977 183.243 434.4 183.274C435.284 183.29 436.129 184.064 436.575 184.947C437.076 185.831 437.405 186.934 437.428 188.107C437.475 190.422 436.395 192.642 434.76 193.205C433.961 193.456 433.281 193.245 432.913 192.994C432.545 192.721 432.475 192.47 432.514 192.447Z" fill="#EB996E"/>
<path d="M422.92 146.887C425.361 142.078 417.09 136.142 411.299 134.836C405.5 133.523 398.285 136.893 392.823 139.223C389.372 140.694 385.976 142.625 382.228 142.782C379.716 142.883 377.251 142.172 374.817 141.53C372.383 140.889 369.864 140.31 367.375 140.694C364.887 141.069 362.422 142.61 361.67 145.01C360.911 147.403 362.539 150.469 365.043 150.609C361.733 149.131 357.335 151.798 357.116 155.411C356.897 159.032 360.935 162.199 364.401 161.135C362.672 160.041 360.348 162.277 360.716 164.295C361.083 166.312 363.048 167.634 364.988 168.299C369.934 169.995 375.443 168.869 380.248 166.797C385.053 164.725 389.419 161.761 394.169 159.571C398.919 157.382 406.854 153.503 411.917 154.825C415.642 155.802 418.522 159.947 420.486 158.821C422.388 157.726 423.468 155.56 423.679 153.378C423.898 151.196 423.405 149.022 422.92 146.887Z" fill="#263238"/>
<path d="M363.635 150.398C363.728 150.336 364.292 151.196 365.638 152.432C366.976 153.644 369.198 155.192 372.336 155.998C375.42 156.795 379.528 156.795 383.214 154.652C386.962 152.588 390.006 148.826 393.567 145.221C397.119 141.593 401.431 138.762 405.923 137.98C410.383 137.182 414.68 138.488 417.184 140.866C419.704 143.266 420.416 146.183 420.392 148.044C420.384 148.999 420.204 149.718 420.071 150.187C419.899 150.656 419.79 150.883 419.758 150.875C419.649 150.852 420.048 149.867 419.954 148.06C419.844 146.301 419.046 143.603 416.644 141.46C414.273 139.349 410.274 138.207 406.111 139.012C401.924 139.794 397.839 142.484 394.373 146.027C390.875 149.554 387.737 153.417 383.722 155.567C379.731 157.812 375.326 157.71 372.125 156.772C368.854 155.825 366.616 154.097 365.333 152.752C364.691 152.064 364.245 151.493 363.994 151.071C363.721 150.649 363.595 150.422 363.635 150.398Z" fill="#455A64"/>
<path d="M431.395 179.755C431.356 179.794 430.878 179.481 430.37 178.605C429.861 177.745 429.399 176.306 429.454 174.508C429.399 170.801 432.334 166.578 432.326 161.448C432.373 158.914 431.723 156.498 430.495 154.723C429.274 152.955 427.498 151.884 425.94 151.399C424.36 150.891 422.982 151 422.075 151.196C421.167 151.415 420.69 151.673 420.643 151.587C420.611 151.54 421.018 151.149 421.949 150.774C422.873 150.43 424.391 150.172 426.159 150.625C427.905 151.055 429.908 152.142 431.356 154.113C432.788 156.068 433.515 158.727 433.468 161.456C433.461 164.185 432.678 166.727 431.856 168.846C431.05 170.981 430.377 172.881 430.26 174.539C429.931 177.956 431.559 179.685 431.395 179.755Z" fill="#455A64"/>
<path d="M502.575 285.756C502.575 285.756 502.598 285.913 502.621 286.21C502.645 286.523 502.676 286.968 502.723 287.555C502.809 288.751 502.935 290.511 503.091 292.802C503.404 297.4 503.85 304.118 504.429 312.626C504.993 321.15 505.673 331.465 506.456 343.25C506.652 346.198 506.847 349.232 507.058 352.36C507.176 353.916 507.231 355.511 507.309 357.122C507.372 357.928 507.309 358.741 507.285 359.562C507.239 360.375 507.278 361.204 507.145 362.026C507.043 362.847 506.941 363.676 506.839 364.512C506.659 365.333 506.487 366.162 506.307 366.991C506.073 367.805 505.791 368.618 505.533 369.439C505.173 370.221 504.875 371.042 504.453 371.801C502.817 374.843 500.25 377.689 496.698 378.862L496.682 378.87H496.651C473.824 378.862 447.711 378.862 420.095 378.854C411.855 378.847 403.74 378.847 395.82 378.839H395.554L395.625 378.581C396.368 375.937 397.104 373.318 397.832 370.721C398.199 369.423 398.559 368.133 398.919 366.843C399.287 365.552 399.655 364.286 399.827 362.987C400.218 360.399 399.952 357.74 399.154 355.308C398.747 354.096 398.16 352.946 397.323 352.008C396.509 351.07 395.374 350.358 394.201 350.178L392.596 349.928L394.201 349.795C404.311 348.943 413.983 348.137 423.115 347.371L423.029 347.402C424.853 346.088 427.075 345.369 429.258 345.486C431.434 345.588 433.508 346.284 435.292 347.402L435.167 347.379C444.001 345.705 452.195 344.157 459.676 342.741L459.566 342.929C459.253 341.975 459.183 340.997 459.144 340.051C459.112 339.105 459.144 338.166 459.222 337.251C459.37 335.422 459.629 333.67 459.965 331.973L459.981 332.059C458.017 328.391 456.209 325.037 454.55 321.94L454.534 321.916V321.893C454.151 312.876 454.018 305.776 454.081 300.919C454.104 298.495 454.198 296.634 454.331 295.383C454.394 294.757 454.456 294.288 454.542 293.975C454.613 293.662 454.652 293.506 454.652 293.506C454.652 293.506 454.628 293.67 454.574 293.983C454.503 294.296 454.448 294.765 454.394 295.391C454.284 296.642 454.214 298.495 454.206 300.919C454.182 305.768 454.347 312.868 454.761 321.877L454.746 321.83C456.42 324.919 458.228 328.266 460.208 331.926L460.231 331.965L460.223 332.012C459.895 333.693 459.637 335.445 459.496 337.259C459.425 338.166 459.394 339.089 459.425 340.028C459.464 340.958 459.543 341.92 459.84 342.827L459.895 342.984L459.73 343.015C452.249 344.446 444.056 346.018 435.229 347.707L435.167 347.723L435.104 347.683C433.39 346.612 431.348 345.924 429.251 345.838C427.145 345.728 425.009 346.417 423.248 347.691L423.209 347.723L423.162 347.73C414.03 348.505 404.358 349.326 394.247 350.186V349.803C395.601 350.014 396.752 350.772 397.628 351.758C398.505 352.751 399.115 353.947 399.537 355.191C400.359 357.693 400.625 360.399 400.234 363.058C400.062 364.387 399.678 365.685 399.318 366.968C398.958 368.258 398.598 369.548 398.231 370.847C397.503 373.443 396.767 376.063 396.032 378.706L395.836 378.448C403.763 378.448 411.87 378.456 420.11 378.456C447.726 378.479 473.832 378.495 496.666 378.51L496.627 378.518C498.294 378.002 499.812 376.97 501.064 375.781C502.316 374.561 503.357 373.161 504.155 371.644C504.57 370.894 504.867 370.088 505.22 369.322C505.478 368.508 505.752 367.711 505.986 366.905C506.166 366.084 506.339 365.271 506.519 364.458C506.62 363.636 506.722 362.815 506.824 362.002C506.957 361.189 506.918 360.368 506.965 359.554C506.988 358.741 507.051 357.936 506.988 357.138C506.918 355.535 506.863 353.955 506.753 352.391C506.558 349.263 506.362 346.229 506.174 343.281C505.423 331.496 504.773 321.173 504.234 312.65C503.701 304.133 503.287 297.416 502.997 292.818C502.864 290.526 502.755 288.767 502.684 287.57C502.653 286.984 502.629 286.53 502.614 286.225C502.575 285.905 502.575 285.756 502.575 285.756Z" fill="#263238"/>
<path d="M480.413 243.145C480.429 243.176 479.92 243.457 479.02 244.013C478.12 244.56 476.853 245.412 475.397 246.609C472.47 248.963 468.941 252.873 466.022 257.823C463.095 262.773 461.155 267.629 459.762 271.133C459.089 272.853 458.541 274.261 458.134 275.301C457.954 275.754 457.798 276.13 457.68 276.427C457.571 276.685 457.508 276.818 457.493 276.81C457.477 276.802 457.516 276.661 457.602 276.396C457.704 276.091 457.829 275.707 457.986 275.238C458.33 274.237 458.831 272.798 459.488 271.023C460.818 267.488 462.72 262.593 465.67 257.612C468.612 252.623 472.212 248.697 475.217 246.382C476.712 245.209 478.011 244.388 478.942 243.88C479.396 243.614 479.779 243.442 480.022 243.317C480.272 243.184 480.405 243.129 480.413 243.145Z" fill="#263238"/>
<g opacity="0.3">
<g opacity="0.3">
<path opacity="0.3" d="M449.784 273.002C446.459 280.227 445.113 288.439 445.41 296.392C445.707 304.345 446.662 312.313 445.879 320.227C445.097 328.141 442.35 336.227 436.434 341.553C435.722 342.194 434.955 342.812 434.525 343.672C434.102 344.524 434.134 345.705 434.893 346.292C435.566 346.816 436.513 346.69 437.35 346.55C443.015 345.564 448.736 344.868 454.401 343.883C455.614 343.672 459.699 342.874 459.699 342.874C459.699 342.874 459.159 339.77 459.355 338.221C459.535 336.806 460.09 331.989 460.09 331.989C459.926 331.246 459.386 330.683 459.003 329.979C455.278 323.066 454.307 317.944 454.307 317.944C452.375 313.987 451.506 310.022 450.614 306.323C448.125 296.079 448.196 285.983 449.784 273.002Z" fill="black"/>
</g>
</g>
<g opacity="0.3">
<g opacity="0.3">
<path opacity="0.3" d="M387.745 261.326C388.206 262.499 388.676 263.672 389.137 264.845C389.278 265.205 389.458 265.596 389.81 265.737C390.507 266.003 391.063 265.15 391.391 264.478C392.698 261.835 395.406 259.942 398.332 259.598C400.711 259.324 403.153 260.012 405.493 259.528C403.419 258.292 401.329 257.049 399.029 256.314C396.736 255.578 394.185 255.383 391.931 256.243C389.677 257.111 387.815 259.184 387.643 261.584" fill="black"/>
</g>
</g>
<g opacity="0.3">
<g opacity="0.3">
<path opacity="0.3" d="M407.097 258.362C409.875 258.409 412.684 258.464 415.384 259.105C418.084 259.747 420.721 261.045 422.482 263.195C424.375 265.502 425.08 268.521 425.846 271.406C425.995 271.962 426.261 272.618 426.832 272.681C427.177 272.72 427.49 272.509 427.772 272.306C432.451 268.873 435.542 263.602 437.24 258.057C438.931 252.505 439.322 246.648 439.416 240.853C437.178 244.849 436.207 249.401 434.728 253.733C433.249 258.065 431.074 262.429 427.239 264.931C427.365 263.954 426.981 262.961 426.363 262.186C425.753 261.412 424.931 260.834 424.086 260.325C418.929 257.213 412.426 256.415 406.666 258.198" fill="black"/>
</g>
</g>
<path d="M394.928 350.475H385.35C385.35 350.475 363.728 342.671 359.284 343.414C355.277 344.086 340.62 353.814 337.748 355.746C337.427 355.957 337.185 356.27 337.052 356.63C336.465 358.217 337.239 359.977 338.797 360.618L339.102 360.743L338.969 361.181C338.804 361.721 338.718 362.331 338.75 362.933C338.859 364.989 341.622 365.615 342.678 363.848L342.122 364.825C341.896 365.224 341.794 365.678 341.817 366.139L341.864 367.03C341.919 368.024 342.576 368.876 343.523 369.181C344.423 369.47 345.409 369.22 346.043 368.524C347.905 366.483 351.92 362.385 354.635 361.932C357.053 361.533 361.076 361.478 363.509 361.486C364.746 361.494 365.849 362.252 366.303 363.402C364.691 363.519 353.454 369.369 349.478 371.464C348.25 372.113 347.326 373.279 347.17 374.663C347.021 375.906 347.655 377.212 350.112 376.633C355.394 375.398 364.902 371.034 364.902 371.034C364.902 371.034 369.809 369.634 372.986 371.871C377.454 375.023 379.504 376.18 383.339 374.905C387.173 373.631 390.006 371.808 390.006 371.808L397.565 371.058C397.55 371.066 404.702 353.212 394.928 350.475Z" fill="#FFBE9D"/>
<path d="M366.381 354.127C366.366 354.213 364.847 353.721 362.32 353.564C359.808 353.392 356.239 353.681 352.687 355.199C349.134 356.716 346.45 359.085 344.838 361.017C343.202 362.948 342.506 364.379 342.435 364.34C342.412 364.332 342.569 363.965 342.913 363.339C343.257 362.714 343.813 361.838 344.611 360.837C346.184 358.835 348.891 356.372 352.522 354.831C356.146 353.283 359.8 353.04 362.336 353.283C363.611 353.4 364.628 353.603 365.325 353.791C366.013 353.963 366.381 354.104 366.381 354.127Z" fill="#EB996E"/>
<path d="M364.088 348.88C364.065 348.982 362.523 348.223 359.863 348.145C357.218 348.028 353.501 348.825 350.026 350.929C346.552 353.04 343.954 355.715 342.099 357.631C341.223 358.561 340.495 359.335 339.924 359.938C339.407 360.485 339.118 360.774 339.094 360.759C339.071 360.743 339.329 360.415 339.806 359.836C340.284 359.257 340.988 358.436 341.888 357.435C343.688 355.464 346.278 352.727 349.815 350.585C353.36 348.442 357.179 347.676 359.871 347.863C361.224 347.942 362.296 348.192 363.009 348.434C363.368 348.536 363.635 348.677 363.815 348.747C364.002 348.817 364.096 348.864 364.088 348.88Z" fill="#EB996E"/>
<path d="M259.737 384L233.772 318.866C231.471 313.267 235.595 307.121 241.652 307.121H322.543C326.19 307.121 329.438 309.443 330.611 312.9L352.914 378.596L378.965 378.721C381.077 378.729 382.791 381.826 382.791 383.937L354.119 383.609L259.737 384Z" fill="#263238"/>
<path d="M297.119 348.254C297.119 351.156 294.763 353.502 291.868 353.502C288.965 353.502 286.617 351.148 286.617 348.254C286.617 345.353 288.972 343.007 291.868 343.007C294.771 342.999 297.119 345.353 297.119 348.254Z" fill="#F5F5F5"/>
<path d="M571 383.617C571 383.726 498.474 383.82 365.818 383.82C233.115 383.82 125.57 383.726 125.57 383.617C125.57 383.507 233.115 383.413 365.818 383.413C498.474 383.413 571 383.499 571 383.617Z" fill="#263238"/>
<path d="M322.473 126.829H113.026V242.949H322.473V126.829Z" fill="#C1C5F4"/>
<path d="M316.486 129.362H115.334V235.121H316.486V129.362Z" fill="white"/>
<g opacity="0.5">
<g opacity="0.5">
<path opacity="0.5" d="M309.279 226.824H118.512C118.253 226.824 118.05 226.621 118.05 226.363V130.856C118.05 130.598 118.253 130.395 118.512 130.395H309.279C309.538 130.395 309.741 130.598 309.741 130.856V226.363C309.741 226.613 309.538 226.824 309.279 226.824ZM118.973 225.901H308.818V131.317H118.973V225.901Z" fill="#C1C5F4"/>
</g>
<g opacity="0.5">
<path opacity="0.5" d="M309.279 210.902H118.512C118.253 210.902 118.05 210.699 118.05 210.441C118.05 210.183 118.253 209.98 118.512 209.98H309.279C309.538 209.98 309.741 210.183 309.741 210.441C309.741 210.699 309.538 210.902 309.279 210.902Z" fill="#C1C5F4"/>
</g>
<g opacity="0.5">
<path opacity="0.5" d="M309.279 194.988H118.512C118.253 194.988 118.05 194.785 118.05 194.527C118.05 194.269 118.253 194.066 118.512 194.066H309.279C309.538 194.066 309.741 194.269 309.741 194.527C309.741 194.777 309.538 194.988 309.279 194.988Z" fill="#C1C5F4"/>
</g>
<g opacity="0.5">
<path opacity="0.5" d="M309.279 179.067H118.512C118.253 179.067 118.05 178.863 118.05 178.605C118.05 178.347 118.253 178.144 118.512 178.144H309.279C309.538 178.144 309.741 178.347 309.741 178.605C309.741 178.863 309.538 179.067 309.279 179.067Z" fill="#C1C5F4"/>
</g>
<g opacity="0.5">
<path opacity="0.5" d="M309.279 163.153H118.512C118.253 163.153 118.05 162.95 118.05 162.691C118.05 162.433 118.253 162.23 118.512 162.23H309.279C309.538 162.23 309.741 162.433 309.741 162.691C309.741 162.95 309.538 163.153 309.279 163.153Z" fill="#C1C5F4"/>
</g>
<g opacity="0.5">
<path opacity="0.5" d="M309.279 147.231H118.512C118.253 147.231 118.05 147.028 118.05 146.77C118.05 146.512 118.253 146.308 118.512 146.308H309.279C309.538 146.308 309.741 146.512 309.741 146.77C309.741 147.028 309.538 147.231 309.279 147.231Z" fill="#C1C5F4"/>
</g>
<g opacity="0.5">
<path opacity="0.5" d="M277.485 226.824C277.227 226.824 277.023 226.621 277.023 226.363V130.856C277.023 130.598 277.227 130.395 277.485 130.395C277.743 130.395 277.946 130.598 277.946 130.856V226.363C277.946 226.613 277.743 226.824 277.485 226.824Z" fill="#C1C5F4"/>
</g>
<g opacity="0.5">
<path opacity="0.5" d="M245.69 226.824C245.432 226.824 245.228 226.621 245.228 226.363V130.856C245.228 130.598 245.432 130.395 245.69 130.395C245.948 130.395 246.152 130.598 246.152 130.856V226.363C246.152 226.613 245.948 226.824 245.69 226.824Z" fill="#C1C5F4"/>
</g>
<g opacity="0.5">
<path opacity="0.5" d="M213.895 226.824C213.637 226.824 213.434 226.621 213.434 226.363V130.856C213.434 130.598 213.637 130.395 213.895 130.395C214.154 130.395 214.357 130.598 214.357 130.856V226.363C214.357 226.613 214.154 226.824 213.895 226.824Z" fill="#C1C5F4"/>
</g>
<g opacity="0.5">
<path opacity="0.5" d="M182.101 226.824C181.843 226.824 181.639 226.621 181.639 226.363V130.856C181.639 130.598 181.843 130.395 182.101 130.395C182.359 130.395 182.563 130.598 182.563 130.856V226.363C182.563 226.613 182.359 226.824 182.101 226.824Z" fill="#C1C5F4"/>
</g>
<g opacity="0.5">
<path opacity="0.5" d="M150.306 226.824C150.048 226.824 149.845 226.621 149.845 226.363V130.856C149.845 130.598 150.048 130.395 150.306 130.395C150.564 130.395 150.768 130.598 150.768 130.856V226.363C150.768 226.613 150.564 226.824 150.306 226.824Z" fill="#C1C5F4"/>
</g>
</g>
<path d="M118.512 227.278C118.175 227.278 117.846 227.09 117.69 226.769C117.463 226.316 117.643 225.761 118.105 225.534L149.774 209.682L166.106 193.98L181.271 162.293C181.326 162.183 181.397 162.082 181.49 162.003L198.73 146.653C198.949 146.457 199.246 146.379 199.528 146.441C199.81 146.504 200.052 146.692 200.178 146.958L214.717 178.199L231.988 208.869L244.994 193.933C245.158 193.737 245.401 193.628 245.659 193.62C245.917 193.604 246.16 193.706 246.34 193.894L261.137 208.752L276.608 162.418C276.655 162.285 276.726 162.16 276.827 162.058L308.622 130.223C308.982 129.863 309.569 129.863 309.929 130.223C310.289 130.582 310.289 131.169 309.929 131.529L278.291 163.208L262.421 210.754C262.319 211.059 262.069 211.286 261.756 211.356C261.443 211.426 261.114 211.333 260.895 211.106L245.737 195.888L232.52 211.059C232.324 211.286 232.027 211.403 231.73 211.372C231.432 211.34 231.166 211.168 231.017 210.91L213.089 179.075C213.082 179.051 213.066 179.036 213.058 179.012L199.027 148.866L182.852 163.27L167.694 194.942C167.647 195.043 167.585 195.129 167.499 195.207L150.948 211.121C150.877 211.184 150.807 211.239 150.721 211.278L118.926 227.184C118.793 227.246 118.652 227.278 118.512 227.278Z" fill="#DC9690"/>
<path d="M118.512 227.278C118.277 227.278 118.05 227.192 117.87 227.02C117.502 226.668 117.502 226.081 117.854 225.714L164.478 177.964C164.83 177.604 165.401 177.589 165.769 177.933L182.085 193.237L213.246 162.035C213.598 161.683 214.177 161.675 214.537 162.019L230.423 177.299L245.033 162.05C245.205 161.87 245.44 161.769 245.69 161.769C245.933 161.769 246.175 161.863 246.355 162.042L277.242 192.971L308.465 130.449C308.692 129.996 309.248 129.808 309.702 130.035C310.156 130.262 310.344 130.817 310.117 131.27L278.322 194.942C278.189 195.207 277.939 195.395 277.641 195.442C277.352 195.489 277.054 195.395 276.843 195.184L245.714 164.013L231.119 179.247C230.947 179.427 230.72 179.528 230.47 179.528C230.227 179.536 229.984 179.442 229.812 179.27L213.919 163.982L182.766 195.176C182.414 195.528 181.843 195.536 181.483 195.2L165.174 179.904L119.185 227.012C118.989 227.192 118.754 227.278 118.512 227.278Z" fill="#C1C5F4"/>
<path d="M267.046 109.851H205.953C199.105 109.851 193.502 104.252 193.502 97.4094V86.8835C193.502 80.041 199.105 74.4418 205.953 74.4418H267.046C273.893 74.4418 279.496 80.041 279.496 86.8835V97.4094C279.496 104.252 273.893 109.851 267.046 109.851Z" fill="#C1C5F4"/>
<path d="M203.887 104.51V124.052L226.416 101.538C226.416 101.538 204.341 104.51 203.887 104.51Z" fill="#C1C5F4"/>
<path d="M264.494 106.34H208.504C202.697 106.34 197.947 101.593 197.947 95.7906V88.4945C197.947 82.692 202.697 77.9452 208.504 77.9452H264.494C270.301 77.9452 275.051 82.692 275.051 88.4945V95.7828C275.051 101.593 270.301 106.34 264.494 106.34Z" fill="white"/>
<path d="M239.938 84.9755H205.107C204.27 84.9755 203.581 84.2873 203.581 83.4506C203.581 82.6138 204.27 81.9257 205.107 81.9257H239.938C240.776 81.9257 241.464 82.6138 241.464 83.4506C241.464 84.2873 240.776 84.9755 239.938 84.9755Z" fill="#C1C5F4"/>
<path d="M269.018 90.8092H204.442C203.973 90.8092 203.581 90.426 203.581 89.949C203.581 89.4797 203.965 89.0887 204.442 89.0887H269.018C269.487 89.0887 269.878 89.4719 269.878 89.949C269.871 90.426 269.487 90.8092 269.018 90.8092Z" fill="#C1C5F4"/>
<path d="M269.018 94.1328H204.442C203.973 94.1328 203.581 93.7496 203.581 93.2726C203.581 92.8034 203.965 92.4124 204.442 92.4124H269.018C269.487 92.4124 269.878 92.7955 269.878 93.2726C269.871 93.7496 269.487 94.1328 269.018 94.1328Z" fill="#C1C5F4"/>
<path d="M254.799 105.12H254.423C253.492 105.12 252.741 104.369 252.741 103.439C252.741 102.508 253.492 101.757 254.423 101.757H254.799C255.73 101.757 256.481 102.508 256.481 103.439C256.481 104.369 255.73 105.12 254.799 105.12Z" fill="#C1C5F4"/>
<path d="M261.591 105.12H261.216C260.284 105.12 259.533 104.369 259.533 103.439C259.533 102.508 260.284 101.757 261.216 101.757H261.591C262.522 101.757 263.274 102.508 263.274 103.439C263.274 104.369 262.522 105.12 261.591 105.12Z" fill="#C1C5F4"/>
<path d="M268.384 105.12H268.008C267.077 105.12 266.326 104.369 266.326 103.439C266.326 102.508 267.077 101.757 268.008 101.757H268.384C269.315 101.757 270.066 102.508 270.066 103.439C270.058 104.369 269.307 105.12 268.384 105.12Z" fill="#C1C5F4"/>
<path d="M83.9702 185.816H63.1311V88.4867C63.1311 84.2248 66.5899 80.7683 70.8548 80.7683H127.354C131.619 80.7683 135.078 84.2248 135.078 88.4867V134.75C135.07 162.957 112.189 185.816 83.9702 185.816Z" fill="#C1C5F4"/>
<path d="M84.1032 182.906H63.9372V89.8787C63.9372 85.8279 67.2238 82.5513 71.2696 82.5513H125.304C129.358 82.5513 132.636 85.8357 132.636 89.8787V134.398C132.644 161.19 110.913 182.906 84.1032 182.906Z" fill="white"/>
<path d="M73.371 162.316V160.51C73.371 159.079 72.3694 157.921 71.1329 157.921H2.23807C1.00165 157.921 0 159.079 0 160.51V162.316C0 175.149 8.99139 185.55 20.08 185.55H90.4852C79.3966 185.55 73.2223 176.314 73.371 162.316Z" fill="#C1C5F4"/>
<path d="M71.6807 164.115V162.652C71.6807 161.495 70.7417 160.564 69.5913 160.564H5.06302C3.90486 160.564 2.97363 161.503 2.97363 162.652V164.115C2.97363 174.492 11.3938 182.906 21.7781 182.906H90.4852C80.1008 182.906 71.6807 177.886 71.6807 164.115Z" fill="white"/>
<path d="M125.437 124.42H76.3561C74.8067 124.42 73.5389 123.161 73.5389 121.605V94.9617C73.5389 93.4133 74.7988 92.1465 76.3561 92.1465H125.429C126.979 92.1465 128.246 93.4055 128.246 94.9617V121.605C128.254 123.153 126.986 124.42 125.437 124.42ZM76.3561 93.0693C75.3075 93.0693 74.4623 93.9216 74.4623 94.9617V121.605C74.4623 122.653 75.3153 123.497 76.3561 123.497H125.429C126.478 123.497 127.323 122.645 127.323 121.605V94.9617C127.323 93.9138 126.47 93.0693 125.429 93.0693H76.3561Z" fill="#C1C5F4"/>
<path d="M109.121 137.355H55.1727C54.4058 137.355 53.7798 136.729 53.7798 135.963C53.7798 135.196 54.4058 134.571 55.1727 134.571H109.121C109.888 134.571 110.514 135.196 110.514 135.963C110.514 136.729 109.888 137.355 109.121 137.355Z" fill="#C1C5F4"/>
<path d="M109.121 142.43H55.1727C54.4058 142.43 53.7798 141.804 53.7798 141.038C53.7798 140.271 54.4058 139.646 55.1727 139.646H109.121C109.888 139.646 110.514 140.271 110.514 141.038C110.514 141.804 109.888 142.43 109.121 142.43Z" fill="#C1C5F4"/>
<path d="M109.121 147.341H55.1727C54.4058 147.341 53.7798 146.715 53.7798 145.949C53.7798 145.182 54.4058 144.557 55.1727 144.557H109.121C109.888 144.557 110.514 145.182 110.514 145.949C110.514 146.707 109.888 147.341 109.121 147.341Z" fill="#C1C5F4"/>
<path d="M111.296 99.2472H110.976C110.185 99.2472 109.544 98.6059 109.544 97.8161C109.544 97.0263 110.185 96.385 110.976 96.385H111.296C112.087 96.385 112.729 97.0263 112.729 97.8161C112.729 98.6059 112.087 99.2472 111.296 99.2472Z" fill="#C1C5F4"/>
<path d="M117.079 99.2472H116.759C115.968 99.2472 115.327 98.6059 115.327 97.8161C115.327 97.0263 115.968 96.385 116.759 96.385H117.079C117.87 96.385 118.511 97.0263 118.511 97.8161C118.511 98.6059 117.87 99.2472 117.079 99.2472Z" fill="#C1C5F4"/>
<path d="M122.862 99.2472H122.542C121.751 99.2472 121.11 98.6059 121.11 97.8161C121.11 97.0263 121.751 96.385 122.542 96.385H122.862C123.653 96.385 124.295 97.0263 124.295 97.8161C124.295 98.6059 123.653 99.2472 122.862 99.2472Z" fill="#C1C5F4"/>
<path d="M86.1691 108.279H78.9071V120.26H86.1691V108.279Z" fill="#C1C5F4"/>
<path d="M106.194 109.28H98.9323V120.268H106.194V109.28Z" fill="#C1C5F4"/>
<path d="M117.776 104.377H110.514V120.268H117.776V104.377Z" fill="#C1C5F4"/>
<path d="M95.99 113.01H88.728V120.268H95.99V113.01Z" fill="#C1C5F4"/>
<path d="M434.055 114.833H347.569C344.04 114.833 341.176 111.97 341.176 108.444V76.389C341.176 72.8622 344.04 70 347.569 70H434.055C437.585 70 440.449 72.8622 440.449 76.389V108.444C440.449 111.97 437.585 114.833 434.055 114.833Z" fill="#C1C5F4"/>
<path d="M432.569 112.729H349.048C346.2 112.729 343.883 110.422 343.883 107.568V86.9384C343.883 84.0918 346.192 81.7771 349.048 81.7771H432.561C435.409 81.7771 437.725 84.084 437.725 86.9384V107.568C437.733 110.422 435.417 112.729 432.569 112.729Z" fill="white"/>
<path d="M347.405 76.7956H347.013C346.051 76.7956 345.26 76.0136 345.26 75.0439C345.26 74.0821 346.043 73.2922 347.013 73.2922H347.405C348.375 73.2922 349.158 74.0742 349.158 75.0439C349.158 76.0136 348.367 76.7956 347.405 76.7956Z" fill="white"/>
<path d="M354.479 76.7956H354.087C353.125 76.7956 352.335 76.0136 352.335 75.0439C352.335 74.0821 353.117 73.2922 354.087 73.2922H354.479C355.449 73.2922 356.232 74.0742 356.232 75.0439C356.224 76.0136 355.441 76.7956 354.479 76.7956Z" fill="#0000FF"/>
<path d="M361.545 76.7956H361.154C360.184 76.7956 359.401 76.0136 359.401 75.0439C359.401 74.0742 360.184 73.2922 361.154 73.2922H361.545C362.516 73.2922 363.298 74.0742 363.298 75.0439C363.298 76.0136 362.516 76.7956 361.545 76.7956Z" fill="#FF0000"/>
<path d="M433.914 88.5649H384.278C383.464 88.5649 382.791 87.9002 382.791 87.0791C382.791 86.2658 383.456 85.5933 384.278 85.5933H433.914C434.728 85.5933 435.401 86.258 435.401 87.0791C435.401 87.8924 434.728 88.5649 433.914 88.5649Z" fill="#C1C5F4"/>
<path d="M396.579 111.454H346.943C346.129 111.454 345.456 110.79 345.456 109.968C345.456 109.155 346.121 108.483 346.943 108.483H396.579C397.393 108.483 398.066 109.147 398.066 109.968C398.066 110.79 397.393 111.454 396.579 111.454Z" fill="#C1C5F4"/>
<path d="M404.749 111.454H401.564C400.75 111.454 400.077 110.79 400.077 109.968C400.077 109.155 400.743 108.483 401.564 108.483H404.749C405.563 108.483 406.236 109.147 406.236 109.968C406.228 110.79 405.563 111.454 404.749 111.454Z" fill="#C1C5F4"/>
<path d="M412.489 111.454H409.304C408.49 111.454 407.817 110.79 407.817 109.968C407.817 109.155 408.482 108.483 409.304 108.483H412.489C413.302 108.483 413.975 109.147 413.975 109.968C413.975 110.79 413.302 111.454 412.489 111.454Z" fill="#C1C5F4"/>
<path d="M434.392 95.0321H352.186C351.63 95.0321 351.177 94.5785 351.177 94.0233C351.177 93.4681 351.63 93.0145 352.186 93.0145H434.384C434.94 93.0145 435.394 93.4681 435.394 94.0233C435.401 94.5785 434.947 95.0321 434.392 95.0321Z" fill="#C1C5F4"/>
<path d="M434.392 99.3722H352.186C351.63 99.3722 351.177 98.9186 351.177 98.3634C351.177 97.8082 351.63 97.3546 352.186 97.3546H434.384C434.94 97.3546 435.394 97.8082 435.394 98.3634C435.401 98.9186 434.947 99.3722 434.392 99.3722Z" fill="#C1C5F4"/>
<path d="M197.071 356.763C189.418 352.329 185.325 342.014 185.02 333.576C184.715 325.138 188.228 316.325 195.161 311.484C202.455 306.386 212.847 306.479 220.351 311.273C227.848 316.075 232.238 325.13 231.902 334.022C231.565 342.913 226.713 351.406 219.538 356.677" fill="#22B573"/>
<path d="M209.278 357.576C209.232 357.576 209.185 356.888 209.138 355.644C209.098 354.26 209.052 352.493 208.989 350.381C208.872 345.939 208.699 339.801 208.402 333.021C208.105 326.241 207.737 320.11 207.463 315.676C207.338 313.564 207.228 311.797 207.15 310.421C207.087 309.177 207.072 308.489 207.119 308.481C207.166 308.473 207.275 309.162 207.424 310.397C207.573 311.633 207.76 313.424 207.964 315.637C208.371 320.071 208.817 326.202 209.114 332.989C209.411 339.777 209.505 345.924 209.49 350.373C209.482 352.602 209.458 354.401 209.412 355.644C209.38 356.888 209.333 357.576 209.278 357.576Z" fill="white"/>
<path d="M187.281 331.66C187.266 331.856 186.045 331.918 184.558 331.793C183.071 331.668 181.874 331.41 181.889 331.214C181.905 331.019 183.126 330.956 184.613 331.081C186.1 331.206 187.297 331.465 187.281 331.66Z" fill="#263238"/>
<path d="M187.696 324.09C187.618 324.27 186.561 323.981 185.348 323.441C184.128 322.902 183.204 322.315 183.29 322.135C183.368 321.955 184.425 322.245 185.638 322.784C186.851 323.324 187.774 323.903 187.696 324.09Z" fill="#263238"/>
<path d="M191.593 318.468C191.491 318.632 190.31 318.077 189.073 317.052C187.837 316.036 187.07 314.98 187.211 314.847C187.359 314.706 188.33 315.519 189.527 316.505C190.724 317.49 191.703 318.296 191.593 318.468Z" fill="#263238"/>
<path d="M195.521 313.158C195.341 313.236 194.77 312.352 194.254 311.179C193.737 310.006 193.463 308.99 193.643 308.911C193.823 308.833 194.394 309.717 194.911 310.89C195.427 312.063 195.701 313.08 195.521 313.158Z" fill="#263238"/>
<path d="M201.672 309.396C201.492 309.482 200.882 308.536 200.483 307.23C200.076 305.924 200.044 304.798 200.232 304.767C200.428 304.736 200.772 305.76 201.163 307.011C201.555 308.27 201.852 309.31 201.672 309.396Z" fill="#263238"/>
<path d="M211.939 305.15C212.127 305.213 212.009 306.018 211.681 306.949C211.352 307.879 210.937 308.575 210.75 308.505C210.562 308.442 210.679 307.637 211.008 306.706C211.337 305.783 211.751 305.087 211.939 305.15Z" fill="#263238"/>
<path d="M219.553 308.419C219.686 308.567 219.201 309.232 218.465 309.912C217.73 310.593 217.026 311.031 216.885 310.882C216.752 310.733 217.237 310.069 217.972 309.388C218.716 308.708 219.42 308.278 219.553 308.419Z" fill="#263238"/>
<path d="M226.26 312.743C226.369 312.908 225.774 313.502 224.929 314.081C224.084 314.651 223.309 314.988 223.2 314.823C223.09 314.659 223.685 314.065 224.53 313.486C225.375 312.915 226.15 312.579 226.26 312.743Z" fill="#263238"/>
<path d="M231.025 319.195C231.103 319.375 230.164 319.953 228.928 320.477C227.692 321.001 226.627 321.283 226.549 321.103C226.471 320.923 227.41 320.344 228.646 319.82C229.883 319.296 230.947 319.015 231.025 319.195Z" fill="#263238"/>
<path d="M232.896 326.233C232.919 326.428 231.964 326.71 230.759 326.859C229.554 327.007 228.56 326.968 228.537 326.773C228.513 326.577 229.468 326.295 230.673 326.147C231.878 325.998 232.872 326.037 232.896 326.233Z" fill="#263238"/>
<path d="M233.874 334.898C233.795 335.077 232.778 334.812 231.604 334.303C230.431 333.795 229.538 333.232 229.617 333.052C229.695 332.872 230.712 333.138 231.894 333.646C233.06 334.155 233.952 334.718 233.874 334.898Z" fill="#263238"/>
<path d="M233.013 342.327C232.95 342.506 231.667 342.202 230.321 341.318C228.975 340.442 228.177 339.386 228.318 339.253C228.466 339.113 229.445 339.887 230.712 340.716C231.98 341.552 233.083 342.139 233.013 342.327Z" fill="#263238"/>
<path d="M229.139 349.091C229.022 349.248 227.997 348.645 227.011 347.582C226.025 346.526 225.501 345.463 225.665 345.353C225.829 345.236 226.596 346.08 227.543 347.097C228.482 348.114 229.265 348.935 229.139 349.091Z" fill="#263238"/>
<path d="M192.368 349.889C192.462 350.061 191.382 350.804 189.965 351.539C188.549 352.274 187.32 352.735 187.234 352.555C187.14 352.383 188.22 351.64 189.637 350.905C191.053 350.17 192.282 349.709 192.368 349.889Z" fill="#263238"/>
<path d="M189.011 343.766C189.089 343.945 188.228 344.516 187.086 345.032C185.943 345.549 184.941 345.83 184.863 345.642C184.785 345.463 185.646 344.892 186.788 344.376C187.939 343.859 188.932 343.586 189.011 343.766Z" fill="#263238"/>
<path d="M186.546 338.346C186.577 338.542 185.513 338.855 184.175 339.042C182.836 339.23 181.733 339.23 181.702 339.035C181.67 338.839 182.735 338.526 184.073 338.339C185.411 338.151 186.514 338.151 186.546 338.346Z" fill="#263238"/>
<path d="M194.645 335.359C194.707 335.547 193.667 336.024 192.289 336.18C190.904 336.337 189.793 336.102 189.809 335.906C189.824 335.703 190.904 335.617 192.211 335.468C193.51 335.328 194.582 335.163 194.645 335.359Z" fill="#263238"/>
<path d="M201.367 328.673C201.422 328.86 200.6 329.275 199.489 329.384C198.378 329.494 197.486 329.244 197.509 329.056C197.525 328.853 198.385 328.774 199.418 328.673C200.451 328.571 201.312 328.477 201.367 328.673Z" fill="#263238"/>
<path d="M202.658 323.316C202.595 323.504 201.703 323.363 200.663 323.003C199.63 322.643 198.839 322.206 198.902 322.018C198.965 321.83 199.857 321.971 200.897 322.331C201.93 322.683 202.721 323.128 202.658 323.316Z" fill="#263238"/>
<path d="M205.123 317.897C204.982 318.038 204.372 317.631 203.934 316.872C203.495 316.114 203.449 315.379 203.636 315.332C203.832 315.277 204.161 315.84 204.552 316.513C204.943 317.185 205.264 317.756 205.123 317.897Z" fill="#263238"/>
<path d="M202.15 340.082C202.196 340.278 201.422 340.63 200.42 340.872C199.841 341.013 199.317 341.083 198.972 341.083L198.832 340.669C199.09 340.622 199.254 340.63 199.293 340.708C199.325 340.786 199.223 340.911 199.012 341.075L198.871 340.661C199.176 340.505 199.677 340.325 200.256 340.184C201.25 339.926 202.103 339.887 202.15 340.082Z" fill="#263238"/>
<path d="M203.535 349.576C203.605 349.764 202.619 350.319 201.336 350.827C200.044 351.335 198.949 351.593 198.871 351.406C198.8 351.218 199.786 350.663 201.07 350.155C202.361 349.654 203.464 349.396 203.535 349.576Z" fill="#263238"/>
<path d="M195.936 345.361C195.999 345.549 195.341 345.94 194.465 346.237C193.588 346.534 192.829 346.62 192.767 346.432C192.704 346.245 193.362 345.854 194.238 345.556C195.107 345.259 195.873 345.173 195.936 345.361Z" fill="#263238"/>
<path d="M196.515 326.022C196.468 326.209 195.326 326.1 194.003 325.631C192.681 325.162 191.718 324.536 191.804 324.356C191.89 324.176 192.955 324.505 194.246 324.958C195.529 325.412 196.562 325.826 196.515 326.022Z" fill="#263238"/>
<path d="M214.905 323.918C215.014 324.082 214.373 324.7 213.465 325.294C212.565 325.889 211.743 326.241 211.634 326.076C211.524 325.912 212.166 325.295 213.074 324.7C213.974 324.106 214.795 323.754 214.905 323.918Z" fill="#263238"/>
<path d="M215.907 333.459C215.946 333.654 215.273 333.959 214.396 334.139C213.52 334.319 212.776 334.311 212.737 334.116C212.698 333.92 213.371 333.615 214.248 333.435C215.124 333.255 215.867 333.263 215.907 333.459Z" fill="#263238"/>
<path d="M217.065 344.188C216.979 344.368 216.008 344.094 214.889 343.578C213.77 343.062 212.933 342.491 213.011 342.319C213.097 342.139 214.068 342.413 215.187 342.929C216.313 343.445 217.151 344.008 217.065 344.188Z" fill="#263238"/>
<path d="M214.608 354.628C214.451 354.753 213.825 354.237 213.191 353.47C212.565 352.704 212.182 351.985 212.33 351.859C212.487 351.734 213.113 352.25 213.747 353.017C214.373 353.783 214.764 354.503 214.608 354.628Z" fill="#263238"/>
<path d="M214.107 316.896C214.224 317.052 213.809 317.576 213.089 317.936C212.377 318.296 211.704 318.319 211.65 318.131C211.595 317.936 212.119 317.623 212.769 317.295C213.418 316.966 213.982 316.739 214.107 316.896Z" fill="#263238"/>
<path d="M223.114 326.515C223.176 326.694 222.347 327.156 221.204 327.312C220.062 327.476 219.138 327.257 219.154 327.062C219.162 326.859 220.046 326.749 221.11 326.601C222.175 326.46 223.051 326.327 223.114 326.515Z" fill="#263238"/>
<path d="M221.322 317.881C221.408 318.053 220.578 318.647 219.404 319.015C218.231 319.39 217.213 319.39 217.182 319.203C217.151 319.007 218.066 318.694 219.185 318.335C220.304 317.983 221.236 317.701 221.322 317.881Z" fill="#263238"/>
<path d="M225.086 339.895C225.086 340.09 223.669 340.215 221.963 339.902C220.257 339.597 218.974 338.98 219.037 338.8C219.099 338.604 220.437 338.901 222.089 339.199C223.732 339.496 225.094 339.691 225.086 339.895Z" fill="#263238"/>
<path d="M221.736 352.446C221.619 352.602 220.578 351.985 219.538 350.937C218.497 349.889 217.886 348.849 218.043 348.731C218.199 348.606 219.037 349.427 220.046 350.436C221.048 351.445 221.862 352.282 221.736 352.446Z" fill="#263238"/>
<path d="M207.009 307.668C207.119 307.824 204.153 309.021 200.725 312.634C197.298 316.161 193.768 322.401 192.892 329.932C192.477 333.678 192.829 337.298 193.362 340.528C193.917 343.766 194.661 346.636 195.349 349.036C196.038 351.429 196.672 353.345 197.094 354.682C197.517 356.012 197.744 356.755 197.697 356.77C197.65 356.786 197.337 356.082 196.828 354.776C196.32 353.47 195.615 351.578 194.864 349.185C194.113 346.8 193.315 343.914 192.712 340.645C192.141 337.384 191.75 333.701 192.18 329.854C193.072 322.151 196.766 315.801 200.357 312.29C202.142 310.507 203.824 309.318 205.045 308.63C205.64 308.255 206.156 308.051 206.477 307.887C206.821 307.715 207.001 307.645 207.009 307.668Z" fill="white"/>
<path d="M216.791 357.224C216.634 357.146 218.403 354.424 220.015 349.529C221.674 344.688 223.043 337.525 221.94 329.736C221.423 325.858 220.297 322.26 218.888 319.187C217.425 316.153 215.531 313.674 213.684 311.938C211.775 310.249 209.889 309.279 208.582 308.716C207.259 308.161 206.461 308.036 206.469 307.973C206.477 307.95 206.673 307.957 207.056 308.02C207.432 308.09 207.987 308.215 208.684 308.458C210.053 308.95 212.002 309.865 214.021 311.562C215.985 313.314 217.941 315.793 219.491 318.905C220.97 322.034 222.128 325.685 222.66 329.642C223.787 337.572 222.3 344.845 220.5 349.701C220.093 350.937 219.577 352 219.185 352.954C218.724 353.877 218.34 354.682 217.996 355.316C217.252 356.567 216.83 357.247 216.791 357.224Z" fill="white"/>
<path d="M189.011 355.527H228.545L228.787 363.433H189.011V355.527Z" fill="#263238"/>
<path d="M192.368 359.484L194.645 383.617H223.536L225.86 359.742L192.368 359.484Z" fill="#263238"/>
<path d="M228.787 363.527C228.787 363.722 219.882 363.887 208.911 363.887C197.932 363.887 189.026 363.722 189.026 363.527C189.026 363.331 197.924 363.167 208.911 363.167C219.882 363.167 228.787 363.331 228.787 363.527Z" fill="#455A64"/>
<path d="M224.765 370.878C224.804 370.901 224.538 371.456 223.92 372.387C223.302 373.31 222.316 374.608 220.852 376.008L220.672 376.18L220.492 375.992C218.591 373.998 215.977 371.55 212.745 369.212L213.183 369.196C212.08 370.166 210.93 371.175 209.748 372.207C208.347 373.427 206.986 374.616 205.687 375.742L205.46 375.937L205.233 375.75C202.768 373.685 200.53 371.801 198.636 370.205L199.019 370.166C197.658 371.832 196.507 373.224 195.607 374.326C194.786 375.304 194.308 375.828 194.269 375.789C194.23 375.758 194.621 375.171 195.373 374.139C196.226 372.997 197.313 371.55 198.597 369.83L198.761 369.611L198.98 369.791C200.905 371.355 203.182 373.193 205.679 375.218L205.233 375.226C206.524 374.092 207.878 372.903 209.278 371.675C210.46 370.643 211.618 369.642 212.722 368.673L212.933 368.485L213.16 368.649C216.415 371.042 219.013 373.568 220.868 375.648L220.508 375.632C223.442 372.974 224.655 370.792 224.765 370.878Z" fill="#455A64"/>
</svg>
