<svg width="51" height="49" viewBox="0 0 51 49" fill="none" xmlns="http://www.w3.org/2000/svg">
<path d="M0.325922 14.8322L0.31731 14.815L0.319567 14.7811C0.327194 14.6667 0.358226 14.5411 0.437139 14.4359L0.442469 14.4288L0.448752 14.4225L0.458703 14.4126L0.464683 14.4066L8.45194 4.84178C8.55817 4.70976 8.72162 4.64343 8.88026 4.64343H41.5696C41.7327 4.64343 41.8932 4.71951 41.9962 4.83962L41.9972 4.8408L41.9972 4.84081L49.9952 14.4106L0.325922 14.8322ZM0.325922 14.8322V14.8405L0.327938 14.8516C0.344104 14.9405 0.377337 15.0258 0.437234 15.1034C0.437645 15.1039 0.438057 15.1044 0.43847 15.105L24.7747 48.4197C24.7749 48.4201 24.7751 48.4204 24.7753 48.4207C24.8781 48.5657 25.0417 48.6517 25.2216 48.6517C25.3994 48.6517 25.5705 48.5674 25.6746 48.4207C25.6748 48.4204 25.675 48.4201 25.6753 48.4197L49.9834 15.1337C50.1663 14.9289 50.1737 14.6233 49.9954 14.4109L0.325922 14.8322ZM48.4597 15.3454L25.2217 47.1542L1.97706 15.3258L48.4597 15.3454ZM48.3984 14.2333L2.07109 14.2136L9.13767 5.7556H41.3123L48.3984 14.2333Z" fill="white" stroke="white" stroke-width="0.25"/>
<path d="M15.6052 14.2864H15.6051C15.4332 14.2864 15.2635 14.3713 15.1603 14.5089C15.0572 14.6463 15.023 14.8264 15.074 14.9972C15.0741 14.9974 15.0742 14.9976 15.0742 14.9978L24.6902 48.2493L24.8104 48.215L24.6904 48.2497L24.6903 48.2496C24.7586 48.4883 24.973 48.6517 25.2216 48.6517C25.4701 48.6517 25.6907 48.4819 25.7593 48.2505L25.7595 48.2497L35.3618 15.0128C35.362 15.0123 35.3622 15.0117 35.3623 15.0112C35.4139 14.846 35.379 14.6591 35.2763 14.5221C35.1738 14.3854 35.0112 14.2997 34.8316 14.2997C34.8315 14.2997 34.8315 14.2997 34.8315 14.2997L15.6052 14.2864ZM34.0949 15.4051L25.2216 46.0871L16.3484 15.3921L34.0949 15.4051Z" fill="white" stroke="white" stroke-width="0.25"/>
<path d="M15.1211 14.4781L15.1211 14.4781L15.1207 14.4788C14.9588 14.743 15.0436 15.0827 15.2972 15.2451C15.3881 15.3078 15.4931 15.3323 15.592 15.3323C15.7806 15.3323 15.9592 15.2376 16.0682 15.0699L16.0682 15.0699L16.0695 15.0678L22.0317 5.49112L22.0322 5.49038C22.1946 5.22536 22.1087 4.88439 21.8532 4.72257L21.8532 4.72256L21.8517 4.7216C21.5867 4.55917 21.2457 4.64506 21.0839 4.90056L21.0834 4.90138L15.1211 14.4781Z" fill="white" stroke="white" stroke-width="0.25"/>
<path d="M35.1501 15.2507L35.1502 15.2508L35.1556 15.2475C35.4211 15.0848 35.498 14.7349 35.3354 14.4777C35.3353 14.4775 35.3352 14.4773 35.3351 14.4772L29.3739 4.90206C29.3738 4.90192 29.3737 4.90179 29.3736 4.90166C29.2104 4.63578 28.8676 4.56061 28.6051 4.72153C28.3396 4.88428 28.2627 5.2342 28.4253 5.49144C28.4254 5.49158 28.4254 5.49173 28.4255 5.49187L34.3867 15.0669C34.49 15.2383 34.6706 15.3323 34.8581 15.3323C34.9649 15.3323 35.0653 15.297 35.1501 15.2507Z" fill="white" stroke="white" stroke-width="0.25"/>
<path d="M4.33736 27.4832C4.14503 27.4832 3.97923 27.3572 3.92618 27.1781L3.07727 24.4126L0.305074 23.5637C0.126009 23.504 0 23.3382 0 23.1458C0 22.9535 0.126009 22.7877 0.305074 22.7346L3.07064 21.8857L3.91954 19.1135C3.9726 18.9345 4.14503 18.8085 4.33073 18.8085C4.52306 18.8085 4.68886 18.9345 4.74192 19.1135L5.59745 21.8857L8.36965 22.7346C8.54872 22.7877 8.67472 22.9601 8.67472 23.1458C8.67472 23.3382 8.54872 23.504 8.36965 23.557L5.59745 24.4059L4.74192 27.1715C4.68886 27.3572 4.52306 27.4832 4.33736 27.4832ZM1.89677 23.1458L3.54152 23.6499C3.68079 23.6897 3.7869 23.7958 3.82669 23.935L4.33073 25.5798L4.8414 23.9417C4.88119 23.8024 4.9873 23.6963 5.12658 23.6565L6.77133 23.1525L5.12658 22.6484C4.9873 22.6086 4.88119 22.5025 4.8414 22.3633L4.33073 20.7119L3.82669 22.3633C3.7869 22.5025 3.68079 22.6086 3.54152 22.6484L1.89677 23.1458Z" fill="white"/>
<path d="M40.6081 6.19434C40.4158 6.19434 40.25 6.06833 40.1969 5.88926L39.6398 4.06545L37.816 3.50836C37.6369 3.4553 37.5109 3.2895 37.5109 3.09717C37.5109 2.90484 37.6369 2.73904 37.816 2.68598L39.6398 2.12226L40.1969 0.305074C40.25 0.126009 40.4158 0 40.6081 0C40.8004 0 40.9662 0.126009 41.0193 0.305074L41.583 2.12226L43.4002 2.68598C43.5793 2.73904 43.7053 2.91147 43.7053 3.09717C43.7053 3.2895 43.5793 3.4553 43.4002 3.50836L41.583 4.06545L41.0193 5.88926C40.9662 6.06833 40.8004 6.19434 40.6081 6.19434ZM39.4077 3.09717L40.1107 3.30939C40.25 3.34919 40.3561 3.4553 40.3959 3.59457L40.6081 4.29094L40.8203 3.59457C40.8601 3.4553 40.9662 3.34919 41.1055 3.30939L41.8019 3.09717L41.0989 2.87831C40.9596 2.83852 40.8535 2.73241 40.8137 2.59313L40.6015 1.89677L40.3892 2.59313C40.3494 2.73241 40.2433 2.83852 40.1041 2.87831L39.4077 3.09717Z" fill="white"/>
</svg>
