<svg width="90" height="90" viewBox="0 0 90 90" fill="none" xmlns="http://www.w3.org/2000/svg">
<rect width="90" height="90" rx="5" fill="#2395FE"/>
<path d="M20.493 50.7716H69.7156C70.0577 50.7716 70.3336 50.4957 70.3336 50.1536V15.493C70.3336 15.1509 70.0577 14.875 69.7156 14.875H20.493C20.1509 14.875 19.875 15.1509 19.875 15.493V50.1536C19.875 50.4957 20.1509 50.7716 20.493 50.7716ZM69.0976 16.111V49.5356H21.111V16.111H69.0976Z" fill="white" stroke="white" stroke-width="0.25"/>
<path d="M24.0883 46.3083V46.5583H24.3383H65.8779H66.1279V46.3083V19.3383V19.0883H65.8779H24.3383H24.0883V19.3383V46.3083ZM66.3633 47.0443H23.8453C23.7103 47.0443 23.6023 46.9363 23.6023 46.8013V18.8453C23.6023 18.7103 23.7103 18.6023 23.8453 18.6023H66.3709C66.5059 18.6023 66.6139 18.7103 66.6139 18.8453V46.7972C66.6085 46.9375 66.4961 47.0443 66.3633 47.0443Z" fill="white" stroke="white" stroke-width="0.5"/>
<path d="M37.2932 57.0697L37.2933 57.0698L37.2953 57.0634L39.5322 50.0798C39.567 49.9769 39.6614 49.9106 39.7649 49.9106H50.4361C50.5395 49.9106 50.6339 49.9769 50.6688 50.0798L52.8677 56.9571L52.8765 56.9847L52.8914 57.0096C52.9183 57.0544 52.9316 57.1015 52.9316 57.1388C52.9316 57.2738 52.8236 57.3818 52.6887 57.3818H52.6886H52.6886H52.6886H52.6886H52.6886H52.6886H52.6886H52.6886H52.6886H52.6886H52.6885H52.6885H52.6885H52.6885H52.6885H52.6885H52.6885H52.6885H52.6885H52.6884H52.6884H52.6884H52.6884H52.6884H52.6884H52.6884H52.6884H52.6884H52.6884H52.6884H52.6884H52.6883H52.6883H52.6883H52.6883H52.6883H52.6883H52.6883H52.6883H52.6883H52.6882H52.6882H52.6882H52.6882H52.6882H52.6882H52.6882H52.6882H52.6882H52.6881H52.6881H52.6881H52.6881H52.6881H52.6881H52.6881H52.688H52.688H52.688H52.688H52.688H52.688H52.688H52.6879H52.6879H52.6879H52.6879H52.6879H52.6879H52.6879H52.6878H52.6878H52.6878H52.6878H52.6878H52.6878H52.6877H52.6877H52.6877H52.6877H52.6877H52.6877H52.6876H52.6876H52.6876H52.6876H52.6876H52.6876H52.6875H52.6875H52.6875H52.6875H52.6875H52.6874H52.6874H52.6874H52.6874H52.6874H52.6873H52.6873H52.6873H52.6873H52.6873H52.6872H52.6872H52.6872H52.6872H52.6872H52.6871H52.6871H52.6871H52.6871H52.6871H52.687H52.687H52.687H52.687H52.687H52.6869H52.6869H52.6869H52.6869H52.6868H52.6868H52.6868H52.6868H52.6868H52.6867H52.6867H52.6867H52.6867H52.6866H52.6866H52.6866H52.6866H52.6865H52.6865H52.6865H52.6865H52.6864H52.6864H52.6864H52.6864H52.6863H52.6863H52.6863H52.6863H52.6862H52.6862H52.6862H52.6862H52.6861H52.6861H52.6861H52.6861H52.686H52.686H52.686H52.686H52.6859H52.6859H52.6859H52.6859H52.6858H52.6858H52.6858H52.6857H52.6857H52.6857H52.6857H52.6856H52.6856H52.6856H52.6855H52.6855H52.6855H52.6855H52.6854H52.6854H52.6854H52.6853H52.6853H52.6853H52.6853H52.6852H52.6852H52.6852H52.6851H52.6851H52.6851H52.6851H52.685H52.685H52.685H52.6849H52.6849H52.6849H52.6848H52.6848H52.6848H52.6847H52.6847H52.6847H52.6847H52.6846H52.6846H52.6846H52.6845H52.6845H52.6845H52.6844H52.6844H52.6844H52.6843H52.6843H52.6843H52.6842H52.6842H52.6842H52.6841H52.6841H52.6841H52.684H52.684H52.684H52.6839H52.6839H52.6839H52.6838H52.6838H52.6838H52.6837H52.6837H52.6837H52.6836H52.6836H52.6836H52.6835H52.6835H52.6835H52.6834H52.6834H52.6834H52.6833H52.6833H52.6833H52.6832H52.6832H52.6832H52.6831H52.6831H52.6831H52.683H52.683H52.6829H52.6829H52.6829H52.6828H52.6828H52.6828H52.6827H52.6827H52.6827H52.6826H52.6826H52.6825H52.6825H52.6825H52.6824H52.6824H52.6824H52.6823H52.6823H52.6823H52.6822H52.6822H52.6821H52.6821H52.6821H52.682H52.682H52.682H52.6819H52.6819H52.6818H52.6818H52.6818H52.6817H52.6817H52.6817H52.6816H52.6816H52.6815H52.6815H52.6815H52.6814H52.6814H52.6813H52.6813H52.6813H52.6812H52.6812H52.6812H52.6811H52.6811H52.681H52.681H52.681H52.6809H52.6809H52.6808H52.6808H52.6808H52.6807H52.6807H52.6806H52.6806H52.6806H52.6805H52.6805H52.6804H52.6804H52.6804H52.6803H52.6803H52.6802H52.6802H52.6802H52.6801H52.6801H52.68H52.68H52.68H52.6799H52.6799H52.6798H52.6798H52.6798H52.6797H52.6797H52.6796H52.6796H52.6796H52.6795H52.6795H52.6794H52.6794H52.6793H52.6793H52.6793H52.6792H52.6792H52.6791H52.6791H52.6791H52.679H52.679H52.6789H52.6789H52.6788H52.6788H52.6788H52.6787H52.6787H52.6786H52.6786H52.6786H52.6785H52.6785H52.6784H52.6784H52.6783H52.6783H52.6783H52.6782H52.6782H52.6781H52.6781H52.678H52.678H52.678H52.6779H52.6779H52.6778H52.6778H52.6777H52.6777H52.6777H52.6776H52.6776H52.6775H52.6775H52.6774H52.6774H52.6774H52.6773H52.6773H52.6772H52.6772H52.6771H52.6771H52.6771H52.677H52.677H52.6769H52.6769H52.6768H52.6768H52.6768H52.6767H52.6767H52.6766H52.6766H52.6765H52.6765H52.6764H52.6764H52.6764H52.6763H52.6763H52.6762H52.6762H52.6761H52.6761H52.6761H52.676H52.676H52.6759H52.6759H52.6758H52.6758H52.6757H52.6757H52.6757H52.6756H52.6756H52.6755H52.6755H52.6754H52.6754H52.6753H52.6753H52.6753H52.6752H52.6752H52.6751H52.6751H52.675H52.675H52.6749H52.6749H52.6749H52.6748H52.6748H52.6747H52.6747H52.6746H52.6746H52.6746H52.6745H52.6745H52.6744H52.6744H52.6743H52.6743H52.6742H52.6742H52.6742H52.6741H52.6741H52.674H52.674H52.6739H52.6739H52.6738H52.6738H52.6738H52.6737H52.6737H52.6736H52.6736H52.6735H52.6735H37.5275C37.4532 57.3818 37.3816 57.3482 37.327 57.279C37.2796 57.2096 37.2702 57.1356 37.2932 57.0697ZM37.9645 56.5694L37.8596 56.8959H38.2025H51.9985H52.3409L52.2366 56.5697L50.3177 50.5705L50.2621 50.3966H50.0796H40.1289H39.9466L39.8909 50.5702L37.9645 56.5694Z" fill="white" stroke="white" stroke-width="0.5"/>
<path d="M45.1043 54.9472C44.3869 54.9472 43.8071 54.363 43.8071 53.6424C43.8071 52.9227 44.3937 52.3376 45.1043 52.3376C45.8217 52.3376 46.4015 52.9219 46.4015 53.6424C46.4015 54.3622 45.8149 54.9472 45.1043 54.9472ZM45.1043 52.8312C44.6531 52.8312 44.293 53.1956 44.293 53.65C44.293 54.0947 44.6509 54.4689 45.1043 54.4689C45.5555 54.4689 45.9155 54.1044 45.9155 53.65C45.9155 53.1956 45.5555 52.8312 45.1043 52.8312Z" fill="white" stroke="white" stroke-width="0.5"/>
<path d="M25.3284 60.6371L25.3284 60.6371L25.3286 60.6358C25.3475 60.5145 25.4478 60.4301 25.567 60.4301H64.6341C64.7533 60.4301 64.8535 60.5145 64.8725 60.6358L64.8727 60.6371L67.0873 74.3496L67.0934 74.3874L67.1105 74.4215C67.1153 74.431 67.1221 74.4535 67.1221 74.5069H67.122L67.1221 74.5139C67.1257 74.6421 67.023 74.7499 66.8867 74.7499H66.8866H66.8866H66.8866H66.8865H66.8865H66.8865H66.8864H66.8864H66.8864H66.8863H66.8863H66.8863H66.8862H66.8862H66.8862H66.8861H66.8861H66.886H66.886H66.886H66.8859H66.8859H66.8859H66.8858H66.8858H66.8858H66.8857H66.8857H66.8857H66.8856H66.8856H66.8856H66.8855H66.8855H66.8855H66.8854H66.8854H66.8853H66.8853H66.8853H66.8852H66.8852H66.8851H66.8851H66.8851H66.885H66.885H66.8849H66.8849H66.8848H66.8848H66.8848H66.8847H66.8847H66.8846H66.8846H66.8845H66.8845H66.8844H66.8844H66.8843H66.8843H66.8842H66.8842H66.8841H66.8841H66.884H66.884H66.8839H66.8839H66.8838H66.8837H66.8837H66.8837H66.8836H66.8836H66.8835H66.8835H66.8835H66.8834H66.8834H66.8833H66.8833H66.8832H66.8832H66.8831H66.8831H66.8831H66.883H66.883H66.883H66.8829H66.8829H66.8829H66.8828H66.8828H66.8828H66.8827H66.8827H66.8827H66.8827H66.8826H66.8826H66.8826H66.8825H66.8825H66.8825H66.8824H66.8824H66.8824H66.8823H66.8823H66.8823H66.8822H66.8822H66.8822H66.8821H66.8821H66.8821H66.882H66.882H66.882H66.8819H66.8819H66.8819H66.8818H66.8818H66.8818H66.8817H66.8817H66.8817H66.8816H66.8816H66.8816H66.8815H66.8815H66.8815H66.8814H66.8814H66.8814H66.8813H66.8813H66.8813H66.8812H66.8812H66.8812H66.8811H66.8811H66.8811H66.881H66.881H66.8809H66.8809H66.8809H66.8808H66.8808H66.8808H66.8807H66.8807H66.8807H66.8806H66.8806H66.8805H66.8805H66.8805H66.8804H66.8804H66.8804H66.8803H66.8803H66.8803H66.8802H66.8802H66.8801H66.8801H66.8801H66.88H66.88H66.88H66.8799H66.8799H66.8798H66.8798H66.8798H66.8797H66.8797H66.8797H66.8796H66.8796H66.8795H66.8795H66.8795H66.8794H66.8794H66.8793H66.8793H66.8793H66.8792H66.8792H66.8792H66.8791H66.8791H66.879H66.879H66.879H66.8789H66.8789H66.8788H66.8788H66.8788H66.8787H66.8787H66.8786H66.8786H66.8786H66.8785H66.8785H66.8784H66.8784H66.8784H66.8783H66.8783H66.8782H66.8782H66.8782H66.8781H66.8781H66.878H66.878H66.878H66.8779H66.8779H66.8778H66.8778H66.8778H66.8777H66.8777H66.8776H66.8776H66.8775H66.8775H66.8775H66.8774H66.8774H66.8773H66.8773H66.8773H66.8772H66.8772H66.8771H66.8771H66.8771H66.877H66.877H66.8769H66.8769H66.8768H66.8768H66.8768H66.8767H66.8767H66.8766H66.8766H66.8765H66.8765H66.8765H66.8764H66.8764H66.8763H66.8763H66.8763H66.8762H66.8762H66.8761H66.8761H66.876H66.876H66.876H66.8759H66.8759H66.8758H66.8758H66.8757H66.8757H66.8757H66.8756H66.8756H66.8755H66.8755H66.8754H66.8754H66.8754H66.8753H66.8753H66.8752H66.8752H66.8751H66.8751H66.8751H66.875H66.875H66.8749H66.8749H66.8748H66.8748H66.8747H66.8747H66.8747H66.8746H66.8746H66.8745H66.8745H66.8744H66.8744H66.8744H66.8743H66.8743H66.8742H66.8742H66.8741H66.8741H66.8741H66.874H66.874H66.8739H66.8739H66.8738H66.8738H66.8737H66.8737H66.8737H66.8736H66.8736H66.8735H66.8735H66.8734H66.8734H66.8733H66.8733H66.8733H66.8732H66.8732H66.8731H66.8731H66.873H66.873H66.8729H66.8729H66.8729H66.8728H66.8728H66.8727H66.8727H66.8726H66.8726H66.8725H66.8725H66.8725H66.8724H66.8724H66.8723H66.8723H66.8722H66.8722H66.8722H66.8721H66.8721H66.872H66.872H66.8719H66.8719H66.8718H66.8718H66.8717H66.8717H66.8717H66.8716H66.8716H66.8715H66.8715H23.3372C23.2668 74.7499 23.2006 74.7218 23.1501 74.6654C23.0996 74.6004 23.081 74.5275 23.0911 74.4629C23.0911 74.4628 23.0911 74.4626 23.0911 74.4625L25.3284 60.6371ZM23.6668 73.9742L23.6201 74.264H23.9136H66.2951H66.5888L66.5419 73.974L64.4637 61.1261L64.4298 60.916H64.2169H25.9841H25.7712L25.7373 61.1262L23.6668 73.9742Z" fill="white" stroke="white" stroke-width="0.5"/>
<path d="M61.4942 63.7905H28.7145C28.5795 63.7905 28.4715 63.6825 28.4715 63.5476C28.4715 63.4126 28.5795 63.3046 28.7145 63.3046H61.5017C61.6355 63.3046 61.7429 63.4107 61.7447 63.5441C61.739 63.6841 61.6267 63.7905 61.4942 63.7905Z" fill="white" stroke="white" stroke-width="0.5"/>
<path d="M61.4942 67.9013H28.7145C28.5795 67.9013 28.4715 67.7932 28.4715 67.6583C28.4715 67.5233 28.5795 67.4153 28.7145 67.4153H61.5017C61.6367 67.4153 61.7447 67.5233 61.7447 67.6583C61.7447 67.7883 61.6341 67.9013 61.4942 67.9013Z" fill="white" stroke="white" stroke-width="0.5"/>
<path d="M60.713 71.7466H52.3853C52.2504 71.7466 52.1423 71.6386 52.1423 71.5036C52.1423 71.3686 52.2504 71.2606 52.3853 71.2606H60.713C60.8479 71.2606 60.956 71.3686 60.956 71.5036C60.956 71.6386 60.8479 71.7466 60.713 71.7466ZM36.9132 71.7466H28.7145C28.5795 71.7466 28.4715 71.6386 28.4715 71.5036C28.4715 71.3686 28.5795 71.2606 28.7145 71.2606H36.9132C37.0482 71.2606 37.1562 71.3686 37.1562 71.5036C37.1562 71.6386 37.0482 71.7466 36.9132 71.7466Z" fill="white" stroke="white" stroke-width="0.5"/>
<path d="M49.4805 71.7466H38.7183C38.5833 71.7466 38.4753 71.6386 38.4753 71.5036C38.4753 71.3686 38.5833 71.2606 38.7183 71.2606H49.4805C49.6155 71.2606 49.7235 71.3686 49.7235 71.5036C49.7235 71.6386 49.6155 71.7466 49.4805 71.7466Z" fill="white" stroke="white" stroke-width="0.5"/>
<path d="M48.5984 22.1663L48.5984 22.1662C48.0678 22.2098 47.5357 22.3261 47.0167 22.5087C46.2261 22.7991 45.5064 23.264 44.8867 23.8837C43.7255 25.0449 43.1285 26.1865 43.117 27.0808C43.1171 27.0814 43.1172 27.0819 43.1173 27.0826L43.1175 27.0835C43.1183 27.0887 43.12 27.0988 43.1214 27.1097C43.1228 27.1213 43.1243 27.1369 43.1245 27.155M48.5984 22.1663L42.8745 27.1578M48.5984 22.1663L48.6077 22.1652C48.6882 22.1556 48.7829 22.203 48.8287 22.287C48.8769 22.3754 48.8679 22.4814 48.8178 22.5482L48.8168 22.5496C48.2601 23.3028 48.2449 24.0472 48.2303 24.7561C48.23 24.7712 48.2297 24.7863 48.2294 24.8014L48.2294 24.8014L48.2294 24.8039C48.2216 25.5065 48.206 26.1599 47.6807 26.6852L47.6795 26.6864C46.5219 27.859 45.3767 28.455 44.4748 28.455H44.4748H44.4747H44.4747H44.4746H44.4746H44.4745H44.4745H44.4744H44.4744H44.4743H44.4743H44.4743H44.4742H44.4742H44.4741H44.4741H44.474H44.474H44.4739H44.4739H44.4738H44.4738H44.4737H44.4737H44.4736H44.4736H44.4735H44.4735H44.4734H44.4734H44.4733H44.4733H44.4732H44.4732H44.4731H44.4731H44.473H44.473H44.4729H44.4729H44.4728H44.4728H44.4727H44.4727H44.4726H44.4726H44.4725H44.4725H44.4724H44.4724H44.4723H44.4723H44.4722H44.4722H44.4721H44.472H44.472H44.4719H44.4719H44.4718H44.4718H44.4717H44.4717H44.4716H44.4716H44.4715H44.4715H44.4714H44.4713H44.4713H44.4712H44.4712H44.4711H44.4711H44.471H44.4709H44.4709H44.4708H44.4708H44.4707H44.4707H44.4706H44.4705H44.4705H44.4704H44.4704H44.4703H44.4703H44.4702H44.4701H44.4701H44.47H44.47H44.4699H44.4698H44.4698H44.4697H44.4697H44.4696H44.4695H44.4695H44.4694H44.4694H44.4693H44.4692H44.4692H44.4691H44.4691H44.469H44.4689H44.4689H44.4688H44.4688H44.4687H44.4686H44.4686H44.4685H44.4684H44.4684H44.4683H44.4683H44.4682H44.4681H44.4681H44.468H44.4679H44.4679H44.4678H44.4677H44.4677H44.4676H44.4676H44.4675H44.4674H44.4674H44.4673H44.4672H44.4672H44.4671H44.467H44.467H44.4669H44.4668H44.4668H44.4667H44.4666H44.4666H44.4665H44.4664H44.4664H44.4663H44.4662H44.4662H44.4661H44.466H44.466H44.4659H44.4658H44.4658H44.4657H44.4656H44.4656H44.4655H44.4654H44.4654H44.4653H44.4652H44.4652H44.4651H44.465H44.4649H44.4649H44.4648H44.4647H44.4647H44.4646H44.4645H44.4645H44.4644H44.4643H44.4642H44.4642H44.4641H44.464H44.464H44.4639H44.4638H44.4638H44.4637H44.4636H44.4635H44.4635H44.4634H44.4633H44.4633H44.4632H44.4631H44.463H44.463H44.4629H44.4628H44.4627H44.4627H44.4626H44.4625H44.4625H44.4624H44.4623H44.4622H44.4622H44.4621H44.462H44.4619H44.4619H44.4618H44.4617H44.4616H44.4616H44.4615H44.4614H44.4614H44.4613H44.4612H44.4611H44.4611H44.461H44.4609H44.4608H44.4608H44.4607H44.4606H44.4605H44.4604H44.4604H44.4603H44.4602H44.4601H44.4601H44.46H44.4599H44.4598H44.4598H44.4597H44.4596H44.4595H44.4595H44.4594H44.4593H44.4592H44.4591H44.4591H44.459H44.4589H44.4588H44.4588H44.4587H44.4586H44.4585H44.4585H44.4584H44.4583H44.4582H44.4581H44.4581H44.458H44.4579H44.4578H44.4577H44.4577H44.4576H44.4575H44.4574H44.4573H44.4573H44.4572H44.4571H44.457H44.457H44.4569H44.4568H44.4567H44.4566H44.4566H44.4565H44.4564H44.4563H44.4562H44.4562H44.4561H44.456H44.4559H44.4558H44.4557H44.4557H44.4556H44.4555H44.4554H44.4553H44.4553H44.4552H44.4551H44.455H44.4549H44.4549H44.4548H44.4547H44.4546H44.4545H44.4544H44.4544H44.4543H44.4542H44.4541H44.454H44.454H44.4539H44.4538H44.4537H44.4536H44.4535H44.4535H44.4534H44.4533H44.4532H44.4531H44.453H44.453H44.4529H44.4528H44.4527H44.4526H44.4525H44.4525H44.4524H44.4523H44.4522H44.4521H44.452H44.452H44.4519H44.4518H44.4517H44.4516H44.4515H44.4515H44.4514H44.4513H44.4512H44.4511H44.451H44.451H44.4509H44.4508H44.4507H44.4506H44.4505H44.4504H44.4504H44.4503H44.4502H44.4501H44.45H44.4499H44.4499H44.4498H44.4497H44.4496H44.4495H44.4494H44.4493H44.4493H44.4492H44.4491H44.449H44.4489H44.4488H44.4487H44.4487H44.4486H44.4485H44.4484H44.4483H44.4482H44.4481H44.4481H44.448H44.4479H44.4478H44.4477H44.4476H44.4475H44.4474H44.4474H44.4473H44.4472H44.4471H44.447H44.4469H44.4468H44.4468H44.4467H44.4466H44.4465H44.4464H44.4463H44.4462H44.4461H44.4461H44.446H44.4459H44.4458H44.4457H44.4456H44.4455H44.4454H44.4454H44.4453H44.4452H44.4451H44.445H44.4449H44.4448H44.4447H44.4447H44.4446H44.4445H44.4444H44.4443H44.4442H44.4441H44.444H44.444H44.4439H44.4438H44.4437H44.4436H44.4435H44.4434H44.4433H44.4433H44.4432H44.4431H44.443H44.4429H44.4428H44.4427H44.4426H44.4426H44.4425H44.4424H44.4423H44.4422H44.4421H44.442H44.4419H44.4418H44.4418H44.4417H44.4416H44.4415H44.4414H44.4413H44.4412H44.4411H44.4411H44.441H44.4409H44.4408H44.4407H44.4406H44.4405H44.4404H44.4403H44.4403H44.4402H44.4401H44.44H44.4399H44.4398H44.4397H44.4396H44.4395H44.4395H44.4394H44.4393H44.4392H44.4391H44.439H44.4389H44.4388H44.4387H44.4387H44.4386H44.4385H44.4384H44.4383H44.4382H44.4381H44.438H44.4379H44.4379H44.4378H44.4377H44.4376H44.4375H44.4374H44.4373H44.4372H44.4371H44.4371H44.437H44.4369H44.4369H44.4369H44.4369H44.4369H44.4369H44.4369H44.4368H44.4368H44.4368H44.4368H44.4368H44.4368H44.4368H44.4368H44.4368H44.4368H44.4368H44.4368H44.4368H44.4368H44.4368H44.4368H44.4368H44.4368H44.4368H44.4368H44.4367H44.4367H44.4367H44.4367H44.4367H44.4367H44.4367H44.4367H44.4367H44.4367H44.4367H44.4367H44.4367H44.4366H44.4366H44.4366H44.4366H44.4366H44.4366H44.4366H44.4366H44.4366H44.4366H44.4365H44.4365H44.4365H44.4365H44.4365H44.4365H44.4365H44.4365H44.4365H44.4365H44.4364H44.4364H44.4364H44.4364H44.4364H44.4364H44.4364H44.4364H44.4363H44.4363H44.4363H44.4363H44.4363H44.4363H44.4363H44.4362H44.4362H44.4362H44.4362H44.4362H44.4362H44.4362H44.4361H44.4361H44.4361H44.4361H44.4361H44.4361H44.4361H44.436H44.436H44.436H44.436H44.436H44.436H44.4359H44.4359H44.4359H44.4359H44.4359H44.4359H44.4358H44.4358H44.4358H44.4358H44.4358H44.4357H44.4357H44.4357H44.4357H44.4357H44.4357H44.4356H44.4356H44.4356H44.4356H44.4356H44.4355H44.4355H44.4355H44.4355H44.4355H44.4354H44.4354H44.4354H44.4354H44.4354H44.4353H44.4353H44.4353H44.4353H44.4352H44.4352H44.4352H44.4352H44.4352H44.4351H44.4351H44.4351H44.4351H44.435H44.435H44.435H44.435H44.435H44.4349H44.4349H44.4349H44.4349H44.4348H44.4348H44.4348H44.4348H44.4347H44.4347H44.4347H44.4347H44.4346H44.4346H44.4346H44.4346H44.4345H44.4345H44.4345H44.4345H44.4344H44.4344H44.4344H44.4344H44.4343H44.4343H44.4343H44.4343H44.4342H44.4342H44.4342H44.4342H44.4341H44.4341H44.4341H44.4341H44.434H44.434H44.434H44.4339H44.4339H44.4339H44.4339H44.4338H44.4338H44.4338H44.4337H44.4337H44.4337H44.4337H44.4336H44.4336H44.4336H44.4335H44.4335H44.4335H44.4335H44.4334H44.4334H44.4334H44.4333H44.4333H44.4333H44.4332H44.4332H44.4332H44.4332H44.4331H44.4331H44.4331H44.433H44.433H44.433H44.4329H44.4329H44.4329H44.4329H44.4328H44.4328H44.4328H44.4327H44.4327H44.4327H44.4326H44.4326H44.4326H44.4325H44.4325H44.4325H44.4324H44.4324H44.4324H44.4323H44.4323H44.4323H44.4322H44.4322H44.4322H44.4321H44.4321H44.4321H44.432H44.432H44.432H44.4319H44.4319H44.4319H44.4318H44.4318H44.4318H44.4317H44.4317H44.4317H44.4316H44.4316H44.4316H44.4315H44.4315H44.4315H44.4314H44.4314H44.4313H44.4313H44.4313H44.4312H44.4312H44.4312H44.4311H44.4311H44.4311H44.431H44.431H44.431H44.4309H44.4309H44.4308H44.4308H44.4308H44.4307H44.4307H44.4307H44.4306H44.4306H44.4306H44.4305H44.4305H44.4304H44.4304H44.4304H44.4303H44.4303H44.4303H44.4302H44.4302H44.4301H44.4301H44.4301H44.43H44.43H44.43H44.4299H44.4299H44.4298H44.4298H44.4298H44.4297H44.4297H44.4297H44.4296H44.4296H44.4295H44.4295H44.4295H44.4294H44.4294H44.4293H44.4293H44.4293H44.4292H44.4292H44.4291H44.4291H44.4291H44.429H44.429H44.4289H44.4289H44.4289H44.4288H44.4288H44.4287H44.4287H44.4287H44.4286H44.4286H44.4285H44.4285H44.4285H44.4284H44.4284H44.4283H44.4283H44.4283H44.4282H44.4282H44.4281H44.4281H44.4281H44.428H44.428H44.4279H44.4279H44.4279H44.4278H44.4278H44.4277H44.4277H44.4277H44.4276H44.4276H44.4275H44.4275H44.4274H44.4274H44.4274H44.4273H44.4273H44.4272H44.4272H44.4272H44.4271H44.4271H44.427H44.427H44.4269H44.4269H44.4269H44.4268H44.4268H44.4267H44.4267H44.4267H44.4266H44.4266H44.4265H44.4265H44.4264H44.4264H44.4264H44.4263H44.4263H44.4262H44.4262H44.4261H44.4261H44.4261H44.426H44.426H44.4259H44.4259H44.4258H44.4258H44.4258H44.4257H44.4257H44.4256H44.4256H44.4255H44.4255H44.4255H44.4254H44.4254H44.4253H44.4253H44.4252H44.4252H44.4251H44.4251H44.4251H44.425H44.425H44.4249H44.4249H44.4248H44.4248H44.4248H44.4247H44.4247H44.4246H44.4246H44.4245H44.4245H44.4245H44.4244H44.4244H44.4243H44.4243H44.4242H44.4242H44.4241H44.4241H44.4241H44.424H44.424H44.4239H44.4239M48.5984 22.1663L44.4239 28.455M43.1245 27.155C43.1245 27.1559 43.1245 27.1569 43.1245 27.1578H42.8745M43.1245 27.155C43.1245 27.1545 43.1245 27.154 43.1245 27.1536L42.8745 27.1578M43.1245 27.155C43.1315 27.5493 43.2571 27.8687 43.4824 28.0947M42.8745 27.1578C42.8821 27.6053 43.0262 27.9921 43.3068 28.2727M43.4824 28.0947C43.482 28.0943 43.4816 28.0939 43.4811 28.0935L43.3068 28.2727M43.4824 28.0947C43.7111 28.3166 44.033 28.448 44.4239 28.455M43.4824 28.0947C43.4828 28.0951 43.4832 28.0955 43.4836 28.0959L43.3068 28.2727M43.3068 28.2727L44.4239 28.455M44.445 27.9793L44.4743 27.9647L47.1824 26.1718C47.4858 25.8685 47.5085 25.4589 47.5161 24.8218L47.7661 24.8254C47.7661 24.8253 47.7661 24.8252 47.7661 24.8252C47.7737 24.2908 47.7825 23.7298 47.9803 23.1506L48.1287 22.7159L47.683 22.8273C47.5202 22.868 47.3594 22.9243 47.2111 22.9762L47.206 22.978L47.206 22.9779L47.2011 22.9797C46.4771 23.2502 45.8172 23.6719 45.2461 24.2431C43.8536 25.6356 43.6366 26.6327 43.6183 27.0716L43.618 27.0715V27.082V27.0821V27.0822V27.0824V27.0825V27.0826V27.0828V27.0829V27.083V27.0832V27.0833V27.0834V27.0835V27.0837V27.0838V27.0839V27.0841V27.0842V27.0843V27.0845V27.0846V27.0847V27.0849V27.085V27.0851V27.0852V27.0854V27.0855V27.0856V27.0858V27.0859V27.086V27.0861V27.0863V27.0864V27.0865V27.0867V27.0868V27.0869V27.087V27.0872V27.0873V27.0874V27.0875V27.0877V27.0878V27.0879V27.088V27.0882V27.0883V27.0884V27.0885V27.0887V27.0888V27.0889V27.089V27.0892V27.0893V27.0894V27.0895V27.0897V27.0898V27.0899V27.09V27.0902V27.0903V27.0904V27.0905V27.0906V27.0908V27.0909V27.091V27.0911V27.0913V27.0914V27.0915V27.0916V27.0917V27.0919V27.092V27.0921V27.0922V27.0923V27.0925V27.0926V27.0927V27.0928V27.0929V27.0931V27.0932V27.0933V27.0934V27.0935V27.0937V27.0938V27.0939V27.094V27.0941V27.0942V27.0944V27.0945V27.0946V27.0947V27.0948V27.095V27.0951V27.0952V27.0953V27.0954V27.0955V27.0957V27.0958V27.0959V27.096V27.0961V27.0962V27.0963V27.0965V27.0966V27.0967V27.0968V27.0969V27.097V27.0972V27.0973V27.0974V27.0975V27.0976V27.0977V27.0978V27.0979V27.0981V27.0982V27.0983V27.0984V27.0985V27.0986V27.0987V27.0989V27.099V27.0991V27.0992V27.0993V27.0994V27.0995V27.0996V27.0998V27.0999V27.1V27.1001V27.1002V27.1003V27.1004V27.1005V27.1006V27.1008V27.1009V27.101V27.1011V27.1012V27.1013V27.1014V27.1015V27.1016V27.1017V27.1018V27.102V27.1021V27.1022V27.1023V27.1024V27.1025V27.1026V27.1027V27.1028V27.1029V27.103V27.1032V27.1033V27.1034V27.1035V27.1036V27.1037V27.1038V27.1039V27.104V27.1041V27.1042V27.1043V27.1044V27.1045V27.1047V27.1048V27.1049V27.105V27.1051V27.1052V27.1053V27.1054V27.1055V27.1056V27.1057V27.1058V27.1059V27.106V27.1061V27.1062V27.1063V27.1064V27.1065V27.1067V27.1068V27.1069V27.107V27.1071V27.1072V27.1073V27.1074V27.1075V27.1076V27.1077V27.1078V27.1079V27.108V27.1081V27.1082V27.1083V27.1084V27.1085V27.1086V27.1087V27.1088V27.1089V27.109V27.1091V27.1092V27.1093V27.1094V27.1095V27.1096V27.1097V27.1098V27.1099V27.11V27.1101V27.1102V27.1103V27.1104V27.1105V27.1106V27.1107V27.1108V27.1109V27.111V27.1111V27.1112V27.1114V27.1114V27.1115V27.1116V27.1117V27.1118V27.1119V27.112V27.1121V27.1122V27.1123V27.1124V27.1125V27.1126V27.1127V27.1128V27.1129V27.113V27.1131V27.1132V27.1133V27.1134V27.1135V27.1136V27.1137V27.1138V27.1139V27.114V27.1141V27.1142V27.1143V27.1144V27.1145V27.1146V27.1147V27.1148V27.1149V27.115V27.1151V27.1152V27.1153V27.1154V27.1155V27.1156V27.1157V27.1158V27.1159V27.116V27.1161V27.1162V27.1162V27.1163V27.1164V27.1165V27.1166V27.1167V27.1168V27.1169V27.117V27.1171V27.1172V27.1173V27.1174V27.1175V27.1176V27.1177V27.1178V27.1179V27.118V27.1181V27.1182V27.1183V27.1183V27.1184V27.1185V27.1186V27.1187V27.1188V27.1189V27.119V27.1191V27.1192V27.1193V27.1194V27.1195V27.1196V27.1197V27.1198V27.1199V27.1199V27.12V27.1201V27.1202V27.1203V27.1204V27.1205V27.1206V27.1207V27.1208V27.1209V27.121V27.1211V27.1212V27.1213V27.1213V27.1214V27.1215V27.1216V27.1217V27.1218V27.1219V27.122V27.1221V27.1222V27.1223V27.1224V27.1225V27.1225V27.1226V27.1227V27.1228V27.1229V27.123V27.1231V27.1232V27.1233V27.1234V27.1235V27.1236V27.1236V27.1237V27.1238V27.1239V27.124V27.1241V27.1242V27.1243V27.1244V27.1245V27.1246V27.1247V27.1247V27.1248V27.1249V27.125V27.1251V27.1252V27.1253V27.1254V27.1255V27.1256V27.1257V27.1257V27.1258V27.1259V27.126V27.1261V27.1262V27.1263V27.1264V27.1265V27.1266V27.1266V27.1267V27.1268V27.1269V27.127V27.1271V27.1272V27.1273V27.1274V27.1275V27.1276V27.1276V27.1277V27.1278V27.1279V27.128V27.1281V27.1282V27.1283V27.1284V27.1285V27.1285V27.1286V27.1287V27.1288V27.1289V27.129V27.1291V27.1292V27.1293V27.1293V27.1294V27.1295V27.1296V27.1297V27.1298V27.1299V27.13V27.1301V27.1302V27.1302V27.1303V27.1304V27.1305V27.1306V27.1307V27.1308V27.1309V27.131V27.131V27.1311V27.1312V27.1313V27.1314V27.1315V27.1316V27.1317V27.1318V27.1318V27.1319V27.132V27.1321V27.1322V27.1323V27.1324V27.1325V27.1326V27.1326V27.1327V27.1328V27.1329V27.133V27.1331V27.1332V27.1333V27.1334V27.1335V27.1335V27.1336V27.1337V27.1338V27.1339V27.134V27.1341V27.1342V27.1343V27.1343V27.1344V27.1345V27.1346V27.1347V27.1348V27.1349V27.135V27.1351C43.618 27.2865 43.6377 27.5643 43.8222 27.7611L43.8221 27.7612L43.8278 27.7669C43.9643 27.9034 44.1791 27.9672 44.38 27.9764L44.445 27.9793Z" fill="white" stroke="white" stroke-width="0.5"/>
<path d="M41.5082 28.2972C41.4147 28.2073 41.4096 28.055 41.5073 27.9532C41.7328 27.7202 41.9659 27.487 42.2066 27.2539L42.2066 27.2539L42.2094 27.2511C42.402 27.0585 42.6281 26.9256 42.8578 26.8697L42.8679 26.8673L42.8777 26.864C43.0024 26.8224 43.1583 26.8025 43.3256 26.8154L43.3256 26.8156L43.3367 26.816C43.4488 26.8196 43.5453 26.9091 43.5596 27.0163L43.5596 27.0163L43.5599 27.0186C43.5972 27.2799 43.703 27.5054 43.8885 27.691C44.0607 27.8631 44.3004 27.9732 44.5522 28.0182L44.5522 28.0182L44.5564 28.0189C44.6798 28.0388 44.7599 28.1337 44.7634 28.2428L44.7634 28.2428L44.7635 28.2447C44.7701 28.4083 44.7503 28.5782 44.7052 28.7329C44.6324 28.9776 44.5083 29.1977 44.3284 29.3776L43.6306 30.0754C43.5731 30.1329 43.5085 30.1538 43.4509 30.1538C43.3849 30.1538 43.3282 30.1323 43.2788 30.083C43.1869 29.991 43.1869 29.8307 43.2788 29.7387C43.3521 29.6655 43.4272 29.5912 43.5034 29.5159C43.6591 29.3618 43.8194 29.2033 43.9781 29.0395C44.0772 28.9399 44.146 28.8311 44.1943 28.725L44.3026 28.4866L44.0595 28.3894C43.8639 28.3111 43.6894 28.1944 43.5482 28.0467L43.548 28.0466C43.3914 27.8831 43.2746 27.7123 43.1977 27.5199L43.1035 27.2845L42.8694 27.382C42.7439 27.4343 42.6415 27.5075 42.5461 27.6029C42.4693 27.6797 42.3914 27.7567 42.3135 27.8337C42.1572 27.9883 42.0009 28.143 41.8529 28.2961L41.8524 28.2965C41.7625 28.3901 41.61 28.3951 41.5082 28.2972Z" fill="white" stroke="white" stroke-width="0.5"/>
<path d="M39.9513 29.5548L40.2846 29.2139C40.2847 29.2138 40.2847 29.2137 40.2848 29.2136C40.4314 29.0643 40.6031 28.8883 40.7715 28.7155C41.0882 28.3905 41.3935 28.0773 41.4999 27.9757L41.5 27.9757L41.5041 27.9716C41.6006 27.8751 41.7579 27.8777 41.8449 27.9681L41.8448 27.9682L41.8483 27.9716C41.9384 28.0617 41.9433 28.217 41.8449 28.3193L41.8442 28.32C41.7366 28.4328 41.4066 28.7679 41.0746 29.1051C40.9206 29.2615 40.7661 29.4184 40.6332 29.5537L40.4596 29.7304L40.6348 29.9056L41.689 30.9599L41.8658 31.1366L42.0426 30.9599C42.1109 30.8915 42.1864 30.8177 42.2661 30.7399L42.2747 30.7315C42.3568 30.6513 42.4428 30.5673 42.5271 30.483L43.276 29.7491C43.3778 29.6519 43.5298 29.6571 43.6196 29.7504C43.7175 29.8522 43.7125 30.0047 43.619 30.0947L43.619 30.0947L43.6182 30.0955L42.8603 30.8306C42.5032 31.1725 42.1381 31.53 42.0227 31.6454C41.9831 31.685 41.9274 31.7087 41.8582 31.7087C41.7922 31.7087 41.7356 31.6872 41.6863 31.6379C41.6862 31.6379 41.6862 31.6378 41.6861 31.6378L39.9497 29.8938L39.9493 29.8934C39.8573 29.8014 39.8573 29.6487 39.9493 29.5568L39.9493 29.5568L39.9513 29.5548Z" fill="white" stroke="white" stroke-width="0.5"/>
<path d="M33.2529 37.5161L33.2529 37.5161L33.2538 37.5145C34.2001 35.8828 36.5692 33.0506 39.9449 29.5459L39.945 29.5459L39.9486 29.542C39.9904 29.4967 40.0517 29.4707 40.1138 29.4707V29.471L40.1263 29.4704C40.1869 29.4674 40.2301 29.4842 40.2971 29.5452L42.0299 31.2856L42.0303 31.286C42.0727 31.3284 42.1012 31.393 42.1012 31.4657C42.1012 31.5277 42.0752 31.5891 42.0299 31.6309L42.0299 31.6309L42.0262 31.6343C38.529 34.995 35.7041 37.3644 34.0568 38.326L34.056 38.3264C33.2892 38.7775 33.1547 38.7774 33.0783 38.7773L33.0755 38.7773C33.0124 38.7773 32.9288 38.7436 32.885 38.7031C32.8362 38.6467 32.8157 38.5997 32.8075 38.5564C32.7986 38.5091 32.8006 38.4461 32.8267 38.3544C32.8824 38.1586 33.0239 37.9042 33.2529 37.5161ZM40.3057 30.2499L40.1246 30.0688L39.9479 30.2542C37.1934 33.1453 35.0795 35.6235 34.02 37.2206L34.3672 37.5666C35.9636 36.4998 38.4415 34.3863 41.3326 31.6394L41.5185 31.4627L41.3372 31.2813L40.3057 30.2499Z" fill="white" stroke="white" stroke-width="0.5"/>
<path d="M37.9216 43.3986L37.9231 43.4001L37.9231 43.4002C37.9733 43.4542 38.0353 43.4795 38.1039 43.4795C38.1199 43.4795 38.1412 43.4772 38.1778 43.4669L42.8327 42.0643L42.8416 42.0616L42.8506 42.0596C42.8699 42.0553 42.8963 42.0421 42.9177 42.0207L42.9247 42.0137L42.9248 42.0138L54.0284 31.7598L54.0284 31.7597C54.0763 31.7155 54.1036 31.6563 54.1077 31.5878C54.1113 31.5209 54.0909 31.4655 54.0448 31.4154L37.9216 43.3986ZM37.9216 43.3986C37.8604 43.3338 37.8404 43.2318 37.8741 43.1457C37.8741 43.1457 37.8741 43.1456 37.8741 43.1456L39.6466 38.6236C39.6661 38.5806 39.6868 38.5496 39.7112 38.5244L50.8105 28.2743C50.8105 28.2742 50.8105 28.2742 50.8105 28.2742C50.9092 28.1832 51.0665 28.1911 51.1518 28.287L51.1518 28.287L51.1551 28.2906L54.0446 31.4152L37.9216 43.3986ZM40.1263 38.8055L40.0841 38.8445L40.0631 38.898L38.6979 42.3793L38.5101 42.8581L39.0026 42.7099L42.5825 41.633L42.6377 41.6163L42.68 41.5772L53.3437 31.7327L53.5274 31.5631L53.3577 31.3794L51.1431 28.9827L50.9735 28.7992L50.7899 28.9686L40.1263 38.8055Z" fill="white" stroke="white" stroke-width="0.5"/>
<path d="M42.6388 41.4604L42.5944 41.2872L42.4162 41.2733L42.0294 41.2429L42.0294 41.2429L42.0265 41.2427C41.9137 41.2352 41.8237 41.1474 41.81 41.0484L41.8101 41.0484L41.8092 41.043L41.7106 40.4286L41.6768 40.2183H41.4638H41.0163C40.9532 40.2183 40.888 40.1912 40.8442 40.1474C40.8004 40.1036 40.7733 40.0384 40.7733 39.9753V39.5354V39.3223L40.5629 39.2885L39.9501 39.1902C39.8118 39.1659 39.7253 39.0375 39.7458 38.9178L39.7459 38.9178L39.7469 38.9109C39.765 38.7839 39.8927 38.6908 40.0184 38.7124L40.0184 38.7124L40.0225 38.7131L41.0535 38.8723C41.0536 38.8723 41.0537 38.8723 41.0537 38.8723C41.1749 38.8913 41.2593 38.9915 41.2593 39.1107V39.4747V39.7247H41.5093H41.8809C42.0001 39.7247 42.1003 39.8091 42.1193 39.9304L42.1193 39.9304L42.1196 39.9325L42.2258 40.5771L42.2574 40.7691L42.4513 40.7856L42.8077 40.816L42.8077 40.816L42.8111 40.8162C42.9116 40.8234 42.9991 40.8955 43.0267 41.0005L43.2615 41.9325L43.2615 41.9325L43.2618 41.9336C43.2952 42.0635 43.2189 42.1941 43.0852 42.2284L43.0696 42.2324L43.0627 42.2352C43.0606 42.2353 43.0575 42.2354 43.0533 42.2355C43.0461 42.2357 43.0381 42.2357 43.0261 42.2357C42.9228 42.2357 42.8221 42.1634 42.7898 42.0494L42.6388 41.4604Z" fill="white" stroke="white" stroke-width="0.5"/>
<path d="M53.8438 31.5543L53.8436 31.5541L50.8328 28.5509C50.8328 28.5509 50.8328 28.5508 50.8327 28.5508C50.789 28.507 50.762 28.4419 50.762 28.3788C50.762 28.3159 50.7889 28.2508 50.8325 28.207L51.6208 27.4264L51.6208 27.4264L51.6227 27.4244C52.1172 26.9236 53.019 26.9175 53.5195 27.4244L53.5195 27.4244L53.5211 27.426L54.9692 28.8665C54.9693 28.8666 54.9694 28.8667 54.9694 28.8667C55.2253 29.1227 55.3662 29.4683 55.3662 29.8274C55.3662 30.1859 55.2258 30.523 54.9715 30.7709L54.9715 30.7709L54.9692 30.7731L54.192 31.5503C54.134 31.6027 54.0725 31.6252 54.0159 31.6252C53.9499 31.6252 53.8932 31.6037 53.8438 31.5543ZM51.5259 28.1944L51.3489 28.3715L51.5262 28.5483L53.8395 30.8539L54.0162 31.0301L54.1927 30.8536L54.625 30.4213C54.787 30.2593 54.8727 30.0435 54.8727 29.8198C54.8727 29.5879 54.7865 29.3723 54.6174 29.2032L54.617 29.2027L53.1688 27.7621C53.1687 27.762 53.1686 27.7619 53.1685 27.7618C52.8433 27.437 52.2833 27.4371 51.9582 27.7621L51.5259 28.1944Z" fill="white" stroke="white" stroke-width="0.5"/>
</svg>
